<?xml version="1.0" standalone="no"?>
<!DOCTYPE svg PUBLIC "-//W3C//DTD SVG 1.1//EN" "http://www.w3.org/Graphics/SVG/1.1/DTD/svg11.dtd" >
<svg>
<metadata>
Created by FontForge 20090914 at Fri Aug  4 21:43:00 2017
 By www-data
Typeface &#194;&#169; (Ivan Kostynyk). 2010. All Rights Reserved
</metadata>
<defs>
<font id="Lloyd" horiz-adv-x="1139" >
  <font-face 
    font-family="Lloyd"
    font-weight="700"
    font-stretch="normal"
    units-per-em="2048"
    panose-1="2 0 8 0 0 0 0 0 0 0"
    ascent="1638"
    descent="-410"
    x-height="1314"
    cap-height="1672"
    bbox="-194 -437 1594 1859"
    underline-thickness="150"
    underline-position="-142"
    unicode-range="U+0020-U+F005"
  />
<missing-glyph horiz-adv-x="1536" 
 />
    <glyph glyph-name=".notdef" horiz-adv-x="1536" 
 />
    <glyph glyph-name="space" unicode=" " horiz-adv-x="370" 
 />
    <glyph glyph-name="space" unicode="&#xa0;" horiz-adv-x="370" 
 />
    <glyph glyph-name="exclam" unicode="!" horiz-adv-x="453" 
d="M311 1675l134.002 -0.000976562l4 -4c-26.667 0 -46 -16 -58 -48v-874c0 -99.333 -45.333 -182.666 -136 -249.999c-50.667 -34.667 -111.334 -52 -182.001 -52h-68l-4 4v918c0 116 56 207.333 168 274c47.333 21.333 94.666 32 141.999 32zM191.002 383.999
c78 0 136.668 -38.333 176.001 -115c12 -30.667 18 -55 18 -73c0 -84 -42.333 -146 -127 -186c-22.667 -6.66699 -43 -10 -61 -10h-14c-72 0 -128.667 39.667 -170 119c-9.33301 28.667 -14 53 -14 73c0 70 33.667 126 101 168c31.333 16 61.666 24 90.999 24z" />
    <glyph glyph-name="quotedbl" unicode="&#x22;" horiz-adv-x="713" 
 />
    <glyph glyph-name="numbersign" unicode="#" horiz-adv-x="993" 
d="M392 1320h133.999l3 -3v-1c-27.333 0 -46.666 -14.667 -57.999 -44l-1 -8v-250h56v6c0 85.333 37.667 162.333 113 231c59.333 46 126.666 69 201.999 69h135l3 -3v-1c-39.333 -6 -59 -24 -59 -54l-1 -14v-234h59l3 -2v-4l-3 -3h-59v-689l3 -3h49l7 1l3 -4v-3l-3 -2h-58
l-2 -3v-6c0 -73.333 -31.333 -142.666 -94 -207.999c-63.333 -58.667 -135.666 -88 -216.999 -88l-2 2l-9 -2h-103l-5 2l-2 -2l-6 2l-5 -2l-5 2l-4 -2l-1 2v1c0 1.33301 7 3 21 5c26 12.667 39 31.334 39 56.001v241h-56c0 -82.667 -34.333 -157.334 -103 -224.001
c-62 -54 -131.667 -81 -209 -81l-1 2l-9 -2h-97l-13 2l-1 -2l-7 2h-14v1c0 1.33301 8.33301 3.66602 25 6.99902c22.667 13.333 34 30 34 50v245h-61l-3 2v4l1 2v1l14 -1h46l5 4v688h-63l-3 3v4l3 2h63v2c0 90 39.333 169.667 118 239c58 43.333 124 65 198 65z
M468.999 1005v-692h56v692h-56z" />
    <glyph glyph-name="dollar" unicode="$" horiz-adv-x="1012" 
d="M515 1742l1.99902 -2.00195v-13l-4 -6v-51h98c130.667 0 227 -63.333 289 -190c14 -41.333 21 -78.333 21 -111v-3c0 -83.333 -44.667 -144 -134 -182c-18.667 -5.33301 -36 -8 -52 -8h-15c-65.333 0 -119 32 -161 96c-18.667 36 -28 67.333 -28 94l3 21v225
c0 14.667 -7 28 -21 40v-617c0 -4 7.66699 -6 23 -6h92c98 0 181.667 -49 251 -147c29.333 -46.667 44 -113 44 -199v-333c0 -113.333 -25.667 -194.666 -77 -243.999c-63.333 -69.333 -135.333 -104 -216 -104h-117v-56c0 -15.333 -6.33301 -23 -19 -23l-4 4v8l4 6v61h-111
c-82 0 -156.333 36.333 -223 109c-47.333 59.333 -71 122 -71 188v9c0 74.667 40 132.667 120 174c25.333 9.33301 49.666 14 72.999 14c76.667 0 135.334 -36.333 176.001 -109c10 -18 17 -43.667 21 -77l-2 -42v-203c0 -19.333 5.66699 -32.666 17 -39.999h2l-2 14v984
l-21 2h-86c-106 0 -192.667 51.667 -260 155c-26.667 52.667 -40 103.667 -40 153h2l-2 6c0 158 72 263.667 216 317c28.667 9.33301 68.334 14 119.001 14h72v38c0 22.667 7 34 21 34zM476.999 1664v-583c0 -12 5.66699 -23.667 17 -35l2 2l-2 2v610l-4 4h-13z
M512.999 1012v-1002l21 -4v968c0 13.333 -7 26 -21 38z" />
    <glyph glyph-name="percent" unicode="%" horiz-adv-x="1295" 
d="M1055 1671h8l4 -4l-840 -1667l-9 6zM293 1561h6c94 0 167.333 -46.333 220 -139c16.667 -35.333 25 -72.666 25 -111.999c0 -82.667 -38.667 -151.334 -116 -206.001c-42.667 -26 -87 -39 -133 -39c-84.667 0 -154 38.667 -208 116c-26 40 -39 84.333 -39 133
c0 94.667 45.667 168.667 137 222c35.333 16.667 71.333 25 108 25zM978 637h14.001c83.333 0 152.666 -41.333 207.999 -124c22 -39.333 33 -81 33 -125c0 -96.667 -47.667 -171.334 -143 -224.001c-38 -15.333 -72.667 -23 -104 -23c-86 0 -156 38.667 -210 116
c-26 40.667 -39 86.334 -39 137.001c0 86.667 43 158 129 214c40.667 19.333 78 29 112 29z" />
    <glyph glyph-name="ampersand" unicode="&#x26;" horiz-adv-x="1192" 
d="M510 1678l11 -1.99902h9c83.333 0 154 -42 212 -126c25.333 -42.667 38 -85 38 -127v-13c0 -82.667 -38.333 -154.334 -115 -215.001l-206 -183l439 -812c19.333 18.667 40 53.667 62 105c20.667 54.667 31 110.667 31 168v18l5 4h14v-14c0 -112 -33 -211 -99 -297
c46.667 -98.667 78 -148 94 -148c6 -4 17.667 -7.33301 35 -10l6 2v-2c28 0 52.667 18.667 74 56l14 -6c-20 -44 -48.333 -66 -85 -66h-14c-43.333 0 -79 34.333 -107 103l-31 54c-101.333 -111.333 -221 -167 -359 -167c-164 0 -297 72.667 -399 218
c-49.333 81.333 -74 159.666 -74 234.999v34c0 146.667 71.333 276.334 214 389.001l159 143c-109.333 193.333 -167 301.333 -173 324c-6.66699 30.667 -10 55 -10 73c0 91.333 43 166 129 224c47.333 25.333 89.333 38 126 38zM273 1414c0 -48 16.668 -98 50.001 -150
l126 -236c131.333 112.667 216.666 188.667 255.999 228c39.333 50.667 59 102 59 154l-2 6h2l-2 2v8c0 81.333 -42 149.333 -126 204c-41.333 20 -81.333 30 -120 30c-90.667 0 -163 -45 -217 -135c-17.333 -38.667 -26 -75.667 -26 -111zM81.001 470.001
c0 -146 64.332 -269.667 192.999 -371c84 -54 170 -81 258 -81h5c137.333 0 254 54.667 350 164l2 2v2c-9.33301 13.333 -156.666 284 -441.999 812h-3c-130 -111.333 -214 -187 -252 -227c-74 -88 -111 -188.333 -111 -301z" />
    <glyph glyph-name="quotesingle" unicode="'" horiz-adv-x="503" 
d="M262 1854v-1l1 1c28.667 0 61.667 -11 99 -33c36 -25.333 61 -60.333 75 -105c4.66699 -16 7 -30.333 7 -43v-15c0 -76 -29 -144.667 -87 -206c-61.333 -58.667 -130.333 -88 -207 -88h-142l-2 2v1c28 0 47 15.333 57 46l1 16v229c0 83.333 40 144.333 120 183
c25.333 8.66699 51.333 13 78 13z" />
    <glyph glyph-name="parenleft" unicode="(" horiz-adv-x="496" 
d="M353 1672h141l3 -3c-31.333 0 -51 -18 -59 -54v-1557c5.33301 -38 24.333 -57 57 -57v-4h-141l-7 -2c-54 0 -111.333 19.333 -172 58c-34 28 -60 54.667 -78 80c-33.333 56 -50 108.333 -50 157h-2l2 9v1076c0 93.333 44.667 175 134 245c56 34.667 113.333 52 172 52z
" />
    <glyph glyph-name="parenright" unicode=")" horiz-adv-x="458" 
d="M88 1672c103.333 0 188.333 -46.333 255 -139c33.333 -52 50 -106.667 50 -164v-1069c0 -102 -46.667 -186.667 -140 -254c-50 -33.333 -109 -50 -177 -50h-129l-4 4c39.333 6.66699 59 26.334 59 59.001v1556c0 23.333 -15.333 40.666 -46 51.999
c-8.66699 0 -13 1.33301 -13 4l2 1h143z" />
    <glyph glyph-name="asterisk" unicode="*" horiz-adv-x="499" 
d="M243 1758h10v-172l1 -4l-1 -4l186 53l3 -8c-4 -2 -65.333 -20.333 -184 -55v-1l121 -148l-6 -6l-125 150l-122 -150c-4 0 -6.66699 1.66699 -8 5v1l121 148c0 2 -35.333 12.667 -106 32l-79 24v2c0 4 1.33301 6 4 6l185 -53v180z" />
    <glyph glyph-name="plus" unicode="+" horiz-adv-x="716" 
d="M356 1192h5l2 -3v-238h238l2 -3v-3l-2 -3h-235l-3 -2v-236l-2 -2h-5l-2 2v237l-4 1l-1 -1l-6 1h-217l-12 -1l-1 1v6l2 3h239v238z" />
    <glyph glyph-name="comma" unicode="," horiz-adv-x="586" 
d="M271 387v-2l1 2c30 0 64.667 -11.667 104 -35c38 -26.667 64.333 -63.667 79 -111c5.33301 -16.667 8 -31.667 8 -45v-16c0 -80 -30.667 -151.667 -92 -215c-65.333 -62 -138 -93 -218 -93h-149l-3 3v1c30 0 50 16 60 48l2 16v240c0 88 42 152.333 126 193
c26.667 9.33301 54 14 82 14z" />
    <glyph glyph-name="hyphen" unicode="-" horiz-adv-x="508" 
d="M58 670v8l2 2h388c1.33301 0 2.33301 -1.33301 3 -4l-1 -8h-390z" />
    <glyph glyph-name="hyphen" unicode="&#xad;" horiz-adv-x="508" 
d="M58 670v8l2 2h388c1.33301 0 2.33301 -1.33301 3 -4l-1 -8h-390z" />
    <glyph glyph-name="period" unicode="." horiz-adv-x="493" 
d="M237 387l9.99707 0.000976562c60.667 0 112.667 -28.333 156 -85c21.333 -35.333 32 -70.333 32 -105v-2c0 -76.667 -36.667 -135.334 -110 -176.001c-31.333 -12.667 -56.666 -19 -75.999 -19l-6 1h-3l-5 -1c-27.333 0 -57.666 9 -90.999 27c-64 42 -96 98 -96 168
c0 61.333 26.333 113 79 155c34.667 24.667 71.334 37 110.001 37z" />
    <glyph glyph-name="slash" unicode="/" horiz-adv-x="418" 
d="M377 1675c8 -0.666992 12 -2.66699 12 -6l-342 -1667l-2 -2h-2c-8 0.666992 -12 2 -12 4l320 1570l22 99l2 2h2z" />
    <glyph glyph-name="zero" unicode="0" horiz-adv-x="886" 
d="M310 1675h209c126 0 220.333 -56.333 283 -169c22 -41.333 33 -88.333 33 -141v-1062c0 -108.667 -52 -196.667 -156 -264c-47.333 -26 -102.333 -39 -165 -39h-195c-91.333 0 -166 28 -224 84c-63.333 64 -95 136.333 -95 217v1075c-0 98 45.333 180.667 136 248
c51.333 34 109.333 51 174 51zM389 1613l-0.000976562 -1607c38 5.33301 57 24 57 56v1607h-6c-23.333 0 -39.666 -14.667 -48.999 -44z" />
    <glyph glyph-name="one" unicode="1" horiz-adv-x="445" 
d="M307 1678h140v-2c0 -2.66699 -4.66699 -4 -14 -4c-28.667 -12 -43 -31.667 -43 -59v-1609l-4 -4h-435v4c34 4 51 16 51 36v1324l-2 12c0 56 20 115.333 60 178c68 82.667 150.333 124 247 124z" />
    <glyph glyph-name="two" unicode="2" horiz-adv-x="895" 
d="M298 1678l238 -0.000976562c94.667 0 175.334 -43 242.001 -129c37.333 -54.667 56 -111 56 -169v-130c0 -92.667 -41 -172.334 -123 -239.001c-60 -40.667 -117.667 -61 -173 -61l-9 2h-112l-7 -2l-8 2h-13l-2 -10v-864c0 -38.667 15 -61.667 45 -69l13 -2v272
c0 68.667 21.667 115.334 65 140.001c22 14.667 47.667 22 77 22h288v-3c-23.333 0 -37 -15.667 -41 -47v-91c0 -98 -44.667 -180.667 -134 -248c-52.667 -34.667 -108.334 -52 -167.001 -52h-84l-6 4h-117l-28 -2v2l-2 -2c-76 0 -148.667 33.333 -218 100
c-52 62.667 -78 128.667 -78 198v363c-0 87.333 42.333 166.333 127 237c57.333 36.667 114.333 55 171 55h86c32.667 0 53 16.333 61 49v9l2 607l-2 54c-25.333 0 -44 -15.333 -56 -46v-265c0 -51.333 -26.667 -99.666 -80 -144.999c-36 -23.333 -70.667 -35 -104 -35h-21
c-67.333 0 -122.333 36 -165 108c-12.667 28.667 -19 54 -19 76v17c-0 71.333 29.333 139 88 203c63.333 60.667 133.333 91 210 91z" />
    <glyph glyph-name="three" unicode="3" horiz-adv-x="901" 
d="M307 1678l219.002 -0.00195312c127.333 0 222.666 -60.667 285.999 -182c17.333 -39.333 26 -88 26 -146v-93l-1 -11l1 -2c0 -47.333 -17 -100 -51 -158c-25.333 -36 -53.333 -64 -84 -84c-53.333 -32 -95 -48 -125 -48c0 -4 6.66699 -6 20 -6
c78.667 -22 137.334 -59.333 176.001 -112c42.667 -55.333 64 -120.666 64 -195.999v-318c0 -143.333 -66 -244.333 -198 -303c-35.333 -12.667 -70.333 -19 -105 -19h-233c-95.333 0 -176.333 42.667 -243 128c-38 54 -57 113 -57 177v87c-3.33301 30.667 -17 46 -41 46v4
h285c69.333 0 115.666 -34 138.999 -102c4 -9.33301 6 -19.333 6 -30v-305h7c21.333 0 37.333 14.333 48 43l2 12v587l2 11l-2 1l2 9v209c0 36 -12.667 59.333 -38 70l-21 3v4c38 5.33301 57 24.333 57 57v661h-6c-24 0 -41 -16.667 -51 -50v-187l2 -73
c0 -29.333 -13.667 -65 -41 -107c-42.667 -50 -95.667 -75 -159 -75c-60.667 0 -112.334 27.333 -155.001 82c-25.333 38.667 -38 74.334 -38 107.001l2 9v2c0 91.333 41.667 171 125 239c56 39.333 116 59 180 59z" />
    <glyph glyph-name="four" unicode="4" horiz-adv-x="892" 
d="M-53 1679h442.001l2 -2h2l-2 -858v-307l2 -8l-2 -2c7.33301 -37.333 24.333 -56 51 -56h4l4 3v1230h444v-4h-4c-34 -4 -51 -16 -51 -36v-1635l-4 -4h-436v4c34 3.33301 51 15.666 51 36.999v386l-2 13h-139c-112.667 0 -202.334 52.333 -269.001 157
c-25.333 47.333 -38 99.333 -38 156v890c0 16.667 -17 27.334 -51 32.001h-4v4z" />
    <glyph glyph-name="five" unicode="5" horiz-adv-x="892" 
d="M3 1678l526.001 -0.000976562c108.667 0 196.334 -50 263.001 -150c28.667 -48 43 -102.667 43 -164v-80c4 -30 16.667 -45 38 -45h3v-3h-38l-7 -2l-12 2h-242c-50 0 -90 27.667 -120 83c-8 17.333 -12 43.333 -12 78v277c-38 -3.33301 -57 -16 -57 -38v-284l1 -6l-1 -8
v-313c0 -35.333 12 -57.666 36 -66.999l15 -3h75c139.333 0 238.666 -64.667 297.999 -194c15.333 -43.333 23 -80.666 23 -111.999h-2l2 -2l-2 -8v-344c0 -92.667 -44.333 -173.667 -133 -243c-55.333 -34.667 -111 -52 -167 -52h-237c-98 0 -181.333 46.667 -250 140
c-32 52 -48 110 -48 174v83c-4.66699 27.333 -18.667 41 -42 41v4h288c68.667 0 114.667 -35 138 -105c4 -13.333 6 -30.333 6 -51v-283c16.667 1.33301 32 9.66602 46 24.999c7.33301 12 11 24.333 11 37v884h-144c-96.667 0 -178.334 42.667 -245.001 128
c-37.333 55.333 -56 112.333 -56 171v426z" />
    <glyph glyph-name="six" unicode="6" horiz-adv-x="895" 
d="M312 1683l220 -0.000976562c102 0 186 -43.667 252 -131c38 -48 57 -117.667 57 -209v-60c0 -22 13.667 -35 41 -39v-4h-295c-62.667 0 -107 34.333 -133 103c-3.33301 16 -5 35.333 -5 58v277h-6c-15.333 0 -30 -9.33301 -44 -28c-4.66699 -10 -7 -19.667 -7 -29v-660
l4 -3h5l7 2l2 -2h5v2l13 -2h120c80.667 0 155.667 -38.333 225 -115c44 -58.667 66 -124 66 -196v-338c0 -122 -58.667 -215.667 -176 -281c-44 -18.667 -85.333 -28 -124 -28h-236c-94.667 0 -175 40.667 -241 122c-27.333 30.667 -47.333 80.334 -60 149.001l-2 13l2 57
v1044c0 94 43.667 175 131 243c53.333 36.667 113 55 179 55zM392 953.999v-216.001l-2 -731l2 -2h5c28 0 45.333 19 52 57v832c0 28.667 -15 48.334 -45 59.001z" />
    <glyph glyph-name="seven" unicode="7" horiz-adv-x="886" 
d="M336 1678l94.998 -1.00195l2 1h2l2 -1l21 1h435v-3h-2c-29.333 0 -47.333 -11.333 -54 -34v-1637l-4 -4h-437v4h2c28 0 44.333 11.667 49 35v1634c-31.333 0 -50 -19.333 -56 -58v-235c0 -62.667 -31.333 -107 -94 -133c-13.333 -5.33301 -25.666 -8 -36.999 -8h-279
l-16 -1l-6 1c0 2.66699 7.33301 5.33398 22 8.00098c13.333 11.333 20 23 20 35v76c0 138.667 63 237.334 189 296.001c32.667 16 81.334 24 146.001 24z" />
    <glyph glyph-name="eight" unicode="8" horiz-adv-x="892" 
d="M303 1678l219.001 0.000976562c128.667 0 224 -60 286 -180c18.667 -39.333 28 -83.666 28 -132.999v-96c0 -130 -60.667 -226 -182 -288c-39.333 -16 -71.333 -24 -96 -24c0 -2 14.333 -4.66699 43 -8c74 -20.667 131 -57.334 171 -110.001
c31.333 -38 52.666 -87 63.999 -147l3 -33l-2 -8v-360c0 -84 -40.333 -161 -121 -231c-59.333 -40 -118.333 -60 -177 -60h-234c-107.333 0 -194.666 50.667 -261.999 152c-27.333 48 -41 104 -41 168v322c0 123.333 56 217 168 281c43.333 19.333 75 29 95 29v2
c-48.667 7.33301 -90.667 22.666 -126 45.999c-60 37.333 -103 96 -129 176c-6.66699 25.333 -10 49 -10 71v133c0 100.667 48.667 185 146 253c51.333 30 103.666 45 156.999 45zM389.001 1615l0.000976562 -600.999c0 -30.667 17 -50.334 51 -59.001h5l2 2v712
c0 2.66699 -1.66699 4 -5 4c-22.667 0 -39.334 -13.333 -50.001 -40c-2 -4 -3 -10 -3 -18zM390.002 950.002l-0.000976562 -3h2l-2 -17v-266l2 -8h-2l2 -2v-649h2c30.667 0 49 19 55 57v832c-5.33301 37.333 -23.666 56 -54.999 56h-4z" />
    <glyph glyph-name="nine" unicode="9" horiz-adv-x="895" 
d="M306 1677h218.001c131.333 0 227.666 -62.333 288.999 -187c16.667 -36.667 25 -82 25 -136v-1036c0 -135.333 -62.667 -233.333 -188 -294c-39.333 -15.333 -77.666 -23 -114.999 -23h-217c-128.667 0 -224.334 58.333 -287.001 175c-20 49.333 -30 92.666 -30 129.999
l2 8v73c-2.66699 33.333 -14 50 -34 50l-9 2v3h291c65.333 0 110.333 -33.667 135 -101c3.33301 -12 5 -25.667 5 -41v-292l2 -2v-2c24 0 42.333 15.333 55 46v901h-151c-92.667 0 -173 44 -241 132c-35.333 54.667 -53 109.334 -53 164.001v118l-2 7l2 7v1
c0 95.333 44.667 177 134 245c54.667 34.667 111 52 169 52zM391.001 1618v-605c6 -38.667 25 -58 57 -58v26l2 637l-2 53h-6c-26 0 -43 -17.667 -51 -53z" />
    <glyph glyph-name="colon" unicode=":" horiz-adv-x="453" 
d="M196 1318c78 0 137.002 -38.333 177.002 -115c11.333 -30.667 17 -55 17 -73c0 -84 -42 -146 -126 -186c-22.667 -6.66699 -43.334 -10 -62.001 -10h-14c-72 0 -128.667 39.667 -170 119c-9.33301 28.667 -14 53 -14 73c0 70 33.667 126 101 168
c31.333 16 61.666 24 90.999 24zM196.002 384c78 0 136.668 -38.333 176.001 -115c12 -30.667 18 -55 18 -73c0 -84 -42.333 -146 -127 -186c-22.667 -6.66699 -43 -10 -61 -10h-14c-72 0 -128.667 39.667 -170 119c-9.33301 28.667 -14 53 -14 73c0 70 33.667 126 101 168
c31.333 16 61.666 24 90.999 24z" />
    <glyph glyph-name="semicolon" unicode=";" horiz-adv-x="477" 
d="M232 1317c78 0 136.668 -38.333 176.001 -115c12 -30.667 18 -55 18 -73c0 -84 -42.333 -146 -127 -186c-22.667 -6.66699 -43 -10 -61 -10h-14c-72 0 -128.667 39.667 -170 119c-9.33301 28.667 -14 53 -14 73c0 70 33.667 126 101 168c31.333 16 61.666 24 90.999 24z
M249.001 388v-1.00098l1 1c28.667 0 61.667 -11 99 -33c36 -24.667 61 -59.667 75 -105c4.66699 -16 7 -30.333 7 -43v-15c0 -75.333 -29 -143.666 -87 -204.999c-61.333 -59.333 -130.333 -89 -207 -89h-141l-3 3v1c28 0 47 15.333 57 46l1 15v229
c0 83.333 40 144.333 120 183c25.333 8.66699 51.333 13 78 13z" />
    <glyph glyph-name="semicolon" unicode="&#x37e;" horiz-adv-x="477" 
d="M232 1317c78 0 136.668 -38.333 176.001 -115c12 -30.667 18 -55 18 -73c0 -84 -42.333 -146 -127 -186c-22.667 -6.66699 -43 -10 -61 -10h-14c-72 0 -128.667 39.667 -170 119c-9.33301 28.667 -14 53 -14 73c0 70 33.667 126 101 168c31.333 16 61.666 24 90.999 24z
M249.001 388v-1.00098l1 1c28.667 0 61.667 -11 99 -33c36 -24.667 61 -59.667 75 -105c4.66699 -16 7 -30.333 7 -43v-15c0 -75.333 -29 -143.666 -87 -204.999c-61.333 -59.333 -130.333 -89 -207 -89h-141l-3 3v1c28 0 47 15.333 57 46l1 15v229
c0 83.333 40 144.333 120 183c25.333 8.66699 51.333 13 78 13z" />
    <glyph glyph-name="less" unicode="&#x3c;" horiz-adv-x="483" 
d="M380 299h-1l-374 375v1l373 373h1l9 -9v-1l-363 -364l364 -366z" />
    <glyph glyph-name="equal" unicode="=" horiz-adv-x="573" 
d="M97 710h374l1 -9c-0.666992 -4 -1.66699 -6 -3 -6h-372l-2 2v11zM97 1204h374l1 -9c-0.666992 -4 -1.66699 -6 -3 -6h-372l-2 2v10z" />
    <glyph glyph-name="greater" unicode="&#x3e;" horiz-adv-x="481" 
d="M13 1048h1l374 -374v-2l-373 -373h-1l-9 9v1l363 365l-364 365z" />
    <glyph glyph-name="question" unicode="?" horiz-adv-x="948" 
d="M360 1678l233.998 0.00195312c89.333 0 168 -43.333 236 -130c36.667 -52.667 55 -111.334 55 -176.001v-468c0 -94.667 -46.333 -177 -139 -247c-53.333 -32 -110.666 -48 -171.999 -48h-135v4c37.333 7.33301 56 25.666 56 54.999h2l-2 2l2 11v675l-2 9l2 2l-2 11v296
c-34 0 -53.333 -23 -58 -69v-141l2 -108c-8 -46.667 -23.333 -82.667 -46 -108c-43.333 -45.333 -93.333 -68 -150 -68c-79.333 0 -139.666 40.333 -180.999 121c-7.33301 16.667 -12.333 41.667 -15 75h2l-2 2c0 55.333 20.667 114.333 62 177c66 82 149.667 123 251 123z
M470.998 388.002h10.999c80.667 0 140 -43.333 178 -130c6 -18 9.66699 -38.667 11 -62c0 -80.667 -40.333 -141 -121 -181c-26 -10 -50.333 -15 -73 -15c-82.667 0 -143.667 42.667 -183 128c-7.33301 21.333 -11 42 -11 62v11c0 77.333 42 136 126 176
c22.667 7.33301 43.334 11 62.001 11z" />
    <glyph glyph-name="at" unicode="@" horiz-adv-x="1595" 
d="M743 1410h108v-2h23v-2h22v-2h14v-2h12v-2h14v-2h10v-2h10v-2h10v-2h10v-2h8v-2h8v-2h8v-2h8v-2h8v-2h5v-2h6v-2h8v-2h6v-2h6v-2h6v-2h6v-2h6v-2h4v-2h6v-2h6v-2h6v-2h4v-2h4v-2h6v-2h6v-2h4v-2h4v-2h4v-2h6v-2h4v-2h4v-2h4v-2h4v-2h4v-2h4v-2h4v-2h4v-2h4v-2h4v-2h4v-2
h4v-2h3v-2h4v-2h2v-2h4v-2h4v-2h4v-2h2v-2h4v-2h4v-2h4v-2h2v-2h4v-2h4v-2h2v-2h4v-2h2v-2h4v-2h2v-2h4v-2h4v-2h2v-2h2v-2h4v-2h2v-2h4v-2h2v-2h4v-2h2v-2h2v-2h4v-2h2v-1h4v-2h2v-2h2v-2h2v-2h4v-2h2v-2h2v-2h2v-2h4v-2h2v-2h2v-2h4v-2h2v-2h2v-2h2v-2h4v-2h2v-2h2v-2h2
v-2h2v-2h2v-2h2v-2h2v-2h4v-2h1v-2h2v-2h2v-2h2v-2h2v-2h2v-2h2v-2h2v-2h2v-2h2v-2h2v-2h2v-2h2v-2h2v-2h2v-2h2v-2h2v-2h4v-2h2v-2h2v-4h2v-2h2v-2h2v-2h2v-2h2v-2h2v-2h2v-2h2v-2h2v-2h2v-2h2v-2h2v-4h2v-2h2v-2h2v-2h2v-2h2v-2h2v-4h2v-2h2v-2h2v-2h2v-2h2v-4h2v-2h2v-2
h2v-2h2v-4h2v-2h2v-2h2v-3h2v-2h2v-2h2v-4h2v-2h2v-2h2v-4h2v-2h2v-2h2v-4h2v-2h2v-4h2v-2h2v-4h2v-2h2v-4h2v-2h2v-4h2v-2h2v-4h2v-2h2v-4h2v-4h2v-2h2v-4h2v-4h2v-2h2v-4h2v-4h1v-2h2v-4h2v-4h2v-4h2v-2h2v-6h2v-2h2v-4h2v-4h2v-4h2v-4h2v-4h2v-4h2v-4h2v-4h2v-4h2v-4h2
v-5h2v-4h2v-4h2v-4h2v-6h2v-4h2v-6h2v-4h2v-6h2v-4h2v-6h2v-4h2v-6h2v-6h2v-6h2v-6h2v-6h2v-6h2v-6h2v-6h2v-8h2v-8h2v-6h2v-8h2v-8h2v-8h2v-10h2v-7h2v-10h2v-10h2v-12h2v-12h2v-16h2v-16h2v-20h2v-30h2v-79h-2v-30h-2v-20h-2v-16h-2v-14h-2v-12h-2v-11h-2v-10h-2v-10h-2
v-10h-2v-8h-2v-10h-2v-8h-2v-8h-2v-6h-2v-8h-2v-6h-2v-6h-2v-6h-2v-8h-2v-6h-2v-4h-2v-8h-2v-4h-2v-6h-2v-6h-2v-4h-2v-6h-2v-6h-2v-3h-2v-4h-2v-6h-2v-4h-2v-4h-2v-4h-2v-6h-2v-4h-2v-4h-2v-4h-2v-6h-2v-4h-2v-4h-2v-4h-2v-2h-2v-6h-2v-2h-2v-4h-2v-4h-2v-4h-2v-4h-2v-2h-2
v-4h-2v-4h-2v-4h-1v-2h-2v-4h-2v-4h-2v-4h-2v-2h-2v-4h-2v-2h-2v-4h-2v-4h-2v-2h-2v-4h-2v-2h-2v-4h-2v-2h-2v-4h-2v-2h-2v-4h-2v-1h-2v-4h-2v-2h-2v-2h-2v-4h-2v-2h-2v-4h-2v-2h-2v-2h-2v-2h-2v-4h-2v-2h-2v-2h-2v-4h-2v-2h-2v-2h-2v-4h-2v-2h-2v-2h-2v-2h-2v-2h-2v-4h-2
v-2h-2v-2h-2v-2h-2v-4h-2v-2h-2v-2h-2v-2h-2v-2h-2v-2h-2v-2h-2v-2h-2v-4h-2v-2h-2v-2h-2v-2h-2v-2h-2v-2h-2v-2h-2v-2h-2v-2h-2v-2h-2v-2h-2v-2h-2v-2h-2v-2h-2v-2h-2v-2h-2v-2h-2v-2h-2v-2h-2v-2h-2v-2h-2v-2h-2v-2h-2v-2h-2v-2h-4v-2h-2v-2h-2v-2h-3v-2h-2v-2h-4v-2h-2
v-2h-4v-2h-4v-2h-4v-2h-6v-2h-4v-2h-8v-1h-8v-2h-14v-2h-620v2h-20v2h-12v1h-10v2h-10v2h-8v2h-6v2h-8v2h-4v2h-8v2h-4v2h-6v2h-3v2h-4v2h-4v2h-6v2h-4v2h-4v2h-2v2h-4v2h-4v2h-4v2h-2v2h-4v2h-4v2h-2v2h-4v2h-2v2h-2v2h-4v2h-2v2h-4v2h-2v2h-2v2h-2v2h-4v2h-2v2h-2v2h-2v2
h-2v2h-4v2h-2v2h-2v2h-2v2h-2v2h-2v2h-2v2h-2v4h-2v2h-2v2h-2v2h-2v2h-2v2h-2v2h-2v2h-2v2h-2v4h-2v2h-2v2h-2v4h-2v2h-2v4h-2v2h-2v2h-2v4h-2v2h-2v4h-2v2h-2v4h-2v4h-2v4h-2v2h-2v3h-2v4h-1v4h-2v4h-2v4h-2v6h-2v4h-2v4h-2v6h-2v6h-2v6h-2v6h-2v6h-2v10h-2v8h-2v10h-2v10
h-2v16h-2v246h2v16h2v12h2v10h2v8h2v8h2v6h2v8h2v6h2v4h2v6h2v4h2v6h2v4h2v4h2v5h2v2h1v4h2v4h2v4h2v4h2v4h2v2h2v4h2v2h2v4h2v2h2v4h2v2h2v4h2v2h2v2h2v4h2v2h2v2h2v2h2v4h2v2h2v2h2v2h2v2h2v2h2v2h2v2h2v2h2v2h2v2h2v2h2v2h2v2h2v2h2v2h2v2h2v2h2v2h4v2h2v2h2v2h2v2h4v2h2
v2h2v2h2v2h4v2h2v2h4v2h2v2h4v2h4v2h2v2h4v2h4v2h2v2h4v2h4v2h4v2h4v2h4v2h6v2h4v2h3v2h4v2h8v1h4v2h8v2h4v2h8v2h8v2h8v2h12v2h14v2h26v2h153v513h-12v-2h-6v-2h-6v-2h-4v-2h-4v-2h-2v-2h-2v-2h-4v-2h-2v-2h-2v-2h-2v-4h-2v-2h-2v-4h-2v-4h-2v-4h-2v-8h-2v-278h-2v-14h-2
v-8h-2v-8h-2v-6h-2v-6h-2v-6h-2v-3h-2v-6h-2v-4h-2v-4h-2v-4h-2v-4h-2v-2h-2v-4h-2v-4h-2v-2h-2v-4h-2v-2h-2v-2h-2v-4h-2v-2h-2v-2h-2v-2h-1v-2h-2v-2h-2v-2h-2v-2h-2v-2h-2v-2h-2v-2h-2v-2h-2v-2h-2v-2h-2v-2h-2v-2h-2v-2h-2v-2h-4v-2h-2v-2h-2v-2h-4v-2h-2v-2h-4v-2h-2
v-2h-4v-2h-4v-2h-4v-2h-4v-2h-4v-2h-4v-2h-6v-2h-4v-2h-6v-2h-6v-2h-6v-2h-10v-2h-12v-2h-18v-2h-21v2h-20v2h-10v2h-10v2h-6v2h-6v2h-6v2h-6v2h-4v2h-4v2h-4v2h-4v2h-4v2h-4v2h-4v2h-2v2h-4v2h-2v2h-4v2h-2v2h-4v2h-2v2h-2v2h-2v2h-2v2h-2v2h-4v2h-2v2h-2v2h-2v2h-2v2h-2v4
h-2v2h-2v2h-2v2h-2v2h-2v2h-2v4h-2v2h-2v2h-2v4h-1v2h-2v4h-2v2h-2v4h-2v4h-2v4h-2v4h-2v4h-2v4h-2v5h-2v4h-2v6h-2v8h-2v6h-2v10h-2v12h-2v52h2v14h2v14h2v8h2v10h2v6h2v7h2v6h2v6h2v6h2v4h2v6h2v4h2v6h2v2h2v6h2v4h1v4h2v4h2v2h2v4h2v4h2v2h2v4h2v4h2v2h2v4h2v2h2v4h2v2h2
v2h2v4h2v2h2v2h2v2h2v4h2v2h2v2h2v2h2v2h2v2h2v2h2v4h2v2h2v2h2v2h2v2h2v2h2v2h4v2h2v2h2v2h2v2h2v2h2v2h2v2h4v2h2v1h2v2h2v2h4v2h2v2h4v2h2v2h2v2h4v2h2v2h4v2h4v2h2v2h4v2h4v2h4v2h2v2h4v2h4v2h6v2h4v2h4v2h5v2h4v2h6v2h6v2h4v2h8v2h6v2h8v2h8v2h12v2h12v2h18v2h270v-2
h20v-2h12v-2h10v-2h10v-2h8v-2h6v-2h8v-2h4v-2h6v-2h6v-2h4v-2h6v-2h3v-2h4v-2h4v-2h4v-2h4v-2h4v-2h4v-2h4v-2h2v-2h4v-2h4v-2h2v-2h4v-2h4v-2h2v-2h2v-2h4v-2h2v-2h4v-2h2v-2h2v-1h2v-2h2v-2h4v-2h2v-2h2v-2h2v-2h2v-2h4v-2h2v-4h2v-2h2v-2h2v-2h2v-2h2v-2h2v-2h2v-2h2v-2
h2v-2h2v-2h2v-2h2v-2h2v-4h2v-2h2v-2h2v-2h2v-4h2v-2h2v-4h2v-2h2v-2h2v-4h2v-2h2v-4h2v-2h2v-4h2v-4h2v-4h2v-4h2v-2h2v-4h2v-4h2v-4h2v-6h1v-4h2v-4h2v-6h2v-4h2v-6h2v-6h2v-6h2v-7h2v-8h2v-8h2v-10h2v-12h2v-18h2v-982h2v-10h2v-8h2v-4h2v-4h2v-2h2v-4h2v-2h2v-2h2v-2h2
v-2h2v-2h4v-2h2v-2h4v-2h4v-2h4v-2h24v2h14v2h10v2h6v2h4v2h6v2h4v2h4v2h4v2h2v2h4v2h2v2h4v2h1v2h2v2h2v2h2v2h2v2h2v2h2v2h2v2h4v2h2v4h2v2h4v4h2v2h4v2h2v2h2v4h2v2h2v2h2v2h2v2h2v2h2v2h2v2h2v2h2v2h2v4h2v2h2v2h2v2h2v2h2v2h2v2h2v2h2v4h2v2h2v2h2v2h2v4h2v2h2v2h2v2h2
v2h2v4h2v2h2v2h2v4h2v2h2v2h2v4h2v2h2v2h2v4h2v2h2v4h2v1h2v4h2v2h2v4h2v2h2v2h2v4h2v4h2v2h2v4h2v2h2v4h2v2h2v4h2v4h2v2h2v4h2v4h2v2h2v4h2v4h2v4h1v2h2v4h2v4h2v4h2v4h2v4h2v4h2v4h2v2h2v6h2v4h2v4h2v4h2v4h2v4h2v4h2v6h2v4h2v4h2v6h2v4h2v5h2v4h2v6h2v4h2v6h2v6h2v6h2v6
h2v4h2v6h2v8h2v6h2v6h2v8h2v6h2v8h2v8h2v6h2v10h2v8h2v10h2v8h2v12h2v11h2v12h2v14h2v16h2v22h2v30h2v73h-2v30h-2v20h-2v18h-2v12h-2v14h-2v10h-2v12h-2v10h-2v9h-2v8h-2v8h-2v8h-2v8h-2v6h-2v8h-2v6h-2v8h-2v6h-2v6h-2v6h-2v6h-2v6h-2v6h-2v6h-2v4h-2v6h-2v4h-2v6h-2v4h-2
v6h-2v4h-2v4h-2v6h-2v4h-2v4h-2v3h-2v4h-2v6h-2v4h-2v4h-2v4h-2v4h-2v4h-2v4h-2v4h-2v2h-2v6h-2v2h-2v4h-2v4h-1v4h-2v2h-2v4h-2v4h-2v4h-2v2h-2v4h-2v4h-2v2h-2v4h-2v2h-2v4h-2v2h-2v4h-2v4h-2v2h-2v4h-2v2h-2v2h-2v4h-2v4h-2v2h-2v2h-2v4h-2v2h-2v2h-2v4h-2v2h-2v2h-2v4
h-2v2h-2v2h-2v3h-2v2h-2v2h-2v4h-2v2h-2v2h-2v2h-2v2h-2v2h-2v4h-2v2h-2v2h-2v2h-2v2h-2v4h-2v2h-2v2h-2v2h-2v2h-2v2h-2v2h-2v4h-2v2h-2v2h-2v2h-2v2h-2v2h-2v2h-2v2h-2v2h-2v2h-2v2h-2v2h-2v2h-2v2h-2v2h-2v2h-2v2h-2v2h-2v2h-2v2h-2v2h-2v2h-2v2h-2v2h-4v2h-1v2h-2v2h-2
v2h-2v2h-2v2h-2v2h-2v2h-4v2h-2v2h-2v2h-2v2h-2v2h-2v2h-4v2h-2v2h-2v2h-2v2h-2v2h-4v2h-2v2h-2v2h-4v2h-2v2h-2v2h-4v2h-2v2h-2v2h-4v2h-2v2h-2v1h-4v2h-2v2h-4v2h-2v2h-2v2h-4v2h-2v2h-4v2h-2v2h-4v2h-2v2h-4v2h-2v2h-4v2h-4v2h-2v2h-4v2h-2v2h-4v2h-4v2h-4v2h-2v2h-4v2
h-4v2h-4v2h-2v2h-3v2h-4v2h-4v2h-4v2h-4v2h-4v2h-2v2h-6v2h-4v2h-4v2h-4v2h-4v2h-4v2h-4v2h-6v2h-4v2h-6v2h-4v2h-4v2h-6v2h-4v2h-6v2h-4v2h-6v2h-6v2h-4v2h-6v2h-6v2h-6v2h-6v2h-6v2h-8v2h-6v2h-7v2h-6v2h-8v2h-8v2h-8v2h-8v2h-10v2h-10v2h-10v2h-10v2h-14v2h-12v2h-16v2
h-20v2h-23v2h-100v-2h-26v-2h-17v-2h-16v-2h-14v-2h-12v-2h-12v-2h-10v-2h-8v-2h-10v-2h-8v-2h-8v-2h-8v-2h-8v-2h-8v-2h-6v-2h-6v-2h-8v-2h-6v-2h-6v-2h-5v-2h-6v-2h-6v-2h-6v-2h-6v-2h-4v-2h-6v-2h-4v-2h-6v-2h-4v-2h-6v-2h-4v-2h-4v-2h-4v-2h-6v-2h-4v-2h-4v-2h-4v-2h-6
v-2h-4v-2h-2v-2h-6v-2h-4v-2h-4v-2h-2v-2h-4v-2h-4v-2h-4v-2h-4v-2h-4v-2h-2v-2h-4v-2h-4v-2h-4v-2h-2v-2h-4v-2h-3v-2h-2v-2h-4v-2h-4v-2h-2v-2h-4v-2h-2v-2h-4v-2h-2v-2h-4v-2h-4v-2h-2v-2h-2v-2h-4v-2h-2v-2h-4v-2h-2v-2h-4v-2h-2v-1h-2v-2h-4v-2h-2v-2h-2v-2h-4v-2h-2
v-2h-2v-2h-4v-2h-2v-2h-2v-2h-4v-2h-2v-2h-2v-2h-2v-2h-4v-2h-2v-2h-2v-2h-2v-2h-4v-2h-2v-2h-2v-2h-2v-2h-2v-2h-2v-2h-2v-2h-2v-2h-2v-2h-4v-2h-2v-2h-2v-2h-2v-2h-2v-2h-2v-2h-2v-2h-2v-2h-2v-2h-2v-2h-2v-2h-2v-2h-2v-2h-2v-2h-2v-2h-2v-2h-1v-2h-2v-2h-2v-2h-2v-2h-2
v-2h-2v-2h-2v-2h-2v-2h-2v-2h-2v-2h-2v-2h-2v-2h-2v-4h-2v-2h-2v-2h-2v-2h-2v-2h-2v-2h-2v-2h-2v-4h-2v-2h-2v-2h-2v-2h-2v-2h-2v-2h-2v-4h-2v-2h-2v-2h-2v-2h-2v-4h-2v-2h-2v-1h-2v-4h-2v-2h-2v-2h-2v-4h-2v-2h-2v-2h-2v-4h-2v-2h-2v-2h-2v-4h-2v-2h-2v-4h-2v-2h-2v-4h-2
v-2h-2v-2h-2v-4h-2v-4h-2v-2h-2v-4h-2v-2h-2v-4h-2v-2h-2v-4h-2v-4h-2v-2h-2v-4h-2v-4h-2v-2h-2v-4h-2v-4h-2v-4h-2v-2h-2v-4h-2v-4h-2v-4h-2v-4h-2v-4h-2v-2h-2v-4h-2v-4h-2v-6h-2v-4h-2v-4h-2v-4h-2v-4h-1v-3h-2v-4h-2v-6h-2v-4h-2v-4h-2v-6h-2v-4h-2v-6h-2v-4h-2v-4h-2
v-6h-2v-6h-2v-6h-2v-4h-2v-6h-2v-6h-2v-6h-2v-6h-2v-6h-2v-8h-2v-6h-2v-8h-2v-6h-2v-8h-2v-8h-2v-8h-2v-8h-2v-9h-2v-10h-2v-10h-2v-12h-2v-12h-2v-12h-2v-18h-2v-18h-2v-26h-2v-93h2v-28h2v-18h2v-16h2v-14h2v-12h2v-11h2v-10h2v-8h2v-10h2v-10h2v-8h2v-8h2v-6h2v-8h2v-6h2
v-8h2v-6h2v-6h2v-6h2v-6h2v-6h2v-6h2v-6h2v-6h2v-6h2v-4h2v-6h2v-4h2v-5h2v-4h2v-4h2v-6h2v-4h2v-4h2v-4h2v-4h1v-6h2v-4h2v-4h2v-4h2v-4h2v-4h2v-4h2v-4h2v-4h2v-4h2v-2h2v-4h2v-4h2v-4h2v-4h2v-2h2v-4h2v-4h2v-4h2v-2h2v-4h2v-4h2v-2h2v-4h2v-2h2v-4h2v-2h2v-4h2v-2h2v-4
h2v-4h2v-2h2v-2h2v-4h2v-2h2v-3h2v-2h2v-4h2v-2h2v-2h2v-4h2v-2h2v-2h2v-4h2v-2h2v-2h2v-2h2v-4h2v-2h2v-2h2v-4h2v-2h2v-2h2v-2h2v-4h2v-2h2v-2h2v-2h2v-2h2v-2h2v-2h2v-4h2v-2h2v-2h2v-2h2v-2h2v-2h2v-2h2v-2h2v-2h2v-4h2v-2h2v-2h2v-2h2v-2h2v-2h2v-2h2v-2h1v-2h2v-2h2
v-2h2v-2h2v-2h2v-2h2v-2h2v-2h2v-2h4v-2h2v-2h2v-2h2v-2h2v-2h2v-2h2v-2h2v-2h2v-2h2v-2h2v-2h2v-2h4v-2h2v-2h2v-2h2v-2h2v-2h4v-2h2v-1h2v-2h2v-2h2v-2h4v-2h2v-2h2v-2h4v-2h2v-2h2v-2h2v-2h4v-2h2v-2h4v-2h2v-2h2v-2h4v-2h2v-2h4v-2h2v-2h2v-2h4v-2h2v-2h4v-2h2v-2h4v-2
h2v-2h4v-2h2v-2h4v-2h2v-2h4v-2h4v-2h2v-2h4v-2h3v-2h2v-2h4v-2h4v-2h2v-1h4v-2h4v-2h4v-2h4v-2h4v-2h2v-2h4v-2h4v-2h6v-2h4v-2h4v-2h2v-2h6v-2h4v-2h4v-2h4v-2h4v-2h4v-2h6v-2h4v-2h6v-2h4v-2h6v-2h4v-2h6v-2h4v-2h6v-2h6v-2h4v-2h6v-2h6v-2h5v-2h6v-2h6v-2h8v-2h6v-2h8
v-2h8v-2h8v-2h6v-2h10v-2h8v-2h10v-2h10v-2h10v-2h12v-2h12v-2h14v-2h2v-4h-2v-2h-2v2h-14v2h-12v2h-12v2h-12v2h-8v2h-10v2h-8v2h-10v2h-8v2h-6v2h-8v2h-8v2h-6v2h-6v2h-8v2h-6v2h-5v2h-6v2h-6v2h-4v2h-6v2h-6v2h-6v2h-4v2h-4v2h-6v2h-4v2h-6v2h-4v2h-4v2h-6v2h-4v2h-4v2
h-4v2h-6v2h-4v2h-4v2h-4v2h-4v2h-4v2h-4v2h-4v2h-4v2h-2v2h-4v2h-4v2h-4v2h-4v2h-2v2h-4v2h-4v1h-2v2h-3v2h-4v2h-4v2h-2v2h-4v2h-2v2h-4v2h-4v2h-2v2h-4v2h-2v2h-2v2h-4v2h-4v2h-2v2h-2v2h-4v2h-2v2h-4v2h-2v2h-2v2h-4v2h-2v2h-4v2h-2v2h-2v2h-2v2h-4v2h-2v2h-2v2h-4v2h-2
v2h-2v2h-2v2h-4v2h-2v2h-2v2h-2v1h-2v2h-4v2h-2v2h-2v2h-2v2h-2v2h-2v2h-2v2h-2v2h-4v2h-2v2h-2v2h-2v2h-2v2h-2v2h-2v2h-2v2h-2v2h-2v2h-2v2h-2v2h-2v2h-2v2h-3v2h-2v4h-2v2h-2v2h-2v2h-2v2h-2v2h-2v2h-2v2h-2v2h-2v2h-2v2h-2v2h-2v2h-2v4h-2v2h-2v2h-2v2h-2v2h-2v2h-2v2
h-2v4h-2v2h-2v2h-2v2h-2v2h-2v4h-2v2h-2v2h-2v4h-2v2h-2v2h-2v2h-2v2h-2v4h-2v2h-2v2h-2v4h-2v2h-2v2h-2v4h-2v2h-2v2h-2v4h-2v4h-2v1h-2v2h-2v4h-2v2h-2v4h-2v2h-2v4h-2v2h-2v4h-2v2h-2v4h-2v4h-2v4h-2v2h-2v4h-2v2h-2v4h-2v4h-2v2h-2v4h-2v4h-2v4h-2v4h-2v2h-2v4h-2v4h-2
v4h-2v4h-2v4h-2v4h-2v4h-2v4h-1v4h-2v4h-2v4h-2v4h-2v6h-2v4h-2v4h-2v6h-2v4h-2v6h-2v3h-2v4h-2v6h-2v4h-2v6h-2v6h-2v6h-2v6h-2v4h-2v6h-2v8h-2v6h-2v6h-2v6h-2v8h-2v6h-2v8h-2v10h-2v6h-2v10h-2v8h-2v10h-2v10h-2v11h-2v12h-2v14h-2v16h-2v18h-2v24h-2v103h2v26h2v18h2v14
h2v14h2v12h2v12h2v10h2v10h2v9h2v8h2v8h2v8h2v8h2v8h2v6h2v6h2v8h2v6h2v6h2v6h2v6h2v6h2v6h2v4h2v6h2v6h2v4h2v6h2v4h2v6h2v4h2v4h2v6h2v4h2v3h2v4h2v4h2v6h2v2h1v6h2v2h2v4h2v4h2v4h2v4h2v4h2v4h2v4h2v4h2v4h2v2h2v4h2v4h2v4h2v2h2v4h2v4h2v2h2v4h2v4h2v2h2v4h2v2h2v4h2v2
h2v4h2v2h2v4h2v2h2v4h2v2h2v2h2v4h2v2h2v4h2v2h2v2h2v4h2v2h2v4h2v2h2v1h2v2h2v4h2v2h2v2h2v4h2v2h2v2h2v2h2v2h2v4h2v2h2v2h2v2h2v2h2v2h2v2h2v4h2v2h2v2h2v2h2v2h2v2h2v2h2v2h2v2h2v2h2v4h2v2h2v2h2v2h2v2h2v2h2v2h2v2h2v2h1v2h2v2h2v2h2v2h2v2h2v2h2v2h4v2h2v2h2v2h2v2h2
v2h2v2h2v2h2v2h2v2h2v2h4v2h2v2h2v2h2v2h2v2h2v2h4v2h2v2h2v2h2v2h2v2h4v2h2v2h2v2h2v2h4v2h2v2h2v2h2v2h4v2h2v2h4v1h2v2h2v2h4v2h2v2h2v2h4v2h2v2h4v2h2v2h4v2h2v2h4v2h2v2h4v2h2v2h4v2h2v2h4v2h4v2h2v2h4v2h4v2h1v2h4v2h4v2h4v2h2v2h4v2h4v2h4v2h4v2h4v2h4v2h4v2h4v2h4v2
h2v2h6v2h2v2h6v2h4v2h4v2h4v2h4v2h6v2h4v2h4v2h6v2h4v2h6v2h4v2h6v2h6v2h4v2h6v2h6v2h6v2h6v2h5v2h6v2h6v2h8v2h6v2h8v2h8v2h8v2h8v2h8v2h8v2h10v2h10v2h12v2h12v2h14v2h16v2h17v2h22v2zM803 801v-2h-10v-2h-4v-2h-4v-2h-4v-2h-4v-2h-2v-2h-2v-1h-2v-2h-2v-2h-2v-2h-2v-2h-2
v-4h-2v-2h-2v-4h-2v-6h-2v-6h-2v-708h2v-6h2v-4h2v-4h2v-4h2v-2h2v-2h2v-2h2v-2h2v-2h2v-2h2v-2h2v-2h2v-2h4v-2h4v-2h6v-2h8v-1h12v133h-2v663h-8z" />
    <glyph glyph-name="A" unicode="A" horiz-adv-x="890" 
d="M320 1676l96 -1.00098l112 1h4c94.667 0 175.334 -40.333 242.001 -121c41.333 -52.667 62 -121 62 -205v-1303c0 -19.333 10 -33 30 -41l8 -2h19v-3l-31 -1h-251c-57.333 0 -97.333 12.667 -120 38c-29.333 28.667 -44 61.334 -44 98.001v890h-4
c-29.333 0 -47.333 -18.667 -54 -56v-823c0 -64.667 -30.667 -110 -92 -136c-14 -5.33301 -29.667 -8 -47 -8h-307v3h13c20.667 0 35 9.66699 43 29c1.33301 4 2 11.667 2 23v1323c0 73.333 30 142 90 206c59.333 59.333 135.666 89 228.999 89zM389 1615v-582l3 -3h52l3 3
v636l-1 2v1c-26 0 -44.667 -15 -56 -45z" />
    <glyph glyph-name="B" unicode="B" horiz-adv-x="902" 
d="M-56 1679l583.001 0.00390625c94 0 173 -35.667 237 -107c49.333 -60 74 -125 74 -195v-48c0 -94 -43 -175 -129 -243c-36.667 -26.667 -78.667 -44.334 -126 -53.001c-12 -0.666992 -18 -2.33398 -18 -5.00098c41.333 0 91.666 -19.333 150.999 -58
c81.333 -66.667 122 -148.334 122 -245.001v-420c0 -108.667 -51 -196.667 -153 -264c-50 -27.333 -101.333 -41 -154 -41h-587v3h7c32.667 5.33301 49 16.666 49 33.999v1603c-0 20 -18.667 32 -56 36v3zM391.001 1675l-2 -2l2 -1l-2 -8v-631h2c27.333 0 46 15.667 56 47
l1 19v509c0 34 -14.667 55.667 -44 65zM389.001 1027v-1019c0 -2 1.66699 -3 5 -3c35.333 7.33301 53 25 53 53l1 13v887c0 34.667 -13.333 56.667 -40 66z" />
    <glyph glyph-name="C" unicode="C" horiz-adv-x="902" 
d="M304 1678l232 0.00195312c95.333 0 176.333 -43.333 243 -130c37.333 -56 56 -110 56 -162v-21c0 -60.667 -32.333 -113.667 -97 -159c-32.667 -16 -62 -24 -88 -24h-18c-63.333 0 -116.333 31 -159 93c-18 30.667 -27 60.667 -27 90v251c0 30 -16.333 49 -49 57l-8 1
v-1612c0 -26.667 15 -45.667 45 -57h12v301l2 2l-2 1c0 41.333 21.333 78.333 64 111c24 14.667 50.333 22 79 22h289v-3c-28 -5.33301 -42 -18 -42 -38v-62c0 -97.333 -23 -172.333 -69 -225c-63.333 -76 -145 -114 -245 -114h-216c-116 0 -206.333 54.667 -271 164
c-23.333 45.333 -35 89.666 -35 132.999v1091c0 69.333 30 136.666 90 201.999c62.667 58.667 134 88 214 88z" />
    <glyph glyph-name="D" unicode="D" horiz-adv-x="903" 
d="M-59 1677h580.001c125.333 0 219.666 -58 282.999 -174c20.667 -48.667 31 -91 31 -127l-2 -17v-1040l2 -19c0 -78 -33 -151.333 -99 -220c-63.333 -53.333 -132 -80 -206 -80h-589v3h4c35.333 4.66699 53 16 53 34v1600c0 18 -15.333 30 -46 36h-11v4zM388.001 1670
l-2 -2l2 -2v-1652l-2 -9h7c22 0 38.667 14.333 50 43l1 13v1554c0 26.667 -14.667 45 -44 55l-12 2v-2z" />
    <glyph glyph-name="E" unicode="E" horiz-adv-x="902" 
d="M-53 1680h594c86.667 0 164 -39.333 232 -118c42.667 -58 64 -121.667 64 -191v-84c4 -30.667 17.667 -46 41 -46h17v-3h-309c-62 0 -106.333 32.667 -133 98l-7 39l2 8v214c0 41.333 -12.333 66 -37 74l-22 5v-1084h3c32 0 50.667 19.667 56 59v250
c0 46 26.333 84.667 79 116c19.333 9.33301 46.333 14 81 14h170l100 -2h2v-2c-18 0 -31.667 -10.667 -41 -32l-2 -18v-93c0 -96 -46 -178.667 -138 -248c-54.667 -32.667 -109.667 -49 -165 -49h-145v-584c24 0 42 12.667 54 38c3.33301 7.33301 5 16.333 5 27v239
c0 58.667 33 102 99 130c18.667 3.33301 36.334 5 53.001 5h280v-3c-24.667 0 -39 -16 -43 -48v-96c0 -83.333 -37.667 -159 -113 -227c-58.667 -45.333 -122.667 -68 -192 -68h-585v3h2c29.333 0 46.333 13 51 39v1592c-2.66699 27.333 -16.334 41 -41.001 41l-10 1h-2v4z
" />
    <glyph glyph-name="F" unicode="F" horiz-adv-x="901" 
d="M-53 1679l592.999 -0.00195312c92 0 172 -42.667 240 -128c38.667 -57.333 58 -114 58 -170v-9c0 -75.333 -38.667 -133.666 -116 -174.999c-30 -11.333 -56.667 -17 -80 -17c-73.333 0 -131.333 35 -174 105c-10 18.667 -17.333 43.334 -22 74.001l2 95v151
c0 33.333 -12 55 -36 65l-22 5l-2 -851v-228l3 -4c24.667 0 42.334 13.667 53.001 41l2 10v237c0 76 35.667 124.667 107 146l24 4h301v-4h-3c-24.667 -4 -37 -18 -37 -42v-72c-0.666992 -146.667 -67.667 -248.667 -201 -306c-35.333 -12.667 -69.666 -19 -102.999 -19
h-143l-3 -3l2 -584h-437v3c23.333 0 38.666 10.667 45.999 32v1608c-7.33301 21.333 -24 32 -50 32h-2v4z" />
    <glyph glyph-name="G" unicode="G" horiz-adv-x="902" 
d="M299 1677l240.002 0.000976562c96 0 178 -45.333 246 -136c35.333 -56.667 53 -112 53 -166c0 -81.333 -42 -142.333 -126 -183c-23.333 -8 -45.333 -12 -66 -12h-8c-70.667 0 -127 34 -169 102c-14.667 29.333 -22 57.333 -22 84v255c0 26.667 -18.667 44 -56 52l-2 -1
v-1602c1.33301 -32 14.666 -52.333 39.999 -61l19 -4v977c-2.66699 31.333 -16.334 47 -41.001 47v3h290c64 0 109 -33 135 -99c4 -14.667 6 -28.667 6 -42v-587c0 -96.667 -42.333 -178.334 -127 -245.001c-56 -38 -112.333 -57 -169 -57h-85l-5 -2l-9 2h-153
c-65.333 0 -130 27.667 -194 83c-64 62 -96 138.667 -96 230v1060c0 108 52 196 156 264c50 25.333 97.667 38 143 38z" />
    <glyph glyph-name="H" unicode="H" horiz-adv-x="902" 
d="M-59 1679h443l4 -3v-792h57v792l4 3h443v-3c-38.667 -4 -58 -16.333 -58 -37v-1591c0 -20 10 -33.333 30 -40l21 -3h5v-4h-441l-4 4v872l-2 2v1c-22 0 -39.333 -12.667 -52 -38c-2 -4.66699 -3 -11 -3 -19v-818l-4 -4h-441v4h4c33.333 4.66699 50 15 50 31v1607
c-6 22 -24.667 33 -56 33v3z" />
    <glyph glyph-name="I" unicode="I" horiz-adv-x="445" 
d="M-46 1685h438v-1616c4.66699 -44 24 -66 58 -66v-3h-145c-112 0 -201.333 54 -268 162c-24.667 45.333 -37 98 -37 158v1334c-11.333 18 -25.333 27 -42 27h-4v4z" />
    <glyph glyph-name="J" unicode="J" horiz-adv-x="902" 
d="M398 1680l436.999 0.000976562l3 -4v-1372c0 -110 -53.333 -199.333 -160 -268c-49.333 -24 -100.666 -36 -153.999 -36h-200c-146 0 -248 67.333 -306 202c-12 37.333 -18 68.666 -18 93.999v13c0 78 41.667 137.333 125 178c24 7.33301 43.667 11 59 11h23
c61.333 0 114 -32 158 -96c17.333 -31.333 26 -62.333 26 -93v-247c5.33301 -38 24 -57 56 -57l2 759v96l-2 789c-10.667 18 -25 27 -43 27h-6v4z" />
    <glyph glyph-name="K" unicode="K" horiz-adv-x="898" 
d="M-49 1677h436.999l3 -4v-640h2c30.667 0 48.667 18.333 54 55l2 444l-2 10c0 45.333 23.333 84 70 116c22 12.667 45 19 69 19h293v-4c-27.333 -4.66699 -41 -17.667 -41 -39v-280c0 -150 -68.333 -253 -205 -309c-31.333 -10 -56.666 -15 -75.999 -15v-2
c41.333 0 91.666 -18 150.999 -54c86.667 -66 130 -152 130 -258v-674c0 -20.667 13.667 -33.667 41 -39v-3h-293c-61.333 -0 -105.333 32.333 -132 97l-7 34l2 21v808c-4.66699 43.333 -24 65 -58 65v-872c0 -72.667 -32.333 -121 -97 -145c-12 -4 -24 -6 -36 -6h-298v3
c26 0 40 17 42 51v805l-2 783c-9.33301 19.333 -23.666 29 -42.999 29h-6v4z" />
    <glyph glyph-name="L" unicode="L" horiz-adv-x="898" 
d="M-59 1677h443.001l3 -3v-1613c0 -32 19.333 -50.667 58 -56v405c0 54 26.667 95 80 123c15.333 9.33301 41.666 14 78.999 14h272v-3c-24 0 -38 -15.667 -42 -47v-365c0 -50 -28.667 -90.667 -86 -122c-17.333 -6.66699 -45 -10 -83 -10h-342
c-140 -0 -239.333 60.333 -298 181c-18.667 37.333 -28 84.333 -28 141v1317c0 19.333 -16.667 31 -50 35h-6v3z" />
    <glyph glyph-name="M" unicode="M" horiz-adv-x="1350" 
d="M310 1682l243.003 -2c58.667 0 120 -26.333 184 -79c68 -60 102 -144.667 102 -254v-670c8.66699 -33.333 25.667 -50 51 -50h7v978c0 40 -16 63.667 -48 71c-7.33301 0 -11 1.33301 -11 4l1 2h122c151.333 0 254.666 -69.333 309.999 -208
c11.333 -31.333 17 -68.333 17 -111v-1321c5.33301 -25.333 18 -38 38 -38v-4h-298c-44 -0 -81.333 22.333 -112 67c-12.667 22 -19 43.333 -19 64v491h-134c-130 0 -226.333 60.667 -289 182c-18 47.333 -27 85.333 -27 114l2 35l-2 723h-6c-24 0 -41.333 -16 -52 -48
v-1491c0 -56.667 -28.667 -99 -86 -127c-14.667 -6.66699 -31.334 -10 -50.001 -10h-293v4c21.333 0 34.333 13.333 39 40v1338c0 100 47.333 184 142 252c51.333 32 107.666 48 168.999 48z" />
    <glyph glyph-name="N" unicode="N" horiz-adv-x="901" 
d="M-60 1680h448v-1676l-3 -4h-443v2c36.667 6 55 16.667 55 32v1610c-6 22.667 -25 34 -57 34v2zM394 1680h15l6 2l9 -2h121c96.667 0 179.334 -46.667 248.001 -140c31.333 -54.667 47 -105 47 -151v-1332c0 -27.333 10.333 -44.333 31 -51l11 -2v-4h-286
c-72.667 -0 -120.334 37.333 -143.001 112l-2 26v1476c0 29.333 -14 49.333 -42 60l-15 2v4z" />
    <glyph glyph-name="O" unicode="O" horiz-adv-x="904" 
d="M291 1679l246.002 -0.000976562c100.667 0 185 -47 253 -141c32 -52 48 -108.667 48 -170v-1058c0 -124 -59 -218 -177 -282c-42.667 -18.667 -82.334 -28 -119.001 -28h-248c-92.667 0 -173.334 44.667 -242.001 134c-34.667 54.667 -52 110.334 -52 167.001v1081
c-0 97.333 46.333 180.333 139 249c55.333 32 106 48 152 48zM391.002 2.99902c28 0 46.668 16.667 56.001 50v1623c-26.667 0 -45.334 -15.667 -56.001 -47v-1626z" />
    <glyph glyph-name="P" unicode="P" horiz-adv-x="905" 
d="M-56 1679h602c75.333 0 146 -33.667 212 -101c37.333 -38.667 63 -92 77 -160l3 -74v-641c0 -76 -11 -133.333 -33 -172c-60 -113.333 -159.667 -170 -299 -170h-116v-358l-3 -3h-443v3c27.333 0 46 14.667 56 44v1580c0 20.667 -14 36 -42 46l-14 2v4zM390 1675v-1309h2
c36.667 8 55 26.667 55 56v1191c0 33.333 -17.333 54 -52 62h-5z" />
    <glyph glyph-name="Q" unicode="Q" horiz-adv-x="906" 
d="M314 1672l207.998 -0.00292969c142 0 242.333 -69.333 301 -208c10 -35.333 15 -66.666 15 -93.999v-1077c0 -91.333 -45 -172.333 -135 -243c-51.333 -28 -88 -42.667 -110 -44v-2c86.667 0 158.667 -44.333 216 -133c20.667 -39.333 31 -87.666 31 -144.999v-54
c3.33301 -22.667 14.333 -34 33 -34v-4h-212c-65.333 0 -107.666 17.333 -126.999 52c-13.333 20 -20 41.667 -20 65v203c-7.33301 30.667 -20.666 46 -39.999 46h-166c-107.333 0 -194 49.667 -260 149c-29.333 44.667 -44 107.334 -44 188.001v1010
c0 150 70 253.333 210 310c36 10 69.333 15 100 15zM392.998 3.99707h2c32 0 50.667 20.667 56 62v1525l-2 76c-31.333 0 -50 -19.333 -56 -58v-1605z" />
    <glyph glyph-name="R" unicode="R" horiz-adv-x="931" 
d="M-54 1675l602 0.000976562c77.333 0 150.666 -36.667 219.999 -110c45.333 -62 68 -122 68 -180v-65c0 -72 -32 -141.667 -96 -209c-48.667 -42 -99 -67.333 -151 -76h-1c0 -2.66699 11.333 -5 34 -7c60.667 -15.333 111 -43.333 151 -84
c59.333 -62.667 89 -131.667 89 -207v-683c4 -32.667 17.333 -49 40 -49h3v-3h-293c-61.333 0 -105.666 32.667 -132.999 98c-3.33301 14 -5 26.667 -5 38v818c0 40 -13.667 63.667 -41 71c-4.66699 2 -11 3 -19 3h-24v-1026l-3 -4h-439l-4 4c26.667 0 45.667 14.333 57 43
l1 24v1536c0 31.333 -11.667 51.666 -35 60.999l-21 4v3zM390 1672v-639c26 0 44.333 14 55 42c2.66699 4.66699 4 12 4 22v506c0 34 -13.333 55.667 -40 65z" />
    <glyph glyph-name="S" unicode="S" horiz-adv-x="903" 
d="M287 1676l241 1.00195c112.667 0 202 -51.667 268 -155c27.333 -52 41 -101 41 -147c0 -59.333 -24.667 -110 -74 -152c-36.667 -28.667 -75.667 -43 -117 -43h-9c-75.333 0 -133.666 39 -174.999 117c-10.667 24.667 -16 50 -16 76v249c0 20 -12.667 35.667 -38 47
c-4.66699 2 -11 3 -19 3v-578c0 -27.333 12.333 -46.333 37 -57l24 -4h88c101.333 0 186.333 -49 255 -147c29.333 -48.667 44 -107.334 44 -176.001v-394c0 -114 -47.333 -203 -142 -267c-50.667 -31.333 -101.334 -47 -152.001 -47h-151l-6 -2l-7 2h-83
c-90 0 -169 41.667 -237 125c-39.333 56.667 -59 115.667 -59 177c0 68.667 31.667 124 95 166c30 18 61 27 93 27h18c64 0 118.333 -34.333 163 -103c14.667 -34 22 -58.667 22 -74l-2 -92v-159c0 -32.667 15.333 -53.334 46 -62.001l13 -2v961
c0 29.333 -13.333 49.333 -40 60l-16 2h-72c-141.333 0 -241.333 65.333 -300 196c-13.333 34.667 -20 73 -20 115v36c0 102.667 48 187.667 144 255c54 30.667 101.667 46 143 46z" />
    <glyph glyph-name="T" unicode="T" horiz-adv-x="1360" 
d="M333 1673l123.002 0.000976562l5 2l9 -2h439l7 2l6 -2h108c87.333 0 165.333 -41 234 -123c39.333 -56.667 59 -115.667 59 -177v-121c2 -34.667 11.333 -52 28 -52c0 -2 5 -3.66699 15 -5v-2l-1 -2h-2l-2 2h-2l-1 -2l-9 2h-279c-58.667 0 -101.334 31.667 -128.001 95
c-4.66699 15.333 -7 32.666 -7 51.999v330h-2c-33.333 0 -52 -19.667 -56 -59v-1609h-421l-7 -2l-17 2c0 2 9 4.66699 27 8c20 12.667 30 29 30 49v1555c-4.66699 37.333 -23.334 56 -56.001 56h-1v-340c0 -62.667 -33.667 -106.667 -101 -132
c-8 -3.33301 -19.333 -5 -34 -5h-271l-7 -2l-7 2l-2 -2h-1l-6 2l-1 -2l-2 2v2c24.667 0 39 15.667 43 47v126c0 108 49.667 196 149 264c52.667 27.333 99.667 41 141 41z" />
    <glyph glyph-name="U" unicode="U" horiz-adv-x="901" 
d="M-40 1678h283.001c68 0 114.667 -29.667 140 -89c6 -13.333 9 -28.333 9 -45v-1466c0 -36.667 12 -59.667 36 -69l16 -3h7v1534c0 66 36.333 111.667 109 137l26 1h297v-3h-4c-25.333 -4 -38 -18.333 -38 -43v-1628l-3 -4h-536c-94.667 0 -176.334 44 -245.001 132
c-36 56.667 -54 112 -54 166v1322c0 28 -9.66699 45.667 -29 53l-14 2v3z" />
    <glyph glyph-name="V" unicode="V" horiz-adv-x="898" 
d="M-43 1678l301 -0.000976562c44.667 0 82.334 -24.333 113.001 -73c11.333 -20.667 17 -44 17 -70v-1469c0 -29.333 14.333 -49.666 43 -60.999l12 -1l2 1v1520c0 72 30.333 120 91 144c12.667 6 27.667 9 45 9h268l7 1l7 -1h15c0 -2 -6.33301 -4.33301 -19 -7
c-16 -9.33301 -24 -23.666 -24 -42.999v-1327c0 -104 -49.333 -190 -148 -258c-50.667 -28.667 -100.334 -43 -149.001 -43h-239c-100.667 0 -185 47 -253 141c-31.333 51.333 -47 107.666 -47 168.999v1319c-4 30 -16.667 45 -38 45h-4v4z" />
    <glyph glyph-name="W" unicode="W" horiz-adv-x="1353" 
d="M-39 1676l97 2.00195h165c68 0 113.333 -16.333 136 -49c23.333 -24 35 -58.333 35 -103v-500h125c136 0 234 -59.667 294 -179c18.667 -39.333 28 -83.333 28 -132v-708l2 -2v-2c25.333 0 43.666 14.667 54.999 44l1 15v1479c0 55.333 28.333 97 85 125
c13.333 8 41.666 12 84.999 12h179l69 -2l2 2h1l9 -2v-3h-5c-23.333 -6 -35 -21.333 -35 -46v-1331c0 -93.333 -44 -174.333 -132 -243c-55.333 -35.333 -111.666 -53 -168.999 -53h-208c-150 0 -252.667 66.333 -308 199c-14.667 32 -22 76 -22 132v37l2 593
c-5.33301 40 -24.666 60 -57.999 60v-965c0 -23.333 15.333 -40.333 46 -51c8 0 12 -1 12 -3l-2 -2h-137c-101.333 0 -184 41 -248 123c-41.333 53.333 -62 119.666 -62 198.999v1312c0 21.333 -14 34.666 -42 39.999v2z" />
    <glyph glyph-name="X" unicode="X" horiz-adv-x="908" 
d="M-36 1678h299.001c46.667 0 85.334 -25 116.001 -75c10.667 -21.333 16 -44.333 16 -69l-2 -430c0 -34 15 -55.667 45 -65l13 -1h2v344c0 96.667 46.333 179.334 139 248.001c54 32 104 48 150 48h158l-33 -12c-16.667 -14 -25 -30.667 -25 -50v-265
c0 -129.333 -60 -225.333 -180 -288c-42.667 -16.667 -77.334 -25 -104.001 -25v-2c70.667 0 139 -33 205 -99c52.667 -60.667 79 -127.667 79 -201v-678c0 -27.333 8.33301 -44.333 25 -51l18 -4v-3h-293c-61.333 0 -105.333 32 -132 96
c-4.66699 15.333 -7 30.666 -7 45.999v829c0 31.333 -15.333 52 -46 62h-12v-704c0 -152.667 -68 -256.667 -204 -312c-32.667 -11.333 -64.667 -17 -96 -17h-147v3c38 6.66699 57 25.667 57 57l1 22v656c0 86.667 38.333 163 115 229c59.333 44 114 66 164 66v1
c-54.667 0 -115 26.333 -181 79c-44.667 46.667 -71 86 -79 118c-9.33301 20 -16 51 -20 93l1 34v20l-1 264c-8.66699 22 -21.334 33 -38.001 33h-3v3z" />
    <glyph glyph-name="Y" unicode="Y" horiz-adv-x="889" 
d="M-40 1676h299c53.333 0 95 -30.667 125 -92c4.66699 -18 7 -31.333 7 -40v-856c5.33301 -40 24.666 -60 57.999 -60v910c0 61.333 33 105.333 99 132c12 4 24.333 6 37 6h296v-4h-4c-22 0 -35 -16.333 -39 -49v-1329c0 -92 -44 -172.667 -132 -242
c-54 -34.667 -110.333 -52 -169 -52h-380c-66.667 -0 -111.667 34.333 -135 103c-4 14 -6 30 -6 48v141c0 21.333 -13.667 34.333 -41 39v3h290c66.667 0 112.334 -34 137.001 -102c3.33301 -13.333 5 -27.333 5 -42v-143c3.33301 -29.333 16.333 -44 39 -44h3v618
c0 2.66699 -1.66699 4 -5 4l-2 -2l-8 2h-15l-5 -2l-9 2h-112c-74 0 -145 33.333 -213 100c-52 62.667 -78 129 -78 199v701c-3.33301 31.333 -16 47 -38 47h-4v4z" />
    <glyph glyph-name="Z" unicode="Z" horiz-adv-x="895" 
d="M291 1677l249.999 -0.00195312c82.667 0 157 -35.667 223 -107c49.333 -54.667 74 -128.667 74 -222c0 -140 -65 -240 -195 -300c-36.667 -14 -79.667 -21 -129 -21h-69c-36.667 -5.33301 -55 -23.666 -55 -54.999v-967c26 0 44.333 14.333 55 43c2 6 3 16.333 3 31v138
l-2 105c8.66699 46.667 23 81.334 43 104.001c42.667 48 91.667 72 147 72h5c86.667 0 149.334 -45.333 188.001 -136c4.66699 -21.333 7.66699 -41 9 -59c0 -69.333 -27 -137 -81 -203c-66.667 -65.333 -138.667 -98 -216 -98h-136l-9 -2l-10 2h-93
c-84 0 -159.333 37.667 -226 113c-44.667 58 -67 120.667 -67 188v423c-0 114 53.333 204 160 270c48 24 94.667 36 140 36h90c37.333 6 56 22.667 56 50l2 12v580c-26 0 -44.333 -14 -55 -42c-2 -5.33301 -3 -15.666 -3 -30.999v-146l1 -95c0 -36 -17.667 -75.667 -53 -119
c-41.333 -40 -88.666 -60 -141.999 -60c-82.667 0 -143.334 41.333 -182.001 124c-9.33301 24.667 -14 48.667 -14 72c0 71.333 28 139.666 84 204.999c66.667 63.333 135.667 95 207 95z" />
    <glyph glyph-name="bracketleft" unicode="[" horiz-adv-x="242" 
d="M165 1678l4 -4v-11l-4 -3h-86v-1640l4 -4h82l4 -3v-9l-4 -4h-100l-2 2h-2l2 40v1589l-2 45l2 2h102z" />
    <glyph glyph-name="backslash" unicode="\" horiz-adv-x="504" 
d="M79 1675l2 -2l22 -99l320 -1570c0 -2 -4 -3.33301 -12 -4h-2l-2 2l-342 1667c0 3.33301 4 5.33301 12 6h2z" />
    <glyph glyph-name="bracketright" unicode="]" horiz-adv-x="219" 
d="M55 0l-4 4v11l4 3h85v1640l-3 4h-82l-4 3v9l4 4h100l2 -2h2l-2 -40v-1589l2 -45l-2 -2h-102z" />
    <glyph glyph-name="asciicircum" unicode="^" horiz-adv-x="717" 
d="M357 1774c11.333 -10.667 17 -16.667 17 -18l-263 -270c-11.333 10.667 -17 16.667 -17 18zM620 1503c0 -0.666992 -5.66699 -6.33301 -17 -17l-263 269c0 1.33301 5.66699 7.33301 17 18z" />
    <glyph glyph-name="underscore" unicode="_" horiz-adv-x="756" 
d="M683 -46h-611v45h611v-45z" />
    <glyph glyph-name="grave" unicode="`" horiz-adv-x="387" 
d="M142 1756h4c20.667 0 37.334 -11 50.001 -33c3.33301 -7.33301 5 -20.333 5 -39c3.33301 -28 7 -49 11 -63c15.333 -52.667 37.333 -92.334 66 -119.001h-1c-14.667 5.33301 -34 15.333 -58 30c-16.667 10 -38.334 27.667 -65.001 53c-22 24 -38.667 46 -50 66
c-11.333 20.667 -17 35.667 -17 45v6c0 18.667 10 34.334 30 47.001c8 4.66699 16.333 7 25 7z" />
    <glyph glyph-name="a" unicode="a" horiz-adv-x="898" 
d="M390 55c0 -17.333 11 -32.333 33 -45l17 -5h8v793h-3c-26.667 0 -45 -15.667 -55 -47v-696zM318 1318h202c123.333 0 216.666 -54 279.999 -162c25.333 -46.667 38 -94.667 38 -144v-930c0 -38 8.66699 -60.333 26 -67c0 -4 10.333 -7.66699 31 -11v-1l-1 -1h-580l-12 -2
c-64.667 0 -128 23.667 -190 71c-74.667 67.333 -112 143.333 -112 228v204c0 75.333 30.333 145 91 209c62.667 60 134 90 214 90h143v512c-30.667 0 -50 -17 -58 -51v-233l1 -18c0 -52 -22 -99.667 -66 -143c-40 -33.333 -81 -50 -123 -50h-14
c-61.333 0 -113.666 30 -156.999 90c-21.333 34.667 -32 69.667 -32 105c0 54 18.333 110.667 55 170c65.333 89.333 153.333 134 264 134z" />
    <glyph glyph-name="b" unicode="b" horiz-adv-x="901" 
d="M141 1559l290.999 0.000976562v-3c-28 -5.33301 -42 -18 -42 -38v-200l10 -1l6 1v-1l2 1h1l2 -1l2 1h1l2 -1h1l5 1v-1l2 1l8 -1h112c72 0 140.333 -30 205 -90c59.333 -62.667 89 -135.334 89 -218.001v-870c0 -51.333 -24.667 -92 -74 -122
c-17.333 -11.333 -49.666 -17 -96.999 -17h-273l-2 2l-2 -2h-66c-144 -0 -245 65.333 -303 196c-14 36 -21 73.333 -21 112v1112c-0 56 27.333 98 82 126c17.333 8.66699 37 13 59 13zM391.999 1314l-2 -2v-1252c0 -30.667 19 -49 57 -55v1256c0 18.667 -11 34 -33 46z" />
    <glyph glyph-name="c" unicode="c" horiz-adv-x="908" 
d="M305 1323l235.001 -0.000976562c75.333 0 145 -29 209 -87c62 -66.667 93 -137 93 -211v-11c0 -65.333 -31.667 -119.333 -95 -162c-30.667 -19.333 -63.667 -29 -99 -29h-5c-75.333 0 -134 37.667 -176 113c-11.333 28 -17 54.667 -17 80v21l1 4l-1 7v209l1 6
c0 24.667 -15.333 42.667 -46 54l-13 2l1 -748v-504l-1 -6c0 -24.667 14.667 -42.667 44 -54l11 -2h4v298c0 66.667 34.667 112.334 104 137.001c14 4 33.667 6 59 6h229l2 -2l1 2l9 -2h14l5 2l1 -2h2l8 2l1 -2v-1c-18.667 0 -32.334 -10.667 -41.001 -32
c-2 -4.66699 -3 -12.667 -3 -24v-73l1 -6l-1 -5c0 -96 -43 -178 -129 -246c-30.667 -22 -67.667 -38.333 -111 -49c-16 -3.33301 -35.333 -6 -58 -8l-1 1l-9 -1h-134l-1 1l-2 -1h-84l-1 1l-4 -1c-98.667 0 -182.667 44 -252 132c-36.667 56.667 -55 114.667 -55 174v714
c0 99.333 45.667 183.333 137 252c54 34 109.667 51 167 51z" />
    <glyph glyph-name="d" unicode="d" horiz-adv-x="908" 
d="M619 1565h159l106 -1v-3c-27.333 -4.66699 -41 -17.334 -41 -38.001v-1467c0 -21.333 13.667 -37.333 41 -48c11.333 -2 17 -4 17 -6l-1 -2h-746c-70.667 0 -118.667 30 -144 90c-6 15.333 -9 32.333 -9 51v856c0 140.667 65.333 241.334 196 302.001
c40 13.333 76.667 20 110 20h143v93c0 74 33.667 123 101 147c16 4 38.667 6 68 6zM393 1254l1 -608v-361l-1 -244c7.33301 -24 20 -36 38 -36h19v1309c-38 -6.66699 -57 -26.667 -57 -60z" />
    <glyph glyph-name="e" unicode="e" horiz-adv-x="901" 
d="M304 1318l222.999 -0.000976562c115.333 0 206 -51.667 272 -155c26.667 -53.333 40 -100 40 -140l-1 -10v-186l1 -5c0 -43.333 -14.333 -92 -43 -146c-65.333 -100.667 -155.333 -151 -270 -151h-135v-461c0 -28 14.667 -47 44 -57l12 -2h1v284c0 72 30 120.667 90 146
c16 6 39.333 9 70 9h271l3 -2c-28.667 -6 -43 -19.333 -43 -40v-96l-1 -5l1 -1c0 -52.667 -17.667 -107.667 -53 -165c-36 -53.333 -88.667 -93 -158 -119c-33.333 -10 -62.333 -15 -87 -15h-229l-6 -1l-5 1c-94 0 -175 42.333 -243 127c-38 58 -57 114 -57 168v708l-1 6h1
l-1 2v1c0 98.667 42.667 181.334 128 248.001c54.667 38 113.334 57 176.001 57zM391.999 1314l-0.999023 -1v-782l1 -1v-1c25.333 0 43.666 14.667 54.999 44l1 12v670c0 28.667 -15 48 -45 58z" />
    <glyph glyph-name="f" unicode="f" horiz-adv-x="884" 
d="M300 1566l239.002 -0.000976562c92 0 171.667 -40.667 239 -122c42 -60 63 -119.333 63 -178v-6c0 -62 -27 -114 -81 -156c-36 -25.333 -72 -38 -108 -38h-15c-56 0 -105.667 25.667 -149 77c-26 37.333 -39 71 -39 101l-1 1l1 92v162
c0 28.667 -12.667 48.334 -38 59.001l-20 4v-1111l1 -2v-1c21.333 0 38.666 12 51.999 36l4 19v228c0 75.333 32 125.333 96 150c16.667 5.33301 39 8 67 8h170l102 -1v-3c-20 0 -33.667 -10.667 -41 -32l-1 -12v-92l-2 -2l2 -1l-2 -6v-3c0 -52.667 -19 -107.667 -57 -165
c-66.667 -85.333 -149.334 -128 -248.001 -128h-143v-389c0 -24 15 -40.667 45 -50c8.66699 -0.666992 13 -2 13 -4l-1 -1h-448v1261c-0 79.333 29.333 150.333 88 213c64 61.333 134.667 92 212 92z" />
    <glyph glyph-name="g" unicode="g" horiz-adv-x="906" 
d="M292 1316l601.001 -0.000976562v-4c-25.333 0 -43.333 -14.667 -54 -44l-2 -13v-1239c0 -51.333 -23.667 -117.666 -71 -198.999c-116.667 -169.333 -306 -254 -568 -254c-79.333 0 -139.333 38 -180 114c-12 30.667 -18 57 -18 79h2l-2 1
c0 68.667 32.333 124.667 97 168c33.333 18 65.666 27 96.999 27c75.333 0 133.666 -36.333 174.999 -109c13.333 -27.333 20 -54.666 20 -81.999v-7c0 -70 -34 -126 -102 -168l-25 -10v-2h3c62.667 20 107.334 52 134.001 96c32 54 48 112.333 48 175v153l-4 3h-3v-1l-12 1
h-6l-5 -1l-8 1h-116c-80 0 -153.667 35.667 -221 107c-48 60 -72 124.333 -72 193v716c0 91.333 40.667 170.666 122 237.999c58 40.667 114.667 61 170 61zM389.001 1258l2 -12v-1179l-2 -2l2 -2v-1l-2 -2c8 -36 25.667 -54 53 -54l5 -2v1307h-7
c-24.667 0 -41.667 -17.667 -51 -53z" />
    <glyph glyph-name="h" unicode="h" horiz-adv-x="895" 
d="M-41 1559l296.001 -0.000976562c56 0 98.667 -30.667 128 -92c5.33301 -19.333 8 -37.666 8 -54.999v-95h123c135.333 0 233.666 -59.333 294.999 -178c18.667 -41.333 28 -85 28 -131v-960c4 -28.667 18.333 -43 43 -43v-3l-109 -2h-157c-62.667 0 -106 15.667 -130 47
c-25.333 23.333 -38 62 -38 116v480l2 611c-6.66699 38 -24.667 57 -54 57h-3v-1306l-3 -3h-385l-3 3v1513c-0 20 -13.667 32.667 -41 38v3z" />
    <glyph glyph-name="i" unicode="i" horiz-adv-x="457" 
d="M407 1565c2 0 3 -1.66699 3 -5c0 -78 -38 -141.667 -114 -191c-36 -19.333 -69 -29 -99 -29h-13l-9 -1c-40.667 0 -84.667 16.333 -132 49c-57.333 50.667 -86 109 -86 175l2 2h448zM-41 1322h271.998c74 0 123.667 -28.333 149 -85c7.33301 -20 11 -38.667 11 -56v-1115
c0 -30 16.333 -49 49 -57c7.33301 -1.33301 11 -3 11 -5l-2 -1h-53l-1 1l-2 -1h-91l-6 1l-2 -1c-56 6.66699 -97.333 17.667 -124 33c-77.333 40.667 -129.666 102.667 -156.999 186c-8 32 -12 62.333 -12 91v960c-3.33301 29.333 -15.666 44 -36.999 44h-5v5z" />
    <glyph glyph-name="j" unicode="j" horiz-adv-x="463" 
d="M-20 1564l1.99902 1h449l2 -2c0 -76.667 -36 -140 -108 -190c-37.333 -21.333 -76.666 -32 -117.999 -32h-5c-72 0 -132.667 32.667 -182 98c-26.667 41.333 -40 83 -40 125zM159.999 1319l271.001 0.000976562l2 -2c-28.667 -5.33301 -43 -20 -43 -44v-1375
c0 -93.333 -24.333 -167 -73 -221c-62.667 -72.667 -144.334 -109 -245.001 -109h-114v4h2c18.667 0 31.667 10.667 39 32v1555c0 52 12 89.667 36 113c21.333 21.333 41 34.666 59 39.999c15.333 4.66699 37.333 7 66 7z" />
    <glyph glyph-name="k" unicode="k" horiz-adv-x="905" 
d="M-38 1565h273.001c47.333 0 82.666 -10.333 105.999 -31c36 -27.333 54 -68.333 54 -123v-532h1c27.333 0 46 15.333 56 46l1 11v242c0 52.667 23.667 93.667 71 123c21.333 12.667 45 19 71 19h292v-3c-20.667 0 -34.667 -11.333 -42 -34l-1 -9v-90
c0 -88 -34 -164.333 -102 -229c-35.333 -31.333 -72.666 -53 -111.999 -65c-29.333 -9.33301 -52.333 -14 -69 -14v-2h1c31.333 0 71 -11.333 119 -34c65.333 -34 113.666 -89.667 144.999 -167c12 -34 18 -66.333 18 -97v-529c0 -19.333 9.66699 -33 29 -41
c10 -2 15 -3.66699 15 -5l-1 -1h-286c-69.333 0 -116.333 32.667 -141 98c-4.66699 12.667 -7 26.667 -7 42v677c0 22.667 -12.333 39.667 -37 51c-6 2 -13 3 -21 3v-718c0 -74.667 -33.333 -123.667 -100 -147c-14 -4 -27 -6 -39 -6h-294l-2 2c15.333 0 28 7.66699 38 23
c4 5.33301 6 16 6 32v1449c0 28.667 -9.66699 46.334 -29 53.001c-10 1.33301 -15 2.66602 -15 3.99902z" />
    <glyph glyph-name="l" unicode="l" horiz-adv-x="452" 
d="M173 1566l260 0.000976562l2 -3c-28.667 -6 -43 -20.333 -43 -43v-1456c0 -30 15 -49.333 45 -58c10 -1.33301 15 -3 15 -5l-2 -1h-153c-69.333 0 -136 28 -200 84c-64.667 63.333 -97 138.666 -97 225.999v1111c0 66.667 33.667 113 101 139c14.667 4 38.667 6 72 6z
" />
    <glyph glyph-name="m" unicode="m" horiz-adv-x="1350" 
d="M394 1316l5 1.00098l2 -1h1l4 1v-1l1 1h1l10 -1l1 1l9 -1h395l10 1l10 -1h144c86.667 0 162.667 -36.667 228 -110c48 -60 72 -122.333 72 -187v-972c0 -21.333 11.333 -35.333 34 -42l9 -1l-3 -3h-291c-46.667 0 -85.334 21 -116.001 63c-15.333 20 -23 54 -23 102v469
l1 625c0 14 -9 28.333 -27 43c-8.66699 4.66699 -18.667 7.66699 -30 9l-1 -1v-1043l-1 -220c4.66699 -29.333 19.334 -44 44.001 -44l-2 -3h-287c-62 0 -106.333 28.667 -133 86c-7.33301 14.667 -11 35.667 -11 63v1131c0 16.667 -19.333 27.667 -58 33v-1313l-9 -1h-294
l-143 1l-2 1v2c20 0 37.333 10 52 30l7 25l-1 9v491l1 706c-3.33301 16 -10 27.667 -20 35c-6 5.33301 -18.333 9.66602 -37 12.999v1l1 2h447z" />
    <glyph glyph-name="n" unicode="n" horiz-adv-x="898" 
d="M528 1313l6.99902 1c71.333 0 138 -25.333 200 -76c69.333 -66 104 -140.667 104 -224v-969c0 -19.333 10.667 -32.666 32 -39.999c8 -0.666992 12 -1.66699 12 -3l-2 -1h-291c-60.667 0 -105 30.667 -133 92c-5.33301 16.667 -8 39 -8 67v474l1 623
c0 20 -13 36.333 -39 49l-13 3h-5l-1 -1266v-41l-2 -2h-299l-144 1l-2 1v1c18.667 3.33301 32.334 8.66602 41.001 15.999c11.333 12.667 17 26 17 40v517l1 683c0 20 -12.333 35.667 -37 47c-13.333 2.66699 -20 4.66699 -20 6l1 1h580z" />
    <glyph glyph-name="o" unicode="o" horiz-adv-x="901" 
d="M300 1317h237c88.667 0 167 -38.333 235 -115c44.667 -57.333 67 -125.666 67 -204.999v-688c0 -104 -44.667 -189 -134 -255c-53.333 -36 -113.333 -54 -180 -54h-77l-2 1l-1 -1h-1l-1 1l-1 -1h-48l-2 1l-1 -1h-96l-1 1l-1 -1c-29.333 0 -66.666 9 -111.999 27
c-31.333 13.333 -63.333 36 -96 68c-56.667 63.333 -85 131.666 -85 204.999v724c0 68 28.667 134.667 86 200c65.333 62 136.666 93 213.999 93zM390 1251v-1246c25.333 0 43.333 12.333 54 37l5 21l-1 12v1236l-2 1v1c-23.333 0 -41.333 -13.667 -54 -41z" />
    <glyph glyph-name="p" unicode="p" horiz-adv-x="907" 
d="M137 1316h406.999c74.667 0 145.667 -33.333 213 -100c52 -60 78 -128.667 78 -206v-705c0 -108.667 -52.333 -197 -157 -265c-49.333 -25.333 -100.666 -38 -153.999 -38h-134v-141l-2 -2l2 -1c0 -41.333 -15.667 -91 -47 -149c-64.667 -95.333 -156.667 -143 -276 -143
h-107v3c26.667 6.66699 40 18 40 34v1561c0 76 33.667 125 101 147c8.66699 3.33301 20.667 5 36 5zM387.999 13c26 0 44.333 15 55 45l2 9l-2 2l2 9v1233l-3 4c-24.667 0 -42.667 -15.667 -54 -47v-1255z" />
    <glyph glyph-name="q" unicode="q" horiz-adv-x="906" 
d="M301 1323h236c107.333 0 195 -50.333 263 -151c29.333 -48.667 44 -105 44 -169v-692c0 -129.333 -62.333 -226 -187 -290c-36.667 -12.667 -59.667 -19 -69 -19v-2h49c70.667 -0 128.667 -34.667 174 -104c18.667 -29.333 28 -69.333 28 -120v-48
c0 -14 9 -22.333 27 -25v-3h-191c-52.667 0 -85.667 25.667 -99 77l-2 16v161c-2.66699 28.667 -14.667 43 -36 43h-229c-117.333 0 -209.333 55.667 -276 167c-22.667 46.667 -34 93.334 -34 140.001v716c0 93.333 41.333 173.666 124 240.999c56.667 41.333 116 62 178 62
zM392 2l3 -0.000976562c36.667 5.33301 55 23.333 55 54v1263c-38.667 -5.33301 -58 -26.666 -58 -63.999v-1253z" />
    <glyph glyph-name="r" unicode="r" horiz-adv-x="892" 
d="M543 1317c86 0 162.334 -37.334 229.001 -112.001c46 -62 69 -123 69 -183v-13c0 -65.333 -32.667 -120.333 -98 -165c-32 -16 -62.667 -24 -92 -24h-14c-62.667 0 -116.334 32 -161.001 96c-17.333 35.333 -26 65 -26 89l1 57v195c0 28 -16.333 46.667 -49 56h-9
l-1 -1270v-40l-3 -3h-384l-3 3v576l1 683c0 22.667 -14.333 39.334 -43 50.001c-10.667 0.666992 -16 2 -16 4l2 1h597z" />
    <glyph glyph-name="s" unicode="s" horiz-adv-x="901" 
d="M319 1324l222.002 -0.00195312c98 0 181.333 -45.333 250 -136c34.667 -57.333 52 -110.333 52 -159v-10c0 -70 -32.667 -126 -98 -168c-31.333 -18 -63.333 -27 -96 -27h-3c-74.667 0 -133.334 36 -176.001 108c-13.333 32.667 -20.333 60.334 -21 83.001l2 33v218
c0 24 -14.667 41.667 -44 53l-15 1v-537c0 -30.667 13.333 -51 40 -61l19 -3h87c99.333 0 183.333 -44 252 -132c35.333 -57.333 53 -112 53 -164v-119l1 -5c0 -47.333 -16.333 -99.333 -49 -156c-41.333 -62 -97 -104.667 -167 -128c-34.667 -10 -63.334 -15 -86.001 -15v1
l-1 -1l-20 1h-56l-13 -1v1l-1 -1l-7 1h-147c-81.333 0 -156.666 37 -225.999 111c-32.667 39.333 -54.667 88.333 -66 147l-5 45c0 70.667 32.667 127.334 98 170.001c31.333 18 65.666 27 102.999 27c68 0 124.333 -33 169 -99c16.667 -36 25 -67 25 -93l-1 -9v-240
c0 -24.667 14.333 -42.334 43 -53.001l12 -2h3v646c0 30.667 -13.667 51 -41 61l-19 3l-4 -1l-1 1l-9 -1h-69l-5 1l-1 -1c-58 0 -117.333 20.333 -178 61c-83.333 68.667 -125 151.334 -125 248.001l1 1v1l-1 2c-0 40 13.333 86.667 40 140
c65.333 104.667 158.333 157 279 157z" />
    <glyph glyph-name="t" unicode="t" horiz-adv-x="905" 
d="M-39 1567l295.999 0.00195312c35.333 0 67 -13 95 -39c28.667 -27.333 43 -64.333 43 -111v-720h4c26.667 0 44.334 15.667 53.001 47l2 17v231l-2 8c0 36 17 70 51 102c24.667 22 59 33 103 33h279l3 -2c-28.667 -5.33301 -43 -20 -43 -44v-96
c0 -92 -41.667 -172.667 -125 -242c-56.667 -40 -119 -60 -187 -60h-138v-685h3c27.333 0 45.333 16.667 54 50v198l-1 62c0 32.667 14.333 70 43 112c44 48 92.333 72 145 72h17c58 0 108.667 -27.333 152 -82c24.667 -36.667 37 -74.334 37 -113.001
c0 -70.667 -26.667 -138.334 -80 -203.001c-64 -68 -143.667 -102 -239 -102h-212c-86 0 -160 31 -222 93c-59.333 60 -89 135.667 -89 227v1205c-5.33301 26 -19.333 39 -42 39v3z" />
    <glyph glyph-name="u" unicode="u" horiz-adv-x="898" 
d="M230 1314c60 0 102.333 -16.667 127 -50c22.667 -25.333 34 -55 34 -89v-1112c0 -30.667 17.333 -50 52 -58h6v1172c0 58 31 101.333 93 130c17.333 5.33301 41 8 71 8h265l3 -3c-28.667 -6.66699 -43 -19.667 -43 -39v-1214c0 -25.333 15.333 -43.333 46 -54
c8 0 12 -1 12 -3l-3 -2h-233l-352 1l-5 -1c-65.333 0 -129 23.667 -191 71c-74 64.667 -111 146 -111 244v957c0 16.667 -11.333 29 -34 37c-6 0 -9 1 -9 3l2 2h270z" />
    <glyph glyph-name="v" unicode="v" horiz-adv-x="908" 
d="M-43 1319l296.999 0.000976562c54 0 96 -28.667 126 -86c6.66699 -18.667 10 -37.334 10 -56.001v-1107c0 -32.667 14.333 -53.667 43 -63l13 -1h1v1175c0 54 27 95.667 81 125c18.667 8.66699 37.667 13 57 13h295v-3c-25.333 0 -39.333 -16 -42 -48v-964
c0 -98.667 -43.667 -181.334 -131 -248.001c-57.333 -37.333 -114.666 -56 -171.999 -56v1l-2 -1l-7 1h-228c-82.667 0 -157.334 35.333 -224.001 106c-49.333 60.667 -74 127.334 -74 200.001v961c-3.33301 32 -17.666 48 -42.999 48v3z" />
    <glyph glyph-name="w" unicode="w" horiz-adv-x="1353" 
d="M-39 1318l293.999 0.000976562c52 0 92.667 -25 122 -75c11.333 -17.333 17 -45.666 17 -84.999v-479l-2 -620c0 -20 12 -36.667 36 -50c6.66699 -2.66699 14 -4 22 -4h1v1266c-4 29.333 -18 44 -42 44v3h294c58.667 0 102 -30.667 130 -92
c5.33301 -14.667 8 -31.667 8 -51v-1137c0 -19.333 18.667 -31.333 56 -36l2 2v1185c0 35.333 18 68.666 54 99.999c22 19.333 58.333 29 109 29h266l3 -3c-29.333 -6 -44 -20.667 -44 -44l2 -226v-725c0 -128.667 -57 -224.334 -171 -287.001
c-49.333 -21.333 -88.333 -32 -117 -32l-260 -1h-35l-421 1c-30.667 0 -73 12.667 -127 38c-22.667 12.667 -49 34.667 -79 66c-35.333 38 -59.666 88.667 -72.999 152l-4 34l1 41v920c0 30 -6 48.667 -18 56c-9.33301 4.66699 -17.333 7 -24 7v3z" />
    <glyph glyph-name="x" unicode="x" horiz-adv-x="908" 
d="M-38 1314l290.999 -0.00195312c62 0 106 -30.667 132 -92c5.33301 -11.333 8 -24.666 8 -39.999v-160l2 -5l-2 -8v-229c0 -30 11 -50 33 -60c7.33301 -4 16 -6 26 -6v277c0 148.667 68.667 251.334 206 308.001c35.333 10 65 15 89 15h150l3 -3
c-39.333 -6.66699 -59 -25.667 -59 -57v-222c0 -127.333 -54.667 -222.333 -164 -285c-46.667 -22 -85.667 -33 -117 -33v-2c47.333 0 100 -19.333 158 -58c82 -66.667 123 -149 123 -247v-350c0 -28 10.333 -44.667 31 -50l8 -2h5v-3l-10 -2l-10 2l-2 -2l-8 2h-268
c-54.667 0 -96.667 29.667 -126 89c-5.33301 18 -8 33 -8 45v494c0 41.333 -11.333 65.666 -34 72.999c0 2.66699 -7.66699 4.66699 -23 6h-1l-2 -92v-41l2 -268c0 -102 -45.333 -187 -136 -255c-58 -35.333 -112.333 -53 -163 -53l-29 2h-119v3c25.333 0 43.333 14 54 42
c2 4.66699 3 11.334 3 20.001v337c0 106.667 48.667 194 146 262c55.333 28.667 101 43 137 43v2c-65.333 0 -131 30 -197 90c-57.333 64 -86 132 -86 204v260c-3.33301 30.667 -17.666 46 -42.999 46v3z" />
    <glyph glyph-name="y" unicode="y" horiz-adv-x="898" 
d="M-40 1318l295.003 0.00195312c60 0 103.333 -32 130 -96c4.66699 -14 7 -30 7 -48v-1110c5.33301 -37.333 24 -56 56 -56v1150c0 84.667 36 137 108 157l29 3h296v-3c-28.667 0 -43 -20 -43 -60v-1244c0 -53.333 -27.333 -123.333 -82 -210
c-54 -68 -109 -116.667 -165 -146c-110.667 -58.667 -234.334 -88 -371.001 -88h-39c-44.667 0 -88.334 22.333 -131.001 67c-30.667 38 -46 76 -46 114v28c0 52 28 100.667 84 146c35.333 21.333 68.666 32 99.999 32h18c66.667 0 121.667 -35.333 165 -106
c12.667 -29.333 19 -56.333 19 -81v-14c0 -71.333 -36.667 -127.333 -110 -168l-14 -6v-1h1c58.667 16.667 99.667 44 123 82c38.667 53.333 58 113.666 58 180.999v161h-124c-144.667 0 -246 67.333 -304 202c-12 35.333 -18 67.666 -18 96.999v966
c-3.33301 32 -16 48 -38 48h-4v3z" />
    <glyph glyph-name="z" unicode="z" horiz-adv-x="901" 
d="M297 1316h223.001c131.333 0 228 -59.333 290 -178c18.667 -44.667 28 -85.667 28 -123c0 -87.333 -35.333 -164 -106 -230c-60.667 -49.333 -125.334 -74 -194.001 -74h-90c-32.667 0 -52.334 -18.667 -59.001 -56v-649h4c25.333 0 43.333 14.667 54 44l1 19v162l-1 87
c0 26 11.333 58.333 34 97c44 55.333 95.333 83 154 83h15c62 0 115.333 -31.333 160 -94c18.667 -34.667 28 -69 28 -103c0 -48.667 -15.667 -100.667 -47 -156c-36 -60 -94 -104.333 -174 -133c-29.333 -7.33301 -54.333 -11 -75 -11h-227l-12 -1
c-86 -0 -162 35.333 -228 106c-50 60 -75 125.667 -75 197v106c0 109.333 50.333 197.333 151 264c50.667 28 100 42 148 42h92c26.667 0 45.334 14.667 56.001 44l1 14v539c-28 0 -47 -14.667 -57 -44l-1 -14v-199l1 -50c0 -31.333 -12.667 -67.333 -38 -108
c-44.667 -51.333 -94 -77 -148 -77h-18c-60 0 -112.333 29.667 -157 89c-20 33.333 -30 69 -30 107c0 72.667 28 141 84 205c65.333 63.333 136.333 95 213 95z" />
    <glyph glyph-name="braceleft" unicode="{" horiz-adv-x="239" 
d="M264 1758l4 -4.00098v-3l-4 -4h-5c-66 0 -120.333 -27.667 -163 -83c-17.333 -24.667 -26 -53.667 -26 -87v-677c0 -28 -14.667 -48.667 -44 -62c29.333 -17.333 44 -39.333 44 -66v-675c0 -77.333 44.667 -131.333 134 -162c12.667 -3.33301 34 -7 64 -11v-6l-4 -4
c-79.333 0 -142.333 35.333 -189 106c-11.333 24 -17 53 -17 87v669c0 28.667 -20 47.334 -60 56.001v6c0 2 11.333 6.33301 34 13c17.333 15.333 26 32.333 26 51v665c0 87.333 45 147.333 135 180c22 7.33301 45.667 11 71 11z" />
    <glyph glyph-name="bar" unicode="|" horiz-adv-x="192" 
d="M43 1851v-1852h-42v1852h42z" />
    <glyph glyph-name="braceright" unicode="}" horiz-adv-x="289" 
d="M71 1747c89.333 -32.667 134 -92.666 134 -179.999v-665c0 -18.667 8.66699 -35.667 26 -51c22.667 -6.66699 34 -11 34 -13v-6c-40 -8.66699 -60 -27.334 -60 -56.001v-669c0 -34 -5.66699 -63 -17 -87c-46.667 -70.667 -109.667 -106 -189 -106l-4 4v6
c30 4 51.333 7.66699 64 11c89.333 30.667 134 84.667 134 162v675c0 26.667 14.667 48.667 44 66c-29.333 13.333 -44 34 -44 62v677c0 33.333 -8.66699 62.333 -26 87c-42.667 55.333 -97 83 -163 83h-5l-4 4v3l4 4c25.333 0 49.333 -3.66699 72 -11z" />
    <glyph glyph-name="asciitilde" unicode="~" horiz-adv-x="1196" 
d="M751 1673h17.002c-1.33301 -34 -11.166 -60.5 -29.499 -79.5s-40.5 -28.5 -66.5 -28.5c-12 0 -25 2 -39 6s-49.667 17.667 -107 41c-40.667 16.667 -69.334 25 -86.001 25c-18 0 -33.333 -5.5 -46 -16.5s-21.667 -29.167 -27 -54.5h-17
c1.33301 35.333 10.833 62.333 28.5 81s38.5 28 62.5 28c12 0 24 -2 36 -6c26.667 -8 62.167 -21.5 106.5 -40.5s75.5 -28.5 93.5 -28.5c19.333 0 35.666 6.33301 48.999 19s21.666 30.667 24.999 54z" />
    <glyph glyph-name="exclamdown" unicode="&#xa1;" horiz-adv-x="682" 
 />
    <glyph glyph-name="cent" unicode="&#xa2;" horiz-adv-x="949" 
d="M358 1317l234.002 0.000976562c74.667 0 144 -29 208 -87c61.333 -66 92 -136 92 -210v-11c0 -64.667 -31.333 -118.334 -94 -161.001c-30.667 -19.333 -63.667 -29 -99 -29h-5c-74.667 0 -133 37.667 -175 113c-11.333 28 -17 54.333 -17 79v21l1 4l-1 7v208l1 6
c0 24.667 -15.333 42.667 -46 54l-13 2l1 -745v-501l-1 -6c0 -24.667 14.667 -42.667 44 -54l11 -2h4v297c0 66 34.333 111.333 103 136c14 4 33.667 6 59 6h228l2 -2l1 2l9 -2h14l5 2l1 -2h2l8 2l1 -2v-1c-18.667 0 -32.334 -10.667 -41.001 -32
c-2 -4.66699 -3 -12.667 -3 -24v-72l1 -6l-1 -5c0 -96 -42.667 -177.667 -128 -245c-30.667 -22 -67.667 -38.333 -111 -49c-16 -3.33301 -35 -6 -57 -8l-1 1l-9 -1h-134l-1 1l-2 -1h-83l-1 1l-4 -1c-98.667 0 -182.334 43.667 -251.001 131
c-36.667 56.667 -55 114.667 -55 174v710c0 99.333 45.333 183 136 251c54 34 109.667 51 167 51zM826.002 1470l-692 -1627l-23 9l692 1627z" />
    <glyph glyph-name="sterling" unicode="&#xa3;" 
 />
    <glyph glyph-name="currency" unicode="&#xa4;" 
 />
    <glyph glyph-name="yen" unicode="&#xa5;" 
 />
    <glyph glyph-name="brokenbar" unicode="&#xa6;" horiz-adv-x="532" 
 />
    <glyph glyph-name="section" unicode="&#xa7;" 
 />
    <glyph glyph-name="dieresis" unicode="&#xa8;" horiz-adv-x="682" 
d="M190 1567h5c30.667 0 56.334 -14.333 77.001 -43c9.33301 -16 14 -32 14 -48v-5c0 -30 -14.333 -55.667 -43 -77c-16.667 -9.33301 -32.667 -14 -48 -14h-3c-32.667 0 -59.334 15 -80.001 45c-8.66699 16 -13 31.667 -13 47v3c0 31.333 14.667 57.333 44 78
c15.333 9.33301 31 14 47 14zM477 1568h6c26.667 0 50.667 -12.667 72 -38c12 -17.333 18 -36 18 -56c0 -28 -11 -51.667 -33 -71c-17.333 -15.333 -37.333 -23 -60 -23h-3c-28.667 0 -53.667 13.667 -75 41c-10.667 18 -16 34.333 -16 49v8c0 14.667 5.33301 31 16 49
c20.667 27.333 45.667 41 75 41z" />
    <glyph glyph-name="copyright" unicode="&#xa9;" horiz-adv-x="1509" 
 />
    <glyph glyph-name="ordfeminine" unicode="&#xaa;" horiz-adv-x="758" 
 />
    <glyph glyph-name="guillemotleft" unicode="&#xab;" horiz-adv-x="538" 
d="M528 299h-1l-374 375v1l373 373h1l9 -9v-1l-363 -364l364 -366zM382 299h-1l-374 375v1l373 373h1l9 -9v-1l-363 -364l364 -366z" />
    <glyph glyph-name="logicalnot" unicode="&#xac;" horiz-adv-x="1196" 
 />
    <glyph glyph-name="registered" unicode="&#xae;" horiz-adv-x="773" 
d="M383 1853c48.667 0 95.8291 -12.333 141.496 -37s81.334 -60 107.001 -106s38.5 -93.667 38.5 -143c0 -50 -12.667 -97.667 -38 -143s-60.666 -80.5 -105.999 -105.5s-93 -37.5 -143 -37.5c-49.333 0 -96.666 12.5 -141.999 37.5s-80.5 60.167 -105.5 105.5
s-37.5 93 -37.5 143c0 49.333 12.833 97 38.5 143s61.334 81.333 107.001 106s92.167 37 139.5 37zM382.995 1831c-44 0 -87.1689 -11.5 -129.502 -34.5s-75.166 -55.5 -98.499 -97.5s-35 -86 -35 -132s11.667 -89.833 35 -131.5s55.833 -74.167 97.5 -97.5
s85.167 -35 130.5 -35c46 0 90 11.667 132 35s74.5 55.833 97.5 97.5s34.5 85.5 34.5 131.5s-11.667 90 -35 132s-56.166 74.5 -98.499 97.5s-85.833 34.5 -130.5 34.5zM473.993 1721c15.333 -16.667 23.001 -35.332 23.001 -55.999v-9
c0 -4.66699 -2.33301 -12.334 -7 -23.001c-2.66699 -7.33301 -7.33398 -14.666 -14.001 -21.999c-9.33301 -9.33301 -17.333 -15.666 -24 -18.999c-4.66699 -2.66699 -12.334 -5.33398 -23.001 -8.00098l-9 -1h4c13.333 -2 26 -7 38 -15c23.333 -18 35 -41 35 -69v-102
c2.66699 -6 6.66699 -9 12 -9h-78c-8 0 -14.667 1.66699 -20 5c-12.667 8 -19 18.667 -19 32v141c0 2.66699 -0.666992 5 -2 7c-3.33301 6 -8 9 -14 9h-1v-109c0 -20 -6.66699 -38 -20 -54c-18 -19.333 -38.667 -29 -62 -29h-39c0 0.666992 1.33301 1 4 1
c8 3.33301 12 8.66602 12 15.999v325c0 2.66699 -1.33301 5.66699 -4 9c-4 3.33301 -8 5 -12 5v1h158c24.667 0 45.334 -8.66699 62.001 -26zM390.994 1734c-2.66699 8 -7.33301 12.001 -14 12.001h-1v-103l-1 -59h4c8.66699 3.33301 13 8.66602 13 15.999v130z" />
    <glyph glyph-name="macron" unicode="&#xaf;" horiz-adv-x="1131" 
 />
    <glyph glyph-name="degree" unicode="&#xb0;" horiz-adv-x="468" 
d="M229 1859c60.667 0 102.333 -33.999 125 -101.999l2 -21v-12c0 -46.667 -25.333 -83.334 -76 -110.001c-18 -8 -35.667 -12 -53 -12c-54.667 0 -94.667 29 -120 87l-6 32v11c0 60.667 32.333 101.667 97 123zM125.999 1732l-0.000976562 -4c0 -46.667 26 -79 78 -97
l25 -4c47.333 0 80.333 27.333 99 82l2 19v4c0 46 -25 78.333 -75 97l-30 4c-43.333 0 -75.666 -25.667 -96.999 -77z" />
    <glyph glyph-name="plusminus" unicode="&#xb1;" horiz-adv-x="633" 
d="M303 1192h5l2 -3v-238h238l2 -3v-3l-2 -3h-235l-3 -2v-236l-2 -2h-5l-2 2v237l-4 1l-1 -1l-6 1h-217l-12 -1l-1 1v6l2 3h239v238z" />
    <glyph glyph-name="uni00B2" unicode="&#xb2;" horiz-adv-x="682" 
 />
    <glyph glyph-name="uni00B3" unicode="&#xb3;" horiz-adv-x="682" 
 />
    <glyph glyph-name="acute" unicode="&#xb4;" horiz-adv-x="325" 
d="M194 1775l5.00098 0.000976562c21.333 0 39 -10.333 53 -31c6 -10.667 9 -21 9 -31c0 -14.667 -7 -33 -21 -55c-7.33301 -16 -25 -39.667 -53 -71c-32 -30.667 -58.333 -52 -79 -64c-20 -12.667 -40 -23 -60 -31v1c19.333 20 33.666 38.667 42.999 56
c18.667 31.333 32 73.666 40 126.999c1.33301 11.333 2.33301 27.333 3 48c4.66699 17.333 12.667 30.333 24 39c12 8 24 12 36 12z" />
    <glyph glyph-name="mu" unicode="&#xb5;" horiz-adv-x="1180" 
 />
    <glyph glyph-name="paragraph" unicode="&#xb6;" horiz-adv-x="1100" 
 />
    <glyph glyph-name="periodcentered" unicode="&#xb7;" horiz-adv-x="569" 
 />
    <glyph glyph-name="periodcentered" unicode="&#x2219;" horiz-adv-x="569" 
 />
    <glyph glyph-name="cedilla" unicode="&#xb8;" horiz-adv-x="682" 
 />
    <glyph glyph-name="uni00B9" unicode="&#xb9;" horiz-adv-x="682" 
 />
    <glyph glyph-name="ordmasculine" unicode="&#xba;" horiz-adv-x="748" 
 />
    <glyph glyph-name="guillemotright" unicode="&#xbb;" horiz-adv-x="538" 
d="M7 308l364 366l-363 364v1l9 9h1l373 -373v-1l-374 -375h-1zM153 308l364 366l-363 364v1l9 9h1l373 -373v-1l-374 -375h-1z" />
    <glyph glyph-name="onequarter" unicode="&#xbc;" horiz-adv-x="1708" 
 />
    <glyph glyph-name="onehalf" unicode="&#xbd;" horiz-adv-x="1708" 
 />
    <glyph glyph-name="threequarters" unicode="&#xbe;" horiz-adv-x="1708" 
 />
    <glyph glyph-name="questiondown" unicode="&#xbf;" horiz-adv-x="1251" 
 />
    <glyph glyph-name="Agrave" unicode="&#xc0;" horiz-adv-x="1366" 
 />
    <glyph glyph-name="Aacute" unicode="&#xc1;" horiz-adv-x="1366" 
 />
    <glyph glyph-name="Acircumflex" unicode="&#xc2;" horiz-adv-x="1366" 
 />
    <glyph glyph-name="Atilde" unicode="&#xc3;" horiz-adv-x="1366" 
 />
    <glyph glyph-name="Adieresis" unicode="&#xc4;" horiz-adv-x="1366" 
d="M148 1812l0.999023 2h259l4 -4c0 -50.667 -28.667 -90 -86 -118c-15.333 -4.66699 -28.666 -7 -39.999 -7h-17c-44 0 -81.333 26.667 -112 80c-6 21.333 -9 37 -9 47zM436.999 1812l2 2h258c2.66699 0 4 -2 4 -6c0 -46 -26.667 -84 -80 -114c-18.667 -6 -34 -9 -46 -9
h-13c-49.333 0 -88 27.333 -116 82c-6 18 -9 33 -9 45zM314.999 1677l221 0.000976562c111.333 0 200.666 -54.333 267.999 -163c22.667 -47.333 34 -94.333 34 -141v-1322c3.33301 -32 17.333 -48 42 -48h15v-3h-302c-69.333 0 -115.666 34 -138.999 102c-4 10 -6 24 -6 42
v883c-28 0 -46.333 -15.333 -55 -46l-2 -13v-826c0 -66.667 -35.667 -112.334 -107 -137.001l-43 -3h-297v3h16c27.333 5.33301 41 19.333 41 42v1328c0 102.667 47.667 187.667 143 255c50 31.333 107 47 171 47zM390.999 1031h57v640h-6
c-23.333 0 -40.333 -15.667 -51 -47v-593z" />
    <glyph glyph-name="Aring" unicode="&#xc5;" horiz-adv-x="899" 
d="M321 1676l96 -1.00098l112 1h4c94.667 0 175.334 -40.333 242.001 -121c41.333 -52.667 62 -121 62 -205v-1303c0 -19.333 10 -33 30 -41l8 -2h19v-3l-31 -1h-251c-57.333 0 -97.333 12.667 -120 38c-29.333 28.667 -44 61.334 -44 98.001v890h-4
c-29.333 0 -47.333 -18.667 -54 -56v-823c0 -64.667 -30.667 -110 -92 -136c-14 -5.33301 -29.667 -8 -47 -8h-307v3h13c20.667 0 35 9.66699 43 29c1.33301 4 2 11.667 2 23v1323c0 73.333 30 142 90 206c59.333 59.333 135.666 89 228.999 89zM390 1615v-582l3 -3h52l3 3
v636l-1 2v1c-26 0 -44.667 -15 -56 -45zM423 1857c26 0 47.835 -9 65.502 -27s26.5 -39.333 26.5 -64c0 -25.333 -9 -46.833 -27 -64.5s-39.667 -26.5 -65 -26.5c-24.667 0 -45.834 8.83301 -63.501 26.5s-26.5 39.167 -26.5 64.5c0 24.667 8.66699 46 26 64
s38.666 27 63.999 27zM423.002 1832c-18 0 -33.5 -6.5 -46.5 -19.5s-19.5 -28.5 -19.5 -46.5s6.5 -33.5 19.5 -46.5s28.5 -19.5 46.5 -19.5c18.667 0 34.334 6.5 47.001 19.5s19 28.5 19 46.5s-6.33301 33.5 -19 46.5s-28.334 19.5 -47.001 19.5z" />
    <glyph glyph-name="AE" unicode="&#xc6;" horiz-adv-x="1351" 
d="M320 1672l96 -1.00098l112 1h4c94.667 0 175.334 -40.333 242.001 -121c41.333 -52.667 62 -121 62 -205v-1303c0 -19.333 10 -33 30 -41l8 -2h19v-3l-31 -1h-251c-57.333 0 -97.333 12.667 -120 38c-29.333 28.667 -44 61.334 -44 98.001v890h-4
c-29.333 0 -47.333 -18.667 -54 -56v-823c0 -64.667 -30.667 -110 -92 -136c-14 -5.33301 -29.667 -8 -47 -8h-307v3h13c20.667 0 35 9.66699 43 29c1.33301 4 2 11.667 2 23v1323c0 73.333 30 142 90 206c59.333 59.333 135.666 89 228.999 89zM389 1611v-582l3 -3h52l3 3
v636l-1 2v1c-26 0 -44.667 -15 -56 -45zM400 1673h594c86.667 0 164 -39.333 232 -118c42.667 -58 64 -121.667 64 -191v-84c4 -30.667 17.667 -46 41 -46h17v-3h-309c-62 0 -106.333 32.667 -133 98l-7 39l2 8v214c0 41.333 -12.333 66 -37 74l-22 5v-1084h3
c32 0 50.667 19.667 56 59v250c0 46 26.333 84.667 79 116c19.333 9.33301 46.333 14 81 14h170l100 -2h2v-2c-18 0 -31.667 -10.667 -41 -32l-2 -18v-93c0 -96 -46 -178.667 -138 -248c-54.667 -32.667 -109.667 -49 -165 -49h-145v-584c24 0 42 12.667 54 38
c3.33301 7.33301 5 16.333 5 27v239c0 58.667 33 102 99 130c18.667 3.33301 36.334 5 53.001 5h280v-3c-24.667 0 -39 -16 -43 -48v-96c0 -83.333 -37.667 -159 -113 -227c-58.667 -45.333 -122.667 -68 -192 -68h-585v3h2c29.333 0 46.333 13 51 39v1592
c-2.66699 27.333 -16.334 41 -41.001 41l-10 1h-2v4z" />
    <glyph glyph-name="Ccedilla" unicode="&#xc7;" horiz-adv-x="1479" 
d="M306 1c-116 0 -206.333 54.668 -271 164.001c-23.333 45.333 -35 89.666 -35 132.999v1091c0 69.333 30 136.666 90 201.999c62.667 58.667 134 88 214 88h232c95.333 0 176.333 -43.333 243 -130c37.333 -56 56 -110 56 -162v-21c0 -60.667 -32.333 -113.667 -97 -159
c-32.667 -16 -62 -24 -88 -24h-18c-63.333 0 -116.333 31 -159 93c-18 30.667 -27 60.667 -27 90v251c0 30 -16.333 49 -49 57l-8 1v-1612c0 -26.667 15 -45.667 45 -57h12v301l2 2l-2 1c0 41.333 21.333 78.333 64 111c24 14.667 50.333 22 79 22h289v-3
c-28 -5.33301 -42 -18 -42 -38v-62c0 -97.333 -23 -172.333 -69 -225c-63.333 -76 -145 -114 -245 -114h-63c2.66699 -5.33301 5.33398 -8.66602 8.00098 -9.99902c0 -1.33301 9.33301 -2.33301 28 -3c16 -3.33301 30 -8 42 -14c10 -4.66699 23.333 -15 40 -31
c22.667 -28 34 -57 34 -87v-9c0 -33.333 -13.333 -64.333 -40 -93c-28 -26.667 -60.333 -40 -97 -40c-50.667 0 -90.667 23.333 -120 70c-12 21.333 -18 44 -18 68h83c0.666992 0 1.66699 -5.33301 3 -16c11.333 -25.333 28.666 -38 51.999 -38c24 0 41.333 13 52 39l2 14v1
c0 24.667 -14 42 -42 52c-21.333 1.33301 -36 3.33301 -44 6c-14 4.66699 -27 13 -39 25c-18.667 20.667 -28 42.667 -28 66h-69z" />
    <glyph glyph-name="Egrave" unicode="&#xc8;" horiz-adv-x="1366" 
 />
    <glyph glyph-name="Eacute" unicode="&#xc9;" horiz-adv-x="1366" 
d="M0 1680h594c86.667 0 164 -39.333 232 -118c42.667 -58 64 -121.667 64 -191v-84c4 -30.667 17.667 -46 41 -46h17v-3h-309c-62 0 -106.333 32.667 -133 98l-7 39l2 8v214c0 41.333 -12.333 66 -37 74l-22 5v-1084h3c32 0 50.667 19.667 56 59v250
c0 46 26.333 84.667 79 116c19.333 9.33301 46.333 14 81 14h170l100 -2h2v-2c-18 0 -31.667 -10.667 -41 -32l-2 -18v-93c0 -96 -46 -178.667 -138 -248c-54.667 -32.667 -109.667 -49 -165 -49h-145v-584c24 0 42 12.667 54 38c3.33301 7.33301 5 16.333 5 27v239
c0 58.667 33 102 99 130c18.667 3.33301 36.334 5 53.001 5h280v-3c-24.667 0 -39 -16 -43 -48v-96c0 -83.333 -37.667 -159 -113 -227c-58.667 -45.333 -122.667 -68 -192 -68h-585v3h2c29.333 0 46.333 13 51 39v1592c-2.66699 27.333 -16.334 41 -41.001 41l-10 1h-2v4z
M128 1852l2 2h294c2.66699 0 4 -2 4 -6c0 -51.333 -28.667 -94 -86 -128c-20 -8.66699 -40.333 -13 -61 -13h-15c-50 0 -92.333 30.333 -127 91c-7.33301 23.333 -11 41.333 -11 54zM457 1852l2 2.00098h294c2.66699 0 4 -2 4 -6c0 -51.333 -28.667 -94 -86 -128
c-20 -8.66699 -40.333 -13 -61 -13h-11c-56 0 -100 31 -132 93c-6.66699 21.333 -10 38.666 -10 51.999z" />
    <glyph glyph-name="Ecircumflex" unicode="&#xca;" horiz-adv-x="1366" 
 />
    <glyph glyph-name="Edieresis" unicode="&#xcb;" horiz-adv-x="1366" 
 />
    <glyph glyph-name="Igrave" unicode="&#xcc;" horiz-adv-x="569" 
 />
    <glyph glyph-name="Iacute" unicode="&#xcd;" horiz-adv-x="569" 
 />
    <glyph glyph-name="Icircumflex" unicode="&#xce;" horiz-adv-x="569" 
 />
    <glyph glyph-name="Idieresis" unicode="&#xcf;" horiz-adv-x="569" 
 />
    <glyph glyph-name="Eth" unicode="&#xd0;" horiz-adv-x="1479" 
 />
    <glyph glyph-name="Ntilde" unicode="&#xd1;" horiz-adv-x="1479" 
d="M0 1680h448v-1676l-3 -4h-443v2c36.667 6 55 16.667 55 32v1610c-6 22.667 -25 34 -57 34v2zM454 1680h15l6 2l9 -2h121c96.667 0 179.334 -46.667 248.001 -140c31.333 -54.667 47 -105 47 -151v-1332c0 -27.333 10.333 -44.333 31 -51l11 -2v-4h-286
c-72.667 -0 -120.334 37.333 -143.001 112l-2 26v1476c0 29.333 -14 49.333 -42 60l-15 2v4zM643 1847l20.0049 -0.00195312c-1.33301 -39.333 -12.5 -69.833 -33.5 -91.5s-46.5 -32.5 -76.5 -32.5c-13.333 0 -28 2.33301 -44 7s-56.667 20.334 -122 47.001
c-46.667 19.333 -79.334 29 -98.001 29c-20.667 0 -38.334 -6.5 -53.001 -19.5s-24.667 -33.833 -30 -62.5h-20c1.33301 40.667 12.166 71.667 32.499 93s44.166 32 71.499 32c13.333 0 26.666 -2.33301 39.999 -7c31.333 -8.66699 72.333 -24 123 -46s86 -33 106 -33
c22.667 0 41.5 7.33301 56.5 22s24.167 35.334 27.5 62.001z" />
    <glyph glyph-name="Ograve" unicode="&#xd2;" horiz-adv-x="1593" 
 />
    <glyph glyph-name="Oacute" unicode="&#xd3;" horiz-adv-x="1593" 
 />
    <glyph glyph-name="Ocircumflex" unicode="&#xd4;" horiz-adv-x="1593" 
 />
    <glyph glyph-name="Otilde" unicode="&#xd5;" horiz-adv-x="1593" 
 />
    <glyph glyph-name="Odieresis" unicode="&#xd6;" horiz-adv-x="1593" 
d="M291 1679l246.002 -0.000976562c100.667 0 185 -47 253 -141c32 -52 48 -108.667 48 -170v-1058c0 -124 -59 -218 -177 -282c-42.667 -18.667 -82.334 -28 -119.001 -28h-248c-92.667 0 -173.334 44.667 -242.001 134c-34.667 54.667 -52 110.334 -52 167.001v1081
c-0 97.333 46.333 180.333 139 249c55.333 32 106 48 152 48zM391.002 2.99902c28 0 46.668 16.667 56.001 50v1623c-26.667 0 -45.334 -15.667 -56.001 -47v-1626zM524.003 1850c11.333 0 22.6689 -3.16699 34.002 -9.5s20.166 -15 26.499 -26s9.5 -22.833 9.5 -35.5
c0 -12 -3 -23.667 -9 -35s-14.667 -20 -26 -26s-23 -9 -35 -9c-12.667 0 -24.5 3 -35.5 9s-19.667 14.667 -26 26s-9.5 23 -9.5 35c0 12.667 3.16699 24.5 9.5 35.5s15.166 19.667 26.499 26s23 9.5 35 9.5zM331.006 1849c12 0 23.668 -3 35.001 -9
s20.166 -14.667 26.499 -26s9.5 -23 9.5 -35s-3.16699 -23.667 -9.5 -35s-15 -20 -26 -26s-22.833 -9 -35.5 -9c-12 0 -23.667 3 -35 9s-20 14.667 -26 26s-9 23 -9 35s3.16699 23.667 9.5 35s15 20 26 26s22.5 9 34.5 9z" />
    <glyph glyph-name="multiply" unicode="&#xd7;" horiz-adv-x="1196" 
 />
    <glyph glyph-name="Oslash" unicode="&#xd8;" horiz-adv-x="1593" 
 />
    <glyph glyph-name="Ugrave" unicode="&#xd9;" horiz-adv-x="1479" 
 />
    <glyph glyph-name="Uacute" unicode="&#xda;" horiz-adv-x="1479" 
 />
    <glyph glyph-name="Ucircumflex" unicode="&#xdb;" horiz-adv-x="1479" 
 />
    <glyph glyph-name="Udieresis" unicode="&#xdc;" horiz-adv-x="901" 
d="M-40 1678h283.001c68 0 114.667 -29.667 140 -89c6 -13.333 9 -28.333 9 -45v-1466c0 -36.667 12 -59.667 36 -69l16 -3h7v1534c0 66 36.333 111.667 109 137l26 1h297v-3h-4c-25.333 -4 -38 -18.333 -38 -43v-1628l-3 -4h-536c-94.667 0 -176.334 44 -245.001 132
c-36 56.667 -54 112 -54 166v1322c0 28 -9.66699 45.667 -29 53l-14 2v3zM524.001 1850c11.333 0 22.6689 -3.16699 34.002 -9.5s20.166 -15 26.499 -26s9.5 -22.833 9.5 -35.5c0 -12 -3 -23.667 -9 -35s-14.667 -20 -26 -26s-23 -9 -35 -9c-12.667 0 -24.5 3 -35.5 9
s-19.667 14.667 -26 26s-9.5 23 -9.5 35c0 12.667 3.16699 24.5 9.5 35.5s15.166 19.667 26.499 26s23 9.5 35 9.5zM331.004 1849c12 0 23.668 -3 35.001 -9s20.166 -14.667 26.499 -26s9.5 -23 9.5 -35s-3.16699 -23.667 -9.5 -35s-15 -20 -26 -26s-22.833 -9 -35.5 -9
c-12 0 -23.667 3 -35 9s-20 14.667 -26 26s-9 23 -9 35s3.16699 23.667 9.5 35s15 20 26 26s22.5 9 34.5 9z" />
    <glyph glyph-name="Yacute" unicode="&#xdd;" horiz-adv-x="1366" 
 />
    <glyph glyph-name="Thorn" unicode="&#xde;" horiz-adv-x="1366" 
 />
    <glyph glyph-name="germandbls" unicode="&#xdf;" horiz-adv-x="1251" 
 />
    <glyph glyph-name="agrave" unicode="&#xe0;" 
d="M346 1673h4c20.667 0 37.334 -11 50.001 -33c3.33301 -7.33301 5 -20.333 5 -39c3.33301 -28 7 -49 11 -63c15.333 -52.667 37.333 -92.334 66 -119.001h-1c-14.667 5.33301 -34 15.333 -58 30c-16.667 10 -38.334 27.667 -65.001 53c-22 24 -38.667 46 -50 66
c-11.333 20.667 -17 35.667 -17 45v6c0 18.667 10 34.334 30 47.001c8 4.66699 16.333 7 25 7zM391 55c0 -17.333 11 -32.333 33 -45l17 -5h8v793h-3c-26.667 0 -45 -15.667 -55 -47v-696zM319 1318h202c123.333 0 216.666 -54 279.999 -162
c25.333 -46.667 38 -94.667 38 -144v-930c0 -38 8.66699 -60.333 26 -67c0 -4 10.333 -7.66699 31 -11v-1l-1 -1h-580l-12 -2c-64.667 0 -128 23.667 -190 71c-74.667 67.333 -112 143.333 -112 228v204c0 75.333 30.333 145 91 209c62.667 60 134 90 214 90h143v512
c-30.667 0 -50 -17 -58 -51v-233l1 -18c0 -52 -22 -99.667 -66 -143c-40 -33.333 -81 -50 -123 -50h-14c-61.333 0 -113.666 30 -156.999 90c-21.333 34.667 -32 69.667 -32 105c-0 54 18.333 110.667 55 170c65.333 89.333 153.333 134 264 134z" />
    <glyph glyph-name="aacute" unicode="&#xe1;" horiz-adv-x="916" 
d="M483 1672l5.00098 0.000976562c21.333 0 39 -10.333 53 -31c6 -10.667 9 -21 9 -31c0 -14.667 -7 -33 -21 -55c-7.33301 -16 -25 -39.667 -53 -71c-32 -30.667 -58.333 -52 -79 -64c-20 -12.667 -40 -23 -60 -31v1c19.333 20 33.666 38.667 42.999 56
c18.667 31.333 32 73.666 40 126.999c1.33301 11.333 2.33301 27.333 3 48c4.66699 17.333 12.667 30.333 24 39c12 8 24 12 36 12zM401.001 55.001c0 -17.333 11 -32.333 33 -45l17 -5h8v793h-3c-26.667 0 -45 -15.667 -55 -47v-696zM329.001 1318h202
c123.333 0 216.666 -54 279.999 -162c25.333 -46.667 38 -94.667 38 -144v-930c0 -38 8.66699 -60.333 26 -67c0 -4 10.333 -7.66699 31 -11v-1l-1 -1h-580l-12 -2c-64.667 0 -128 23.667 -190 71c-74.667 67.333 -112 143.333 -112 228v204c0 75.333 30.333 145 91 209
c62.667 60 134 90 214 90h143v512c-30.667 0 -50 -17 -58 -51v-233l1 -18c0 -52 -22 -99.667 -66 -143c-40 -33.333 -81 -50 -123 -50h-14c-61.333 0 -113.666 30 -156.999 90c-21.333 34.667 -32 69.667 -32 105c0 54 18.333 110.667 55 170
c65.333 89.333 153.333 134 264 134z" />
    <glyph glyph-name="acircumflex" unicode="&#xe2;" 
d="M691 1639c10 -8.66699 15 -13.667 15 -15l-229 -234c-10 8.66699 -14.667 13.667 -14 15zM920 1404c0 -0.666992 -5 -5.66699 -15 -15l-228 235c-0.666992 0.666992 4 5.66699 14 15zM650 55c0 -17.333 11 -32.333 33 -45l17 -5h8v793h-3c-26.667 0 -45 -15.667 -55 -47
v-696zM578 1318h202c123.333 0 216.666 -54 279.999 -162c25.333 -46.667 38 -94.667 38 -144v-930c0 -38 8.66699 -60.333 26 -67c0 -4 10.333 -7.66699 31 -11v-1l-1 -1h-580l-12 -2c-64.667 0 -128 23.667 -190 71c-74.667 67.333 -112 143.333 -112 228v204
c0 75.333 30.333 145 91 209c62.667 60 134 90 214 90h143v512c-30.667 0 -50 -17 -58 -51v-233l1 -18c0 -52 -22 -99.667 -66 -143c-40 -33.333 -81 -50 -123 -50h-14c-61.333 0 -113.666 30 -156.999 90c-21.333 34.667 -32 69.667 -32 105c0 54 18.333 110.667 55 170
c65.333 89.333 153.333 134 264 134z" />
    <glyph glyph-name="atilde" unicode="&#xe3;" 
d="M391 55c0 -17.333 11 -32.333 33 -45l17 -5h8v793h-3c-26.667 0 -45 -15.667 -55 -47v-696zM319 1318h202c123.333 0 216.666 -54 279.999 -162c25.333 -46.667 38 -94.667 38 -144v-930c0 -38 8.66699 -60.333 26 -67c0 -4 10.333 -7.66699 31 -11v-1l-1 -1h-580l-12 -2
c-64.667 0 -128 23.667 -190 71c-74.667 67.333 -112 143.333 -112 228v204c0 75.333 30.333 145 91 209c62.667 60 134 90 214 90h143v512c-30.667 0 -50 -17 -58 -51v-233l1 -18c0 -52 -22 -99.667 -66 -143c-40 -33.333 -81 -50 -123 -50h-14
c-61.333 0 -113.666 30 -156.999 90c-21.333 34.667 -32 69.667 -32 105c-0 54 18.333 110.667 55 170c65.333 89.333 153.333 134 264 134zM729 1563l25.998 0.000976562c-1.33301 -52.667 -16 -93.334 -44 -122.001s-62 -43 -102 -43c-18 0 -37.5 3 -58.5 9
s-75.5 27 -163.5 63c-61.333 25.333 -104.666 38 -129.999 38c-28 0 -51.5 -8.5 -70.5 -25.5s-32.5 -44.833 -40.5 -83.5h-26c2 54 16.5 95.167 43.5 123.5s58.833 42.5 95.5 42.5c17.333 0 35 -3.33301 53 -10c41.333 -11.333 95.833 -31.5 163.5 -60.5
s114.834 -43.5 141.501 -43.5c30 0 55.167 9.66699 75.5 29s32.5 47 36.5 83z" />
    <glyph glyph-name="adieresis" unicode="&#xe4;" horiz-adv-x="905" 
d="M395 55c0 -17.333 11 -32.333 33 -45l17 -5h8v793h-3c-26.667 0 -45 -15.667 -55 -47v-696zM323 1318h202c123.333 0 216.666 -54 279.999 -162c25.333 -46.667 38 -94.667 38 -144v-930c0 -38 8.66699 -60.333 26 -67c0 -4 10.333 -7.66699 31 -11v-1l-1 -1h-580l-12 -2
c-64.667 0 -128 23.667 -190 71c-74.667 67.333 -112 143.333 -112 228v204c0 75.333 30.333 145 91 209c62.667 60 134 90 214 90h143v512c-30.667 0 -50 -17 -58 -51v-233l1 -18c0 -52 -22 -99.667 -66 -143c-40 -33.333 -81 -50 -123 -50h-14
c-61.333 0 -113.666 30 -156.999 90c-21.333 34.667 -32 69.667 -32 105c0 54 18.333 110.667 55 170c65.333 89.333 153.333 134 264 134zM523 1566c12 0 23.6699 -3 35.0029 -9s20.166 -14.667 26.499 -26s9.5 -23 9.5 -35c0 -12.667 -3.16699 -24.5 -9.5 -35.5
s-15 -19.667 -26 -26s-22.833 -9.5 -35.5 -9.5c-12 0 -23.5 3.16699 -34.5 9.5s-19.667 15 -26 26s-9.5 22.833 -9.5 35.5c0 12 3.16699 23.667 9.5 35s15.166 20 26.499 26s22.666 9 33.999 9zM331.003 1566c12 0 23.499 -3 34.499 -9s19.833 -14.667 26.5 -26
s10 -23 10 -35c0 -12.667 -3.16699 -24.5 -9.5 -35.5s-15.166 -19.667 -26.499 -26s-23 -9.5 -35 -9.5s-23.667 3.16699 -35 9.5s-20 15 -26 26s-9 22.833 -9 35.5c0 12 3 23.667 9 35s14.667 20 26 26s23 9 35 9z" />
    <glyph glyph-name="aring" unicode="&#xe5;" horiz-adv-x="905" 
d="M424 1627c60.667 0 102.333 -33.999 125 -101.999l2 -21v-12c0 -46.667 -25.333 -83.334 -76 -110.001c-18 -8 -35.667 -12 -53 -12c-54.667 0 -94.667 29 -120 87l-6 32v11c0 60.667 32.333 101.667 97 123zM320.999 1500l-0.000976562 -4c0 -46.667 26 -79 78 -97
l25 -4c47.333 0 80.333 27.333 99 82l2 19v4c0 46 -25 78.333 -75 97l-30 4c-43.333 0 -75.666 -25.667 -96.999 -77zM390.998 55.001c0 -17.333 11 -32.333 33 -45l17 -5h8v793h-3c-26.667 0 -45 -15.667 -55 -47v-696zM318.998 1318h202
c123.333 0 216.666 -54 279.999 -162c25.333 -46.667 38 -94.667 38 -144v-930c0 -38 8.66699 -60.333 26 -67c0 -4 10.333 -7.66699 31 -11v-1l-1 -1h-580l-12 -2c-64.667 0 -128 23.667 -190 71c-74.667 67.333 -112 143.333 -112 228v204c0 75.333 30.333 145 91 209
c62.667 60 134 90 214 90h143v512c-30.667 0 -50 -17 -58 -51v-233l1 -18c0 -52 -22 -99.667 -66 -143c-40 -33.333 -81 -50 -123 -50h-14c-61.333 0 -113.666 30 -156.999 90c-21.333 34.667 -32 69.667 -32 105c0 54 18.333 110.667 55 170
c65.333 89.333 153.333 134 264 134z" />
    <glyph glyph-name="ae" unicode="&#xe6;" horiz-adv-x="1354" 
d="M391 55c0 -17.333 11 -32.333 33 -45l17 -5h8v793h-3c-26.667 0 -45 -15.667 -55 -47v-696zM319 1318h202c123.333 0 216.666 -54 279.999 -162c25.333 -46.667 38 -94.667 38 -144v-930c0 -38 8.66699 -60.333 26 -67c0 -4 10.333 -7.66699 31 -11v-1l-1 -1h-580l-12 -2
c-64.667 0 -128 23.667 -190 71c-74.667 67.333 -112 143.333 -112 228v204c0 75.333 30.333 145 91 209c62.667 60 134 90 214 90h143v512c-30.667 0 -50 -17 -58 -51v-233l1 -18c0 -52 -22 -99.667 -66 -143c-40 -33.333 -81 -50 -123 -50h-14
c-61.333 0 -113.666 30 -156.999 90c-21.333 34.667 -32 69.667 -32 105c-0 54 18.333 110.667 55 170c65.333 89.333 153.333 134 264 134zM757 1318l222.999 -0.000976562c115.333 0 206 -51.667 272 -155c26.667 -53.333 40 -100 40 -140l-1 -10v-186l1 -5
c0 -43.333 -14.333 -92 -43 -146c-65.333 -100.667 -155.333 -151 -270 -151h-135v-461c0 -28 14.667 -47 44 -57l12 -2h1v284c0 72 30 120.667 90 146c16 6 39.333 9 70 9h271l3 -2c-28.667 -6 -43 -19.333 -43 -40v-96l-1 -5l1 -1c0 -52.667 -17.667 -107.667 -53 -165
c-36 -53.333 -88.667 -93 -158 -119c-33.333 -10 -62.333 -15 -87 -15h-229l-6 -1l-5 1c-94 0 -175 42.333 -243 127c-38 58 -57 114 -57 168v708l-1 6h1l-1 2v1c0 98.667 42.667 181.334 128 248.001c54.667 38 113.334 57 176.001 57zM844.999 1314l-0.999023 -1v-782
l1 -1v-1c25.333 0 43.666 14.667 54.999 44l1 12v670c0 28.667 -15 48 -45 58z" />
    <glyph glyph-name="ccedilla" unicode="&#xe7;" horiz-adv-x="1024" 
d="M304 1317l234.002 0.000976562c74.667 0 144 -29 208 -87c61.333 -66 92 -136 92 -210v-11c0 -64.667 -31.333 -118.334 -94 -161.001c-30.667 -19.333 -63.667 -29 -99 -29h-5c-74.667 0 -133 37.667 -175 113c-11.333 28 -17 54.333 -17 79v21l1 4l-1 7v208l1 6
c0 24.667 -15.333 42.667 -46 54l-13 2l1 -745v-501l-1 -6c0 -24.667 14.667 -42.667 44 -54l11 -2h4v297c0 66 34.333 111.333 103 136c14 4 33.667 6 59 6h228l2 -2l1 2l9 -2h14l5 2l1 -2h2l8 2l1 -2v-1c-18.667 0 -32.334 -10.667 -41.001 -32
c-2 -4.66699 -3 -12.667 -3 -24v-72l1 -6l-1 -5c0 -96 -42.667 -177.667 -128 -245c-30.667 -22 -67.667 -38.333 -111 -49c-16 -3.33301 -35 -6 -57 -8l-1 1l-9 -1h-134l-1 1l-2 -1h-83l-1 1l-4 -1c-98.667 0 -182.334 43.667 -251.001 131
c-36.667 56.667 -55 114.667 -55 174v710c0 99.333 45.333 183 136 251c54 34 109.667 51 167 51zM460.002 5.00098c2.66699 -6.66699 5.99902 -10.666 9.99902 -11.999c0 -1.33301 9.33301 -2.33301 28 -3c16 -3.33301 30 -8 42 -14
c10.667 -4.66699 24.334 -15.334 41.001 -32.001c22.667 -28 34 -57.333 34 -88v-8c0 -34 -13.667 -65.667 -41 -95c-28 -26.667 -60.333 -40 -97 -40h-1c-50.667 0 -91 23.333 -121 70c-12 22 -18 45 -18 69h84c0.666992 0 1.66699 -5.33301 3 -16
c11.333 -25.333 28.666 -38 51.999 -38c24.667 0 42.334 13 53.001 39l2 14v1c0 25.333 -14 43 -42 53c-22 1.33301 -37 3.33301 -45 6c-14 4.66699 -27 13 -39 25c-19.333 20.667 -29 43 -29 67l1 1z" />
    <glyph glyph-name="egrave" unicode="&#xe8;" 
d="M304 1318l222.999 -0.000976562c115.333 0 206 -51.667 272 -155c26.667 -53.333 40 -100 40 -140l-1 -10v-186l1 -5c0 -43.333 -14.333 -92 -43 -146c-65.333 -100.667 -155.333 -151 -270 -151h-135v-461c0 -28 14.667 -47 44 -57l12 -2h1v284c0 72 30 120.667 90 146
c16 6 39.333 9 70 9h271l3 -2c-28.667 -6 -43 -19.333 -43 -40v-96l-1 -5l1 -1c0 -52.667 -17.667 -107.667 -53 -165c-36 -53.333 -88.667 -93 -158 -119c-33.333 -10 -62.333 -15 -87 -15h-229l-6 -1l-5 1c-94 0 -175 42.333 -243 127c-38 58 -57 114 -57 168v708l-1 6h1
l-1 2v1c0 98.667 42.667 181.334 128 248.001c54.667 38 113.334 57 176.001 57zM391.999 1314l-0.999023 -1v-782l1 -1v-1c25.333 0 43.666 14.667 54.999 44l1 12v670c0 28.667 -15 48 -45 58zM343 1609h4c20.667 0 37.334 -11 50.001 -33
c3.33301 -7.33301 5 -20.333 5 -39c3.33301 -28 7 -49 11 -63c15.333 -52.667 37.333 -92.334 66 -119.001h-1c-14.667 5.33301 -34 15.333 -58 30c-16.667 10 -38.334 27.667 -65.001 53c-22 24 -38.667 46 -50 66c-11.333 20.667 -17 35.667 -17 45v6
c0 18.667 10 34.334 30 47.001c8 4.66699 16.333 7 25 7z" />
    <glyph glyph-name="eacute" unicode="&#xe9;" horiz-adv-x="901" 
d="M476 1673l5.00098 0.000976562c21.333 0 39 -10.333 53 -31c6 -10.667 9 -21 9 -31c0 -14.667 -7 -33 -21 -55c-7.33301 -16 -25 -39.667 -53 -71c-32 -30.667 -58.333 -52 -79 -64c-20 -12.667 -40 -23 -60 -31v1c19.333 20 33.666 38.667 42.999 56
c18.667 31.333 32 73.666 40 126.999c1.33301 11.333 2.33301 27.333 3 48c4.66699 17.333 12.667 30.333 24 39c12 8 24 12 36 12zM304.001 1323l235.001 -0.000976562c75.333 0 145 -29 209 -87c62 -66.667 93 -137 93 -211v-11c0 -65.333 -31.667 -119.333 -95 -162
c-30.667 -19.333 -63.667 -29 -99 -29h-5c-75.333 0 -134 37.667 -176 113c-11.333 28 -17 54.667 -17 80v21l1 4l-1 7v209l1 6c0 24.667 -15.333 42.667 -46 54l-13 2l1 -748v-504l-1 -6c0 -24.667 14.667 -42.667 44 -54l11 -2h4v298c0 66.667 34.667 112.334 104 137.001
c14 4 33.667 6 59 6h229l2 -2l1 2l9 -2h14l5 2l1 -2h2l8 2l1 -2v-1c-18.667 0 -32.334 -10.667 -41.001 -32c-2 -4.66699 -3 -12.667 -3 -24v-73l1 -6l-1 -5c0 -96 -43 -178 -129 -246c-30.667 -22 -67.667 -38.333 -111 -49c-16 -3.33301 -35.333 -6 -58 -8l-1 1l-9 -1
h-134l-1 1l-2 -1h-84l-1 1l-4 -1c-98.667 0 -182.667 44 -252 132c-36.667 56.667 -55 114.667 -55 174v714c0 99.333 45.667 183.333 137 252c54 34 109.667 51 167 51z" />
    <glyph glyph-name="ecircumflex" unicode="&#xea;" 
d="M427 1677c11.333 -10.667 17 -16.667 17 -18l-263 -270c-11.333 10.667 -17 16.667 -17 18zM690 1406c0 -0.666992 -5.66699 -6.33301 -17 -17l-263 269c0 1.33301 5.66699 7.33301 17 18zM304 1318l222.999 -0.000976562c115.333 0 206 -51.667 272 -155
c26.667 -53.333 40 -100 40 -140l-1 -10v-186l1 -5c0 -43.333 -14.333 -92 -43 -146c-65.333 -100.667 -155.333 -151 -270 -151h-135v-461c0 -28 14.667 -47 44 -57l12 -2h1v284c0 72 30 120.667 90 146c16 6 39.333 9 70 9h271l3 -2c-28.667 -6 -43 -19.333 -43 -40v-96
l-1 -5l1 -1c0 -52.667 -17.667 -107.667 -53 -165c-36 -53.333 -88.667 -93 -158 -119c-33.333 -10 -62.333 -15 -87 -15h-229l-6 -1l-5 1c-94 0 -175 42.333 -243 127c-38 58 -57 114 -57 168v708l-1 6h1l-1 2v1c0 98.667 42.667 181.334 128 248.001
c54.667 38 113.334 57 176.001 57zM391.999 1314l-0.999023 -1v-782l1 -1v-1c25.333 0 43.666 14.667 54.999 44l1 12v670c0 28.667 -15 48 -45 58z" />
    <glyph glyph-name="edieresis" unicode="&#xeb;" horiz-adv-x="901" 
d="M304 1318l222.999 -0.000976562c115.333 0 206 -51.667 272 -155c26.667 -53.333 40 -100 40 -140l-1 -10v-186l1 -5c0 -43.333 -14.333 -92 -43 -146c-65.333 -100.667 -155.333 -151 -270 -151h-135v-461c0 -28 14.667 -47 44 -57l12 -2h1v284c0 72 30 120.667 90 146
c16 6 39.333 9 70 9h271l3 -2c-28.667 -6 -43 -19.333 -43 -40v-96l-1 -5l1 -1c0 -52.667 -17.667 -107.667 -53 -165c-36 -53.333 -88.667 -93 -158 -119c-33.333 -10 -62.333 -15 -87 -15h-229l-6 -1l-5 1c-94 0 -175 42.333 -243 127c-38 58 -57 114 -57 168v708l-1 6h1
l-1 2v1c0 98.667 42.667 181.334 128 248.001c54.667 38 113.334 57 176.001 57zM391.999 1314l-0.999023 -1v-782l1 -1v-1c25.333 0 43.666 14.667 54.999 44l1 12v670c0 28.667 -15 48 -45 58zM524 1567c11.333 0 22.6689 -3 34.002 -9s20.166 -14.667 26.499 -26
s9.5 -23.333 9.5 -36c0 -12 -3 -23.667 -9 -35s-14.667 -20 -26 -26s-23 -9 -35 -9c-12.667 0 -24.5 3 -35.5 9s-19.667 14.667 -26 26s-9.5 23 -9.5 35c0 12.667 3.16699 24.667 9.5 36s15.166 20 26.499 26s23 9 35 9zM331.003 1566c12 0 23.668 -3 35.001 -9
s20.166 -14.667 26.499 -26s9.5 -23 9.5 -35s-3.16699 -23.667 -9.5 -35s-15 -20 -26 -26s-22.833 -9 -35.5 -9c-12 0 -23.667 3 -35 9s-20 14.667 -26 26s-9 23 -9 35s3.16699 23.667 9.5 35s15 20 26 26s22.5 9 34.5 9z" />
    <glyph glyph-name="igrave" unicode="&#xec;" horiz-adv-x="569" 
d="M468 1564l2 -2c0 -66 -28.667 -124.333 -86 -175c-47.333 -32.667 -91.333 -49 -132 -49l-9 1h-13c-30 0 -63 9.66699 -99 29c-76 49.333 -114 113 -114 191c0 3.33301 1 5 3 5h448zM0 1322h271.998c74 0 123.667 -28.333 149 -85c7.33301 -20 11 -38.667 11 -56v-1115
c0 -30 16.333 -49 49 -57c7.33301 -1.33301 11 -3 11 -5l-2 -1h-53l-1 1l-2 -1h-91l-6 1l-2 -1c-56 6.66699 -97.333 17.667 -124 33c-77.333 40.667 -129.666 102.667 -156.999 186c-8 32 -12 62.333 -12 91v960c-3.33301 29.333 -15.666 44 -36.999 44h-5v5zM197.998 1848
c10.667 -26.667 24.668 -53 42.001 -79c11.333 -16.667 29.333 -38 54 -64c24 -22.667 40 -36.667 48 -42v-1l-56 -79c-86.667 67.333 -146.334 145 -179.001 233z" />
    <glyph glyph-name="iacute" unicode="&#xed;" horiz-adv-x="569" 
d="M403 1565c2 0 3 -1.66699 3 -5c0 -78 -38 -141.667 -114 -191c-36 -19.333 -69 -29 -99 -29h-13l-9 -1c-40.667 0 -84.667 16.333 -132 49c-57.333 50.667 -86 109 -86 175l2 2h448zM-45 1322h271.998c74 0 123.667 -28.333 149 -85c7.33301 -20 11 -38.667 11 -56v-1115
c0 -30 16.333 -49 49 -57c7.33301 -1.33301 11 -3 11 -5l-2 -1h-53l-1 1l-2 -1h-91l-6 1l-2 -1c-56 6.66699 -97.333 17.667 -124 33c-77.333 40.667 -129.666 102.667 -156.999 186c-8 32 -12 62.333 -12 91v960c-3.33301 29.333 -15.666 44 -36.999 44h-5v5zM319.998 1816
c-32 -88 -91.667 -165.334 -179 -232.001l-56 78v2c8.66699 4.66699 25 18.334 49 41.001c24 26.667 41.667 48 53 64c18 26 32 52.333 42 79z" />
    <glyph glyph-name="icircumflex" unicode="&#xee;" horiz-adv-x="480" 
d="M440 1565l2 -2c0 -66 -28.667 -124.333 -86 -175c-47.333 -32.667 -91.333 -49 -132 -49l-9 1h-13c-30 0 -63 9.66699 -99 29c-76 49.333 -114 113 -114 191c0 3.33301 1 5 3 5h448zM440 1317h-5.00195c-21.333 0 -33.666 -14.667 -36.999 -44v-960
c0 -28.667 -4 -59 -12 -91c-27.333 -83.333 -79.666 -145.333 -156.999 -186c-26.667 -15.333 -68 -26.333 -124 -33l-2 1l-6 -1h-91l-2 1l-1 -1h-53l-2 1c0 2 3.66699 3.66699 11 5c32.667 8 49 27 49 57v1115c0 17.333 3.66699 36 11 56c25.333 56.667 75 85 149 85h272
v-5zM207.998 1824c8.66699 -8.66699 13 -13.333 13 -14l-209 -216c-8.66699 8.66699 -13 13.667 -13 15zM416.998 1608l-13 -14l-210 215c0 1.33301 4.66699 6 14 14z" />
    <glyph glyph-name="idieresis" unicode="&#xef;" horiz-adv-x="507" 
d="M618 1565c1.33301 0 1.99902 -0.666992 1.99902 -2c0 -60 -24.333 -114 -73 -162c-45.333 -39.333 -96 -59 -152 -59c-55.333 0 -105.666 19.333 -150.999 58c-44 -38.667 -94.333 -58 -151 -58c-56 0 -106.667 20 -152 60c-48.667 48 -73 102.333 -73 163h750z
M300.999 1323c70 0 117.334 -28.666 142.001 -85.999c7.33301 -14.667 11 -36 11 -64v-1113c0 -24.667 13.667 -42.667 41 -54c12 -2 18 -3.33301 18 -4l-1 -1h-1l-132 -1c-120 0 -212 52.333 -276 157c-26.667 46.667 -40 98.667 -40 156v961c0 20.667 -8.33301 35 -25 43
c-2.66699 1.33301 -8.33398 2.66602 -17.001 3.99902v1l1 1h279z" />
    <glyph glyph-name="eth" unicode="&#xf0;" 
 />
    <glyph glyph-name="ntilde" unicode="&#xf1;" horiz-adv-x="896" 
d="M529 1313l6.99902 1c71.333 0 138 -25.333 200 -76c69.333 -66 104 -140.667 104 -224v-969c0 -19.333 10.667 -32.666 32 -39.999c8 -0.666992 12 -1.66699 12 -3l-2 -1h-291c-60.667 0 -105 30.667 -133 92c-5.33301 16.667 -8 39 -8 67v474l1 623
c0 20 -13 36.333 -39 49l-13 3h-5l-1 -1266v-41l-2 -2h-299l-144 1l-2 1v1c18.667 3.33301 32.334 8.66602 41.001 15.999c11.333 12.667 17 26 17 40v517l1 683c0 20 -12.333 35.667 -37 47c-13.333 2.66699 -20 4.66699 -20 6l1 1h580zM702.999 1563l25.998 0.000976562
c-1.33301 -52.667 -16 -93.334 -44 -122.001s-62 -43 -102 -43c-18 0 -37.5 3 -58.5 9s-75.5 27 -163.5 63c-61.333 25.333 -104.666 38 -129.999 38c-28 0 -51.5 -8.5 -70.5 -25.5s-32.5 -44.833 -40.5 -83.5h-26c2 54 16.5 95.167 43.5 123.5s58.833 42.5 95.5 42.5
c17.333 0 35 -3.33301 53 -10c41.333 -11.333 95.833 -31.5 163.5 -60.5s114.834 -43.5 141.501 -43.5c30 0 55.167 9.66699 75.5 29s32.5 47 36.5 83z" />
    <glyph glyph-name="ograve" unicode="&#xf2;" horiz-adv-x="900" 
d="M375 1626h4c20.667 0 37.334 -11 50.001 -33c3.33301 -7.33301 5 -20.333 5 -39c3.33301 -28 7 -49 11 -63c15.333 -52.667 37.333 -92.334 66 -119.001h-1c-14.667 5.33301 -34 15.333 -58 30c-16.667 10 -38.334 27.667 -65.001 53c-22 24 -38.667 46 -50 66
c-11.333 20.667 -17 35.667 -17 45v6c0 18.667 10 34.334 30 47.001c8 4.66699 16.333 7 25 7zM295 1317h237c88.667 0 167 -38.333 235 -115c44.667 -57.333 67 -125.666 67 -204.999v-688c0 -104 -44.667 -189 -134 -255c-53.333 -36 -113.333 -54 -180 -54h-77l-2 1
l-1 -1h-1l-1 1l-1 -1h-48l-2 1l-1 -1h-96l-1 1l-1 -1c-29.333 0 -66.666 9 -111.999 27c-31.333 13.333 -63.333 36 -96 68c-56.667 63.333 -85 131.666 -85 204.999v724c0 68 28.667 134.667 86 200c65.333 62 136.666 93 213.999 93zM385 1251v-1246
c25.333 0 43.333 12.333 54 37l5 21l-1 12v1236l-2 1v1c-23.333 0 -41.333 -13.667 -54 -41z" />
    <glyph glyph-name="oacute" unicode="&#xf3;" 
d="M300 1317h237c88.667 0 167 -38.333 235 -115c44.667 -57.333 67 -125.666 67 -204.999v-688c0 -104 -44.667 -189 -134 -255c-53.333 -36 -113.333 -54 -180 -54h-77l-2 1l-1 -1h-1l-1 1l-1 -1h-48l-2 1l-1 -1h-96l-1 1l-1 -1c-29.333 0 -66.666 9 -111.999 27
c-31.333 13.333 -63.333 36 -96 68c-56.667 63.333 -85 131.666 -85 204.999v724c0 68 28.667 134.667 86 200c65.333 62 136.666 93 213.999 93zM390 1251v-1246c25.333 0 43.333 12.333 54 37l5 21l-1 12v1236l-2 1v1c-23.333 0 -41.333 -13.667 -54 -41zM504 1632
l5.00098 0.000976562c21.333 0 39 -10.333 53 -31c6 -10.667 9 -21 9 -31c0 -14.667 -7 -33 -21 -55c-7.33301 -16 -25 -39.667 -53 -71c-32 -30.667 -58.333 -52 -79 -64c-20 -12.667 -40 -23 -60 -31v1c19.333 20 33.666 38.667 42.999 56
c18.667 31.333 32 73.666 40 126.999c1.33301 11.333 2.33301 27.333 3 48c4.66699 17.333 12.667 30.333 24 39c12 8 24 12 36 12z" />
    <glyph glyph-name="ocircumflex" unicode="&#xf4;" horiz-adv-x="905" 
d="M300 1317h237c88.667 0 167 -38.333 235 -115c44.667 -57.333 67 -125.666 67 -204.999v-688c0 -104 -44.667 -189 -134 -255c-53.333 -36 -113.333 -54 -180 -54h-77l-2 1l-1 -1h-1l-1 1l-1 -1h-48l-2 1l-1 -1h-96l-1 1l-1 -1c-29.333 0 -66.666 9 -111.999 27
c-31.333 13.333 -63.333 36 -96 68c-56.667 63.333 -85 131.666 -85 204.999v724c0 68 28.667 134.667 86 200c65.333 62 136.666 93 213.999 93zM390 1251v-1246c25.333 0 43.333 12.333 54 37l5 21l-1 12v1236l-2 1v1c-23.333 0 -41.333 -13.667 -54 -41zM433 1638
c11.333 -10.667 17 -16.667 17 -18l-263 -270c-11.333 10.667 -17 16.667 -17 18zM696 1367c0 -0.666992 -5.66699 -6.33301 -17 -17l-263 269c0 1.33301 5.66699 7.33301 17 18z" />
    <glyph glyph-name="otilde" unicode="&#xf5;" horiz-adv-x="908" 
d="M300 1317h237c88.667 0 167 -38.333 235 -115c44.667 -57.333 67 -125.666 67 -204.999v-688c0 -104 -44.667 -189 -134 -255c-53.333 -36 -113.333 -54 -180 -54h-77l-2 1l-1 -1h-1l-1 1l-1 -1h-48l-2 1l-1 -1h-96l-1 1l-1 -1c-29.333 0 -66.666 9 -111.999 27
c-31.333 13.333 -63.333 36 -96 68c-56.667 63.333 -85 131.666 -85 204.999v724c0 68 28.667 134.667 86 200c65.333 62 136.666 93 213.999 93zM390 1251v-1246c25.333 0 43.333 12.333 54 37l5 21l-1 12v1236l-2 1v1c-23.333 0 -41.333 -13.667 -54 -41zM628 1563h17.002
c-1.33301 -34 -11.166 -60.5 -29.499 -79.5s-40.5 -28.5 -66.5 -28.5c-12 0 -25 2 -39 6s-49.667 17.667 -107 41c-40.667 16.667 -69.334 25 -86.001 25c-18 0 -33.333 -5.5 -46 -16.5s-21.667 -29.167 -27 -54.5h-17c1.33301 35.333 10.833 62.333 28.5 81
s38.5 28 62.5 28c12 0 24 -2 36 -6c26.667 -8 62.167 -21.5 106.5 -40.5s75.5 -28.5 93.5 -28.5c19.333 0 35.666 6.33301 48.999 19s21.666 30.667 24.999 54z" />
    <glyph glyph-name="odieresis" unicode="&#xf6;" horiz-adv-x="905" 
d="M300 1317h237c88.667 0 167 -38.333 235 -115c44.667 -57.333 67 -125.666 67 -204.999v-688c0 -104 -44.667 -189 -134 -255c-53.333 -36 -113.333 -54 -180 -54h-77l-2 1l-1 -1h-1l-1 1l-1 -1h-48l-2 1l-1 -1h-96l-1 1l-1 -1c-29.333 0 -66.666 9 -111.999 27
c-31.333 13.333 -63.333 36 -96 68c-56.667 63.333 -85 131.666 -85 204.999v724c0 68 28.667 134.667 86 200c65.333 62 136.666 93 213.999 93zM390 1251v-1246c25.333 0 43.333 12.333 54 37l5 21l-1 12v1236l-2 1v1c-23.333 0 -41.333 -13.667 -54 -41zM283 1565h5
c30.667 0 56.334 -14.333 77.001 -43c9.33301 -16 14 -32 14 -48v-5c0 -30 -14.333 -55.667 -43 -77c-16.667 -9.33301 -32.667 -14 -48 -14h-3c-32.667 0 -59.334 15 -80.001 45c-8.66699 16 -13 31.667 -13 47v3c0 31.333 14.667 57.333 44 78c15.333 9.33301 31 14 47 14
zM570 1566h6c26.667 0 50.667 -12.667 72 -38c12 -17.333 18 -36 18 -56c0 -28 -11 -51.667 -33 -71c-17.333 -15.333 -37.333 -23 -60 -23h-3c-28.667 0 -53.667 13.667 -75 41c-10.667 18 -16 34.333 -16 49v8c0 14.667 5.33301 31 16 49c20.667 27.333 45.667 41 75 41z
" />
    <glyph glyph-name="divide" unicode="&#xf7;" horiz-adv-x="1124" 
 />
    <glyph glyph-name="oslash" unicode="&#xf8;" horiz-adv-x="1251" 
 />
    <glyph glyph-name="ugrave" unicode="&#xf9;" horiz-adv-x="899" 
d="M234 1314c60 0 102.333 -16.667 127 -50c22.667 -25.333 34 -55 34 -89v-1112c0 -30.667 17.333 -50 52 -58h6v1172c0 58 31 101.333 93 130c17.333 5.33301 41 8 71 8h265l3 -3c-28.667 -6.66699 -43 -19.667 -43 -39v-1214c0 -25.333 15.333 -43.333 46 -54
c8 0 12 -1 12 -3l-3 -2h-233l-352 1l-5 -1c-65.333 0 -129 23.667 -191 71c-74 64.667 -111 146 -111 244v957c0 16.667 -11.333 29 -34 37c-6 0 -9 1 -9 3l2 2h270zM391 1630h4c20.667 0 37.334 -11 50.001 -33c3.33301 -7.33301 5 -20.333 5 -39c3.33301 -28 7 -49 11 -63
c15.333 -52.667 37.333 -92.334 66 -119.001h-1c-14.667 5.33301 -34 15.333 -58 30c-16.667 10 -38.334 27.667 -65.001 53c-22 24 -38.667 46 -50 66c-11.333 20.667 -17 35.667 -17 45v6c0 18.667 10 34.334 30 47.001c8 4.66699 16.333 7 25 7z" />
    <glyph glyph-name="uacute" unicode="&#xfa;" horiz-adv-x="898" 
d="M230 1314c60 0 102.333 -16.667 127 -50c22.667 -25.333 34 -55 34 -89v-1112c0 -30.667 17.333 -50 52 -58h6v1172c0 58 31 101.333 93 130c17.333 5.33301 41 8 71 8h265l3 -3c-28.667 -6.66699 -43 -19.667 -43 -39v-1214c0 -25.333 15.333 -43.333 46 -54
c8 0 12 -1 12 -3l-3 -2h-233l-352 1l-5 -1c-65.333 0 -129 23.667 -191 71c-74 64.667 -111 146 -111 244v957c0 16.667 -11.333 29 -34 37c-6 0 -9 1 -9 3l2 2h270zM481 1632l5.00098 0.000976562c21.333 0 39 -10.333 53 -31c6 -10.667 9 -21 9 -31
c0 -14.667 -7 -33 -21 -55c-7.33301 -16 -25 -39.667 -53 -71c-32 -30.667 -58.333 -52 -79 -64c-20 -12.667 -40 -23 -60 -31v1c19.333 20 33.666 38.667 42.999 56c18.667 31.333 32 73.666 40 126.999c1.33301 11.333 2.33301 27.333 3 48
c4.66699 17.333 12.667 30.333 24 39c12 8 24 12 36 12z" />
    <glyph glyph-name="ucircumflex" unicode="&#xfb;" horiz-adv-x="899" 
d="M234 1314c60 0 102.333 -16.667 127 -50c22.667 -25.333 34 -55 34 -89v-1112c0 -30.667 17.333 -50 52 -58h6v1172c0 58 31 101.333 93 130c17.333 5.33301 41 8 71 8h265l3 -3c-28.667 -6.66699 -43 -19.667 -43 -39v-1214c0 -25.333 15.333 -43.333 46 -54
c8 0 12 -1 12 -3l-3 -2h-233l-352 1l-5 -1c-65.333 0 -129 23.667 -191 71c-74 64.667 -111 146 -111 244v957c0 16.667 -11.333 29 -34 37c-6 0 -9 1 -9 3l2 2h270zM427 1634c11.333 -10.667 17 -16.667 17 -18l-263 -270c-11.333 10.667 -17 16.667 -17 18zM690 1363
c0 -0.666992 -5.66699 -6.33301 -17 -17l-263 269c0 1.33301 5.66699 7.33301 17 18z" />
    <glyph glyph-name="udieresis" unicode="&#xfc;" horiz-adv-x="909" 
d="M234 1314c60 0 102.333 -16.667 127 -50c22.667 -25.333 34 -55 34 -89v-1112c0 -30.667 17.333 -50 52 -58h6v1172c0 58 31 101.333 93 130c17.333 5.33301 41 8 71 8h265l3 -3c-28.667 -6.66699 -43 -19.667 -43 -39v-1214c0 -25.333 15.333 -43.333 46 -54
c8 0 12 -1 12 -3l-3 -2h-233l-352 1l-5 -1c-65.333 0 -129 23.667 -191 71c-74 64.667 -111 146 -111 244v957c0 16.667 -11.333 29 -34 37c-6 0 -9 1 -9 3l2 2h270zM271 1564h5c30.667 0 56.334 -14.333 77.001 -43c9.33301 -16 14 -32 14 -48v-5
c0 -30 -14.333 -55.667 -43 -77c-16.667 -9.33301 -32.667 -14 -48 -14h-3c-32.667 0 -59.334 15 -80.001 45c-8.66699 16 -13 31.667 -13 47v3c0 31.333 14.667 57.333 44 78c15.333 9.33301 31 14 47 14zM558 1565h6c26.667 0 50.667 -12.667 72 -38
c12 -17.333 18 -36 18 -56c0 -28 -11 -51.667 -33 -71c-17.333 -15.333 -37.333 -23 -60 -23h-3c-28.667 0 -53.667 13.667 -75 41c-10.667 18 -16 34.333 -16 49v8c0 14.667 5.33301 31 16 49c20.667 27.333 45.667 41 75 41z" />
    <glyph glyph-name="yacute" unicode="&#xfd;" horiz-adv-x="1024" 
 />
    <glyph glyph-name="thorn" unicode="&#xfe;" 
 />
    <glyph glyph-name="ydieresis" unicode="&#xff;" horiz-adv-x="1024" 
 />
    <glyph glyph-name="Amacron" unicode="&#x100;" horiz-adv-x="1366" 
 />
    <glyph glyph-name="amacron" unicode="&#x101;" 
 />
    <glyph glyph-name="Abreve" unicode="&#x102;" horiz-adv-x="1366" 
 />
    <glyph glyph-name="abreve" unicode="&#x103;" 
 />
    <glyph glyph-name="Aogonek" unicode="&#x104;" horiz-adv-x="1366" 
 />
    <glyph glyph-name="aogonek" unicode="&#x105;" 
 />
    <glyph glyph-name="Cacute" unicode="&#x106;" horiz-adv-x="1479" 
 />
    <glyph glyph-name="cacute" unicode="&#x107;" horiz-adv-x="1024" 
 />
    <glyph glyph-name="Ccircumflex" unicode="&#x108;" horiz-adv-x="1479" 
 />
    <glyph glyph-name="ccircumflex" unicode="&#x109;" horiz-adv-x="1024" 
 />
    <glyph glyph-name="Cdotaccent" unicode="&#x10a;" horiz-adv-x="1479" 
 />
    <glyph glyph-name="cdotaccent" unicode="&#x10b;" horiz-adv-x="1024" 
 />
    <glyph glyph-name="Ccaron" unicode="&#x10c;" horiz-adv-x="1479" 
 />
    <glyph glyph-name="ccaron" unicode="&#x10d;" horiz-adv-x="1024" 
 />
    <glyph glyph-name="Dcaron" unicode="&#x10e;" horiz-adv-x="1479" 
 />
    <glyph glyph-name="dcaron" unicode="&#x10f;" horiz-adv-x="1259" 
 />
    <glyph glyph-name="Dcroat" unicode="&#x110;" horiz-adv-x="1479" 
 />
    <glyph glyph-name="dcroat" unicode="&#x111;" 
 />
    <glyph glyph-name="Emacron" unicode="&#x112;" horiz-adv-x="1366" 
 />
    <glyph glyph-name="emacron" unicode="&#x113;" 
 />
    <glyph glyph-name="Ebreve" unicode="&#x114;" horiz-adv-x="1366" 
 />
    <glyph glyph-name="ebreve" unicode="&#x115;" 
 />
    <glyph glyph-name="Edotaccent" unicode="&#x116;" horiz-adv-x="1366" 
 />
    <glyph glyph-name="edotaccent" unicode="&#x117;" 
 />
    <glyph glyph-name="Eogonek" unicode="&#x118;" horiz-adv-x="1366" 
 />
    <glyph glyph-name="eogonek" unicode="&#x119;" 
 />
    <glyph glyph-name="Ecaron" unicode="&#x11a;" horiz-adv-x="1366" 
 />
    <glyph glyph-name="ecaron" unicode="&#x11b;" 
 />
    <glyph glyph-name="Gcircumflex" unicode="&#x11c;" horiz-adv-x="1593" 
 />
    <glyph glyph-name="gcircumflex" unicode="&#x11d;" 
 />
    <glyph glyph-name="Gbreve" unicode="&#x11e;" horiz-adv-x="1593" 
 />
    <glyph glyph-name="gbreve" unicode="&#x11f;" 
 />
    <glyph glyph-name="Gdotaccent" unicode="&#x120;" horiz-adv-x="1593" 
 />
    <glyph glyph-name="gdotaccent" unicode="&#x121;" 
 />
    <glyph glyph-name="Gcommaaccent" unicode="&#x122;" horiz-adv-x="1593" 
 />
    <glyph glyph-name="gcommaaccent" unicode="&#x123;" 
 />
    <glyph glyph-name="Hcircumflex" unicode="&#x124;" horiz-adv-x="1479" 
 />
    <glyph glyph-name="hcircumflex" unicode="&#x125;" 
 />
    <glyph glyph-name="Hbar" unicode="&#x126;" horiz-adv-x="1479" 
 />
    <glyph glyph-name="hbar" unicode="&#x127;" 
 />
    <glyph glyph-name="Itilde" unicode="&#x128;" horiz-adv-x="569" 
 />
    <glyph glyph-name="itilde" unicode="&#x129;" horiz-adv-x="569" 
 />
    <glyph glyph-name="Imacron" unicode="&#x12a;" horiz-adv-x="569" 
 />
    <glyph glyph-name="imacron" unicode="&#x12b;" horiz-adv-x="569" 
 />
    <glyph glyph-name="Ibreve" unicode="&#x12c;" horiz-adv-x="569" 
 />
    <glyph glyph-name="ibreve" unicode="&#x12d;" horiz-adv-x="569" 
 />
    <glyph glyph-name="Iogonek" unicode="&#x12e;" horiz-adv-x="569" 
 />
    <glyph glyph-name="iogonek" unicode="&#x12f;" horiz-adv-x="455" 
 />
    <glyph glyph-name="Idotaccent" unicode="&#x130;" horiz-adv-x="569" 
 />
    <glyph glyph-name="dotlessi" unicode="&#x131;" horiz-adv-x="569" 
 />
    <glyph glyph-name="IJ" unicode="&#x132;" horiz-adv-x="1505" 
 />
    <glyph glyph-name="ij" unicode="&#x133;" horiz-adv-x="909" 
 />
    <glyph glyph-name="Jcircumflex" unicode="&#x134;" horiz-adv-x="1024" 
 />
    <glyph glyph-name="jcircumflex" unicode="&#x135;" horiz-adv-x="455" 
 />
    <glyph glyph-name="Kcommaaccent" unicode="&#x136;" horiz-adv-x="1366" 
 />
    <glyph glyph-name="kcommaaccent" unicode="&#x137;" horiz-adv-x="1024" 
 />
    <glyph glyph-name="kgreenlandic" unicode="&#x138;" horiz-adv-x="1024" 
 />
    <glyph glyph-name="Lacute" unicode="&#x139;" 
 />
    <glyph glyph-name="lacute" unicode="&#x13a;" horiz-adv-x="455" 
 />
    <glyph glyph-name="Lcommaaccent" unicode="&#x13b;" 
 />
    <glyph glyph-name="lcommaaccent" unicode="&#x13c;" horiz-adv-x="455" 
 />
    <glyph glyph-name="Lcaron" unicode="&#x13d;" 
 />
    <glyph glyph-name="lcaron" unicode="&#x13e;" horiz-adv-x="597" 
 />
    <glyph glyph-name="Ldot" unicode="&#x13f;" 
 />
    <glyph glyph-name="ldot" unicode="&#x140;" horiz-adv-x="684" 
 />
    <glyph glyph-name="Lslash" unicode="&#x141;" 
 />
    <glyph glyph-name="lslash" unicode="&#x142;" horiz-adv-x="455" 
 />
    <glyph glyph-name="Nacute" unicode="&#x143;" horiz-adv-x="1479" 
 />
    <glyph glyph-name="nacute" unicode="&#x144;" 
 />
    <glyph glyph-name="Ncommaaccent" unicode="&#x145;" horiz-adv-x="1479" 
 />
    <glyph glyph-name="ncommaaccent" unicode="&#x146;" 
 />
    <glyph glyph-name="Ncaron" unicode="&#x147;" horiz-adv-x="1479" 
 />
    <glyph glyph-name="ncaron" unicode="&#x148;" 
 />
    <glyph glyph-name="napostrophe" unicode="&#x149;" horiz-adv-x="1237" 
 />
    <glyph glyph-name="Eng" unicode="&#x14a;" horiz-adv-x="1481" 
 />
    <glyph glyph-name="eng" unicode="&#x14b;" 
 />
    <glyph glyph-name="Omacron" unicode="&#x14c;" horiz-adv-x="1593" 
 />
    <glyph glyph-name="omacron" unicode="&#x14d;" 
 />
    <glyph glyph-name="Obreve" unicode="&#x14e;" horiz-adv-x="1593" 
 />
    <glyph glyph-name="obreve" unicode="&#x14f;" 
 />
    <glyph glyph-name="Ohungarumlaut" unicode="&#x150;" horiz-adv-x="1593" 
 />
    <glyph glyph-name="ohungarumlaut" unicode="&#x151;" 
 />
    <glyph glyph-name="OE" unicode="&#x152;" horiz-adv-x="2048" 
 />
    <glyph glyph-name="oe" unicode="&#x153;" horiz-adv-x="1933" 
 />
    <glyph glyph-name="Racute" unicode="&#x154;" horiz-adv-x="1479" 
 />
    <glyph glyph-name="racute" unicode="&#x155;" horiz-adv-x="682" 
 />
    <glyph glyph-name="Rcommaaccent" unicode="&#x156;" horiz-adv-x="1479" 
 />
    <glyph glyph-name="rcommaaccent" unicode="&#x157;" horiz-adv-x="682" 
 />
    <glyph glyph-name="Rcaron" unicode="&#x158;" horiz-adv-x="1479" 
 />
    <glyph glyph-name="rcaron" unicode="&#x159;" horiz-adv-x="682" 
 />
    <glyph glyph-name="Sacute" unicode="&#x15a;" horiz-adv-x="1366" 
 />
    <glyph glyph-name="sacute" unicode="&#x15b;" horiz-adv-x="1024" 
 />
    <glyph glyph-name="Scircumflex" unicode="&#x15c;" horiz-adv-x="1366" 
 />
    <glyph glyph-name="scircumflex" unicode="&#x15d;" horiz-adv-x="1024" 
 />
    <glyph glyph-name="Scedilla" unicode="&#x15e;" horiz-adv-x="1366" 
 />
    <glyph glyph-name="scedilla" unicode="&#x15f;" horiz-adv-x="1024" 
 />
    <glyph glyph-name="Scaron" unicode="&#x160;" horiz-adv-x="1366" 
 />
    <glyph glyph-name="scaron" unicode="&#x161;" horiz-adv-x="1024" 
 />
    <glyph glyph-name="Tcommaaccent" unicode="&#x162;" horiz-adv-x="1251" 
 />
    <glyph glyph-name="tcommaaccent" unicode="&#x163;" horiz-adv-x="569" 
 />
    <glyph glyph-name="Tcaron" unicode="&#x164;" horiz-adv-x="1251" 
 />
    <glyph glyph-name="tcaron" unicode="&#x165;" horiz-adv-x="768" 
 />
    <glyph glyph-name="Tbar" unicode="&#x166;" horiz-adv-x="1251" 
 />
    <glyph glyph-name="tbar" unicode="&#x167;" horiz-adv-x="569" 
 />
    <glyph glyph-name="Utilde" unicode="&#x168;" horiz-adv-x="1479" 
 />
    <glyph glyph-name="utilde" unicode="&#x169;" 
 />
    <glyph glyph-name="Umacron" unicode="&#x16a;" horiz-adv-x="1479" 
 />
    <glyph glyph-name="umacron" unicode="&#x16b;" 
 />
    <glyph glyph-name="Ubreve" unicode="&#x16c;" horiz-adv-x="1479" 
 />
    <glyph glyph-name="ubreve" unicode="&#x16d;" 
 />
    <glyph glyph-name="Uring" unicode="&#x16e;" horiz-adv-x="1479" 
 />
    <glyph glyph-name="uring" unicode="&#x16f;" 
 />
    <glyph glyph-name="Uhungarumlaut" unicode="&#x170;" horiz-adv-x="1479" 
 />
    <glyph glyph-name="uhungarumlaut" unicode="&#x171;" 
 />
    <glyph glyph-name="Uogonek" unicode="&#x172;" horiz-adv-x="1479" 
 />
    <glyph glyph-name="uogonek" unicode="&#x173;" 
 />
    <glyph glyph-name="Wcircumflex" unicode="&#x174;" horiz-adv-x="1933" 
 />
    <glyph glyph-name="wcircumflex" unicode="&#x175;" horiz-adv-x="1479" 
 />
    <glyph glyph-name="Ycircumflex" unicode="&#x176;" horiz-adv-x="1366" 
 />
    <glyph glyph-name="ycircumflex" unicode="&#x177;" horiz-adv-x="1024" 
 />
    <glyph glyph-name="Ydieresis" unicode="&#x178;" horiz-adv-x="1366" 
 />
    <glyph glyph-name="Zacute" unicode="&#x179;" horiz-adv-x="1251" 
 />
    <glyph glyph-name="zacute" unicode="&#x17a;" horiz-adv-x="1024" 
 />
    <glyph glyph-name="Zdotaccent" unicode="&#x17b;" horiz-adv-x="1251" 
 />
    <glyph glyph-name="zdotaccent" unicode="&#x17c;" horiz-adv-x="1024" 
 />
    <glyph glyph-name="Zcaron" unicode="&#x17d;" horiz-adv-x="1251" 
 />
    <glyph glyph-name="zcaron" unicode="&#x17e;" horiz-adv-x="1024" 
 />
    <glyph glyph-name="longs" unicode="&#x17f;" horiz-adv-x="455" 
 />
    <glyph glyph-name="florin" unicode="&#x192;" 
 />
    <glyph glyph-name="Aringacute" unicode="&#x1fa;" horiz-adv-x="1366" 
 />
    <glyph glyph-name="aringacute" unicode="&#x1fb;" 
 />
    <glyph glyph-name="AEacute" unicode="&#x1fc;" horiz-adv-x="2048" 
 />
    <glyph glyph-name="aeacute" unicode="&#x1fd;" horiz-adv-x="1821" 
 />
    <glyph glyph-name="Oslashacute" unicode="&#x1fe;" horiz-adv-x="1593" 
 />
    <glyph glyph-name="oslashacute" unicode="&#x1ff;" horiz-adv-x="1251" 
 />
    <glyph glyph-name="circumflex" unicode="&#x2c6;" horiz-adv-x="567" 
d="M283 1639c10 -8.66699 15 -13.667 15 -15l-229 -234c-9.33301 8 -14 13 -14 15zM512 1404c0 -0.666992 -5 -5.66699 -15 -15l-228 235c-0.666992 0.666992 4 5.66699 14 15z" />
    <glyph glyph-name="caron" unicode="&#x2c7;" horiz-adv-x="682" 
 />
    <glyph glyph-name="uni02C9" unicode="&#x2c9;" horiz-adv-x="664" 
d="M663 1433h-661v26h661v-26z" />
    <glyph glyph-name="breve" unicode="&#x2d8;" horiz-adv-x="477" 
d="M102 1830l2 -1c0 -42 17.667 -77.667 53 -107c25.333 -19.333 53.333 -29 84 -29c42 0 78 17.667 108 53c12 14.667 21 35.667 27 63c0.666992 14 1.33398 21 2.00098 21h20l1 -1c0 -46 -18.667 -86 -56 -120c-30.667 -25.333 -65 -38 -103 -38
c-50.667 0 -93.334 22 -128.001 66c-19.333 28.667 -29 58.667 -29 90v3h19z" />
    <glyph glyph-name="dotaccent" unicode="&#x2d9;" horiz-adv-x="682" 
 />
    <glyph glyph-name="ring" unicode="&#x2da;" horiz-adv-x="468" 
d="M235 1859c42 0 70.667 -23.333 86 -70l2 -14v-9c0 -32 -17.667 -57 -53 -75c-12 -6 -24 -9 -36 -9c-38 0 -65.667 20 -83 60l-4 22v8c0 42 22.333 70.333 67 85zM164 1772l-0.000976562 -2.99902c0 -32 18 -54.333 54 -67l17 -2c32.667 0 55.334 18.667 68.001 56l2 13v3
c0 31.333 -17.333 53.666 -52 66.999l-21 2c-29.333 0 -51.333 -17.667 -66 -53z" />
    <glyph glyph-name="ogonek" unicode="&#x2db;" horiz-adv-x="682" 
 />
    <glyph glyph-name="tilde" unicode="&#x2dc;" horiz-adv-x="1196" 
d="M751 1673h17.002c-1.33301 -34 -11.166 -60.5 -29.499 -79.5s-40.5 -28.5 -66.5 -28.5c-12 0 -25 2 -39 6s-49.667 17.667 -107 41c-40.667 16.667 -69.334 25 -86.001 25c-18 0 -33.333 -5.5 -46 -16.5s-21.667 -29.167 -27 -54.5h-17
c1.33301 35.333 10.833 62.333 28.5 81s38.5 28 62.5 28c12 0 24 -2 36 -6c26.667 -8 62.167 -21.5 106.5 -40.5s75.5 -28.5 93.5 -28.5c19.333 0 35.666 6.33301 48.999 19s21.666 30.667 24.999 54z" />
    <glyph glyph-name="hungarumlaut" unicode="&#x2dd;" horiz-adv-x="682" 
 />
    <glyph glyph-name="tonos" unicode="&#x384;" horiz-adv-x="682" 
 />
    <glyph glyph-name="dieresistonos" unicode="&#x385;" horiz-adv-x="682" 
 />
    <glyph glyph-name="Alphatonos" unicode="&#x386;" horiz-adv-x="1367" 
 />
    <glyph glyph-name="anoteleia" unicode="&#x387;" horiz-adv-x="569" 
 />
    <glyph glyph-name="Epsilontonos" unicode="&#x388;" horiz-adv-x="1606" 
 />
    <glyph glyph-name="Etatonos" unicode="&#x389;" horiz-adv-x="1716" 
 />
    <glyph glyph-name="Iotatonos" unicode="&#x38a;" horiz-adv-x="786" 
 />
    <glyph glyph-name="Omicrontonos" unicode="&#x38c;" horiz-adv-x="1586" 
 />
    <glyph glyph-name="Upsilontonos" unicode="&#x38e;" horiz-adv-x="1752" 
 />
    <glyph glyph-name="Omegatonos" unicode="&#x38f;" horiz-adv-x="1541" 
 />
    <glyph glyph-name="iotadieresistonos" unicode="&#x390;" horiz-adv-x="455" 
 />
    <glyph glyph-name="Alpha" unicode="&#x391;" horiz-adv-x="1366" 
 />
    <glyph glyph-name="Beta" unicode="&#x392;" horiz-adv-x="1366" 
 />
    <glyph glyph-name="Gamma" unicode="&#x393;" horiz-adv-x="1128" 
 />
    <glyph glyph-name="uni0394" unicode="&#x394;" horiz-adv-x="1368" 
 />
    <glyph glyph-name="Epsilon" unicode="&#x395;" horiz-adv-x="1366" 
 />
    <glyph glyph-name="Zeta" unicode="&#x396;" horiz-adv-x="1251" 
 />
    <glyph glyph-name="Eta" unicode="&#x397;" horiz-adv-x="1479" 
 />
    <glyph glyph-name="Theta" unicode="&#x398;" horiz-adv-x="1593" 
 />
    <glyph glyph-name="Iota" unicode="&#x399;" horiz-adv-x="569" 
 />
    <glyph glyph-name="Kappa" unicode="&#x39a;" horiz-adv-x="1366" 
 />
    <glyph glyph-name="Lambda" unicode="&#x39b;" horiz-adv-x="1368" 
 />
    <glyph glyph-name="Mu" unicode="&#x39c;" horiz-adv-x="1706" 
 />
    <glyph glyph-name="Nu" unicode="&#x39d;" horiz-adv-x="1479" 
 />
    <glyph glyph-name="Xi" unicode="&#x39e;" horiz-adv-x="1331" 
 />
    <glyph glyph-name="Omicron" unicode="&#x39f;" horiz-adv-x="1593" 
 />
    <glyph glyph-name="Pi" unicode="&#x3a0;" horiz-adv-x="1479" 
 />
    <glyph glyph-name="Rho" unicode="&#x3a1;" horiz-adv-x="1366" 
 />
    <glyph glyph-name="Sigma" unicode="&#x3a3;" horiz-adv-x="1266" 
 />
    <glyph glyph-name="Tau" unicode="&#x3a4;" horiz-adv-x="1251" 
 />
    <glyph glyph-name="Upsilon" unicode="&#x3a5;" horiz-adv-x="1366" 
 />
    <glyph glyph-name="Phi" unicode="&#x3a6;" horiz-adv-x="1634" 
 />
    <glyph glyph-name="Chi" unicode="&#x3a7;" horiz-adv-x="1366" 
 />
    <glyph glyph-name="Psi" unicode="&#x3a8;" horiz-adv-x="1711" 
 />
    <glyph glyph-name="uni03A9" unicode="&#x3a9;" horiz-adv-x="1531" 
 />
    <glyph glyph-name="Iotadieresis" unicode="&#x3aa;" horiz-adv-x="458" 
 />
    <glyph glyph-name="Upsilondieresis" unicode="&#x3ab;" horiz-adv-x="1366" 
 />
    <glyph glyph-name="alphatonos" unicode="&#x3ac;" horiz-adv-x="1184" 
 />
    <glyph glyph-name="epsilontonos" unicode="&#x3ad;" horiz-adv-x="913" 
 />
    <glyph glyph-name="etatonos" unicode="&#x3ae;" 
 />
    <glyph glyph-name="iotatonos" unicode="&#x3af;" horiz-adv-x="455" 
 />
    <glyph glyph-name="upsilondieresistonos" unicode="&#x3b0;" horiz-adv-x="1120" 
 />
    <glyph glyph-name="alpha" unicode="&#x3b1;" horiz-adv-x="1184" 
 />
    <glyph glyph-name="beta" unicode="&#x3b2;" horiz-adv-x="1178" 
 />
    <glyph glyph-name="gamma" unicode="&#x3b3;" horiz-adv-x="1024" 
 />
    <glyph glyph-name="delta" unicode="&#x3b4;" horiz-adv-x="1140" 
 />
    <glyph glyph-name="epsilon" unicode="&#x3b5;" horiz-adv-x="913" 
 />
    <glyph glyph-name="zeta" unicode="&#x3b6;" horiz-adv-x="903" 
 />
    <glyph glyph-name="eta" unicode="&#x3b7;" 
 />
    <glyph glyph-name="theta" unicode="&#x3b8;" 
 />
    <glyph glyph-name="iota" unicode="&#x3b9;" horiz-adv-x="455" 
 />
    <glyph glyph-name="kappa" unicode="&#x3ba;" horiz-adv-x="1024" 
 />
    <glyph glyph-name="lambda" unicode="&#x3bb;" horiz-adv-x="1024" 
 />
    <glyph glyph-name="uni03BC" unicode="&#x3bc;" horiz-adv-x="1180" 
 />
    <glyph glyph-name="nu" unicode="&#x3bd;" horiz-adv-x="1024" 
 />
    <glyph glyph-name="xi" unicode="&#x3be;" horiz-adv-x="917" 
 />
    <glyph glyph-name="omicron" unicode="&#x3bf;" 
 />
    <glyph glyph-name="pi" unicode="&#x3c0;" horiz-adv-x="1413" 
 />
    <glyph glyph-name="rho" unicode="&#x3c1;" horiz-adv-x="1165" 
 />
    <glyph glyph-name="sigma1" unicode="&#x3c2;" horiz-adv-x="987" 
 />
    <glyph glyph-name="sigma" unicode="&#x3c3;" horiz-adv-x="1264" 
 />
    <glyph glyph-name="tau" unicode="&#x3c4;" horiz-adv-x="809" 
 />
    <glyph glyph-name="upsilon" unicode="&#x3c5;" horiz-adv-x="1120" 
 />
    <glyph glyph-name="phi" unicode="&#x3c6;" horiz-adv-x="1328" 
 />
    <glyph glyph-name="chi" unicode="&#x3c7;" horiz-adv-x="1075" 
 />
    <glyph glyph-name="psi" unicode="&#x3c8;" horiz-adv-x="1460" 
 />
    <glyph glyph-name="omega" unicode="&#x3c9;" horiz-adv-x="1599" 
 />
    <glyph glyph-name="iotadieresis" unicode="&#x3ca;" horiz-adv-x="500" 
d="M618 1565c1.33301 0 1.99902 -0.666992 1.99902 -2c0 -60 -24.333 -114 -73 -162c-45.333 -39.333 -96 -59 -152 -59c-55.333 0 -105.666 19.333 -150.999 58c-44 -38.667 -94.333 -58 -151 -58c-56 0 -106.667 20 -152 60c-48.667 48 -73 102.333 -73 163h750z
M300.999 1323c70 0 117.334 -28.666 142.001 -85.999c7.33301 -14.667 11 -36 11 -64v-1113c0 -24.667 13.667 -42.667 41 -54c12 -2 18 -3.33301 18 -4l-1 -1h-1l-132 -1c-120 0 -212 52.333 -276 157c-26.667 46.667 -40 98.667 -40 156v961c0 20.667 -8.33301 35 -25 43
c-2.66699 1.33301 -8.33398 2.66602 -17.001 3.99902v1l1 1h279z" />
    <glyph glyph-name="upsilondieresis" unicode="&#x3cb;" horiz-adv-x="1120" 
 />
    <glyph glyph-name="omicrontonos" unicode="&#x3cc;" 
 />
    <glyph glyph-name="upsilontonos" unicode="&#x3cd;" horiz-adv-x="1120" 
 />
    <glyph glyph-name="omegatonos" unicode="&#x3ce;" horiz-adv-x="1599" 
 />
    <glyph glyph-name="afii10023" unicode="&#x401;" horiz-adv-x="895" 
d="M-55 1680h594c86.667 0 164 -39.333 232 -118c42.667 -58 64 -121.667 64 -191v-84c4 -30.667 17.667 -46 41 -46h17v-3h-309c-62 0 -106.333 32.667 -133 98l-7 39l2 8v214c0 41.333 -12.333 66 -37 74l-22 5v-1084h3c32 0 50.667 19.667 56 59v250
c0 46 26.333 84.667 79 116c19.333 9.33301 46.333 14 81 14h170l100 -2h2v-2c-18 0 -31.667 -10.667 -41 -32l-2 -18v-93c0 -96 -46 -178.667 -138 -248c-54.667 -32.667 -109.667 -49 -165 -49h-145v-584c24 0 42 12.667 54 38c3.33301 7.33301 5 16.333 5 27v239
c0 58.667 33 102 99 130c18.667 3.33301 36.334 5 53.001 5h280v-3c-24.667 0 -39 -16 -43 -48v-96c0 -83.333 -37.667 -159 -113 -227c-58.667 -45.333 -122.667 -68 -192 -68h-585v3h2c29.333 0 46.333 13 51 39v1592c-2.66699 27.333 -16.334 41 -41.001 41l-10 1h-2v4z
M628 1854c1.33301 0 2 -0.333008 2 -1c0 -41.333 -16.667 -78.333 -50 -111c-31.333 -26.667 -66 -40 -104 -40s-72.333 13 -103 39c-30 -26 -64.333 -39 -103 -39c-38 0 -72.667 13.667 -104 41c-32.667 32.667 -49 69.667 -49 111h511z" />
    <glyph glyph-name="afii10051" unicode="&#x402;" horiz-adv-x="1771" 
 />
    <glyph glyph-name="afii10052" unicode="&#x403;" horiz-adv-x="1109" 
 />
    <glyph glyph-name="afii10053" unicode="&#x404;" horiz-adv-x="906" 
d="M318 1681h198.999c140 0 240 -63.667 300 -191c14.667 -35.333 22 -82.333 22 -141v-68c0 -21.333 15 -34.333 45 -39h11v-3h-298c-68.667 0 -115.667 31.333 -141 94c-4.66699 14.667 -7 29 -7 43v237c-4 42 -23.333 63 -58 63v-1086c27.333 0 46 15.333 56 46l2 24v234
c0 56.667 30.667 99 92 127c16.667 4.66699 29.667 7 39 7h301c0 -2.66699 -4.33301 -4 -13 -4c-20.667 -6.66699 -31 -25 -31 -55v-88c0 -93.333 -45 -175 -135 -245c-54 -34 -113.333 -51 -178 -51h-133v-582c18.667 0 35 11 49 33c3.33301 9.33301 5 17.666 5 24.999v231
c0 72.667 33.667 121 101 145c15.333 3.33301 29.333 5 42 5h289v-3c-24.667 0 -38.667 -15.667 -42 -47v-89c0 -78 -28.667 -148.333 -86 -211c-64 -61.333 -134.333 -92 -211 -92h-241c-87.333 0 -164.666 39.333 -231.999 118c-42.667 56.667 -64 118.334 -64 185.001
v1066c0 112.667 48.333 201 145 265c48 31.333 105.333 47 172 47z" />
    <glyph glyph-name="afii10054" unicode="&#x405;" horiz-adv-x="1366" 
 />
    <glyph glyph-name="afii10055" unicode="&#x406;" horiz-adv-x="463" 
d="M-45 1685h438v-1616c4.66699 -44 24 -66 58 -66v-3h-145c-112 0 -201.333 54 -268 162c-24.667 45.333 -37 98 -37 158v1334c-11.333 18 -25.333 27 -42 27h-4v4z" />
    <glyph glyph-name="afii10056" unicode="&#x407;" horiz-adv-x="442" 
d="M-49 1685h438v-1616c4.66699 -44 24 -66 58 -66v-3h-145c-112 0 -201.333 54 -268 162c-24.667 45.333 -37 98 -37 158v1334c-11.333 18 -25.333 27 -42 27h-4v4zM446 1854c0.666992 0 1.00098 -0.333008 1.00098 -1c0 -41.333 -16.667 -78.333 -50 -111
c-30.667 -26.667 -65 -40 -103 -40s-72.333 13 -103 39c-30.667 -26 -65.334 -39 -104.001 -39c-38 0 -72.333 13.667 -103 41c-33.333 32.667 -50 69.667 -50 111h512z" />
    <glyph glyph-name="afii10057" unicode="&#x408;" horiz-adv-x="1024" 
 />
    <glyph glyph-name="afii10058" unicode="&#x409;" horiz-adv-x="2165" 
 />
    <glyph glyph-name="afii10059" unicode="&#x40a;" horiz-adv-x="2069" 
 />
    <glyph glyph-name="afii10060" unicode="&#x40b;" horiz-adv-x="1749" 
 />
    <glyph glyph-name="afii10061" unicode="&#x40c;" horiz-adv-x="1193" 
 />
    <glyph glyph-name="afii10062" unicode="&#x40e;" horiz-adv-x="1301" 
 />
    <glyph glyph-name="afii10145" unicode="&#x40f;" horiz-adv-x="1472" 
 />
    <glyph glyph-name="afii10017" unicode="&#x410;" horiz-adv-x="905" 
d="M320 1676l96 -1.00098l112 1h4c94.667 0 175.334 -40.333 242.001 -121c41.333 -52.667 62 -121 62 -205v-1303c0 -19.333 10 -33 30 -41l8 -2h19v-3l-31 -1h-251c-57.333 0 -97.333 12.667 -120 38c-29.333 28.667 -44 61.334 -44 98.001v890h-4
c-29.333 0 -47.333 -18.667 -54 -56v-823c0 -64.667 -30.667 -110 -92 -136c-14 -5.33301 -29.667 -8 -47 -8h-307v3h13c20.667 0 35 9.66699 43 29c1.33301 4 2 11.667 2 23v1323c0 73.333 30 142 90 206c59.333 59.333 135.666 89 228.999 89zM389 1615v-582l3 -3h52l3 3
v636l-1 2v1c-26 0 -44.667 -15 -56 -45z" />
    <glyph glyph-name="afii10018" unicode="&#x411;" horiz-adv-x="911" 
d="M391 1178l-2 -2v-1173c37.333 6.66699 56 25.334 56 56.001v1062c0 25.333 -14 43.666 -42 54.999zM-54 1677h570c91.333 0 165.666 -27.667 222.999 -83c64.667 -64 97 -135 97 -213v-83c0 -40 16 -60 48 -60h10v-3h-295c-76 0 -124.667 35.333 -146 106
c-4 10 -6 28 -6 54v225c0 22 -14 38.667 -42 50l-14 1v-487h148c94.667 0 175.667 -43.333 243 -130c36 -56 54 -109.333 54 -160v-600c0 -92.667 -44 -173 -132 -241c-53.333 -35.333 -108.333 -53 -165 -53h-593v4h6c24.667 0 41.334 10.333 50.001 31v1599
c-4 26 -22.667 39 -56 39v4z" />
    <glyph glyph-name="afii10019" unicode="&#x412;" horiz-adv-x="901" 
d="M-56 1679l583.001 0.00390625c94 0 173 -35.667 237 -107c49.333 -60 74 -125 74 -195v-48c0 -94 -43 -175 -129 -243c-36.667 -26.667 -78.667 -44.334 -126 -53.001c-12 -0.666992 -18 -2.33398 -18 -5.00098c41.333 0 91.666 -19.333 150.999 -58
c81.333 -66.667 122 -148.334 122 -245.001v-420c0 -108.667 -51 -196.667 -153 -264c-50 -27.333 -101.333 -41 -154 -41h-587v3h7c32.667 5.33301 49 16.666 49 33.999v1603c-0 20 -18.667 32 -56 36v3zM391.001 1675l-2 -2l2 -1l-2 -8v-631h2c27.333 0 46 15.667 56 47
l1 19v509c0 34 -14.667 55.667 -44 65zM389.001 1027v-1019c0 -2 1.66699 -3 5 -3c35.333 7.33301 53 25 53 53l1 13v887c0 34.667 -13.333 56.667 -40 66z" />
    <glyph glyph-name="afii10020" unicode="&#x413;" horiz-adv-x="905" 
d="M-52 1678l575 0.00195312c130.667 0 227 -59.333 289 -178c18.667 -42.667 28 -84.334 28 -125.001v-88c0 -24 11.333 -39.667 34 -47h23v-4h-307c-58.667 0 -101.667 29.667 -129 89c-7.33301 15.333 -11 36.666 -11 63.999v232c0 22 -14.333 38.667 -43 50l-14 2v-1669
l-3 -4h-436v4h1c32 4.66699 48 15 48 31v1607c-6.66699 22 -25 33 -55 33v3z" />
    <glyph glyph-name="afii10021" unicode="&#x414;" horiz-adv-x="906" 
d="M310 1673l581.002 -0.000976562v-3h-2c-36.667 -4 -55 -16 -55 -36v-1570c5.33301 -38 23.666 -57 54.999 -57h64l3 -3v-39c-42 -37.333 -63 -116.666 -63 -237.999v-11l-4 -3h-68c-34.667 0 -60 20.667 -76 62l-4 27v143c0 27.333 -14.667 46.333 -44 57h-550
c-26.667 0 -44.334 -15.667 -53.001 -47v-138c0 -55.333 -19.667 -88.333 -59 -99c-3.33301 -3.33301 -10.333 -5 -21 -5h-69l-4 3v41c0 97.333 -20.667 166 -62 206v41l4 3h66c22.667 0 39.667 14.667 51 44l1 23v1285l-1 14c0 73.333 29.667 143.333 89 210
c63.333 60 137 90 221 90zM388.002 1611v-1606c26.667 0 45.667 15.333 57 46v1617h-1c-32 0 -50.667 -19 -56 -57z" />
    <glyph glyph-name="afii10022" unicode="&#x415;" horiz-adv-x="905" 
d="M-53 1680h594c86.667 0 164 -39.333 232 -118c42.667 -58 64 -121.667 64 -191v-84c4 -30.667 17.667 -46 41 -46h17v-3h-309c-62 0 -106.333 32.667 -133 98l-7 39l2 8v214c0 41.333 -12.333 66 -37 74l-22 5v-1084h3c32 0 50.667 19.667 56 59v250
c0 46 26.333 84.667 79 116c19.333 9.33301 46.333 14 81 14h170l100 -2h2v-2c-18 0 -31.667 -10.667 -41 -32l-2 -18v-93c0 -96 -46 -178.667 -138 -248c-54.667 -32.667 -109.667 -49 -165 -49h-145v-584c24 0 42 12.667 54 38c3.33301 7.33301 5 16.333 5 27v239
c0 58.667 33 102 99 130c18.667 3.33301 36.334 5 53.001 5h280v-3c-24.667 0 -39 -16 -43 -48v-96c0 -83.333 -37.667 -159 -113 -227c-58.667 -45.333 -122.667 -68 -192 -68h-585v3h2c29.333 0 46.333 13 51 39v1592c-2.66699 27.333 -16.334 41 -41.001 41l-10 1h-2v4z
" />
    <glyph glyph-name="afii10024" unicode="&#x416;" horiz-adv-x="1340" 
d="M93 1673c93.333 0 173.333 -42.335 240 -127.002c38.667 -50.667 58 -118 58 -202v-271c5.33301 -37.333 24.333 -56 57 -56v330c0 148.667 67.333 251.667 202 309c35.333 11.333 68.333 17 99 17h142l3 -3c-38.667 -6.66699 -58 -26.334 -58 -59.001v-594
c26.667 0 45.334 14.667 56.001 44v277c0 96.667 23 170 69 220c32.667 38.667 59 62.334 79 71.001c50 29.333 100 44 150 44h146l4 -3c-26.667 0 -45.667 -15 -57 -45l-2 -22v-277c0 -119.333 -51.667 -211 -155 -275c-48 -24 -84.667 -36 -110 -36v-2
c38.667 0 88.334 -20.333 149.001 -61c77.333 -65.333 116 -148.333 116 -249v-631c0 -31.333 11 -52 33 -62c6 -3.33301 14.667 -5.66602 26 -6.99902v-3h-146c-94.667 0 -175.334 41.667 -242.001 125c-38.667 56 -58 113 -58 171v29l-2 641
c-4.66699 17.333 -14.334 30 -29.001 38c-8 4.66699 -17 7 -27 7v-703c0 -112 -49.667 -200.667 -149 -266c-48.667 -28 -99 -42 -151 -42h-143l-4 3c39.333 6 59 25 59 57v951c-38 -5.33301 -57 -23.666 -57 -54.999v-623c0 -103.333 -28 -182 -84 -236
c-18.667 -21.333 -38.667 -38.333 -60 -51c-50.667 -30.667 -102.334 -46 -155.001 -46h-146v1c0 1.33301 8.66699 4.33301 26 9c20 12.667 30 31.334 30 56.001v639c0 122.667 56.333 216 169 280c42.667 18.667 75 28 97 28v2c-43.333 4 -87.666 20.667 -132.999 50
c-88.667 63.333 -133 153.666 -133 270.999v275c0 26.667 -13.333 45 -40 55c-12 1.33301 -18 3.33301 -18 6l2 1h147z" />
    <glyph glyph-name="afii10025" unicode="&#x417;" horiz-adv-x="895" 
d="M320 1672l66.9941 0.00292969l2 -2l1 2l9 -2l6 2h4v-2l82 2h16c145.333 0 246.333 -64.333 303 -193c14.667 -34 22 -70.333 22 -109v-65c0 -66.667 -26.667 -131.334 -80 -194.001c-43.333 -42.667 -83.666 -70 -120.999 -82c-32.667 -10 -55.667 -15 -69 -15v-2
c52.667 -8 95.334 -22.667 128.001 -44c94.667 -66.667 142 -151.667 142 -255v-276c-4 -52.667 -27.667 -115.667 -71 -189c-115.333 -165.333 -303.666 -248 -564.999 -248h-10c-66.667 0 -121 34.667 -163 104c-14.667 28.667 -22 58.667 -22 90
c0 77.333 39.667 136.666 119 177.999c21.333 7.33301 44.333 12.333 69 15c78 0 137.667 -36.333 179 -109c12.667 -26.667 19 -55.334 19 -86.001c0 -78.667 -39.333 -138 -118 -178h-2v-1h2c117.333 36 176 132.667 176 290v632c0 38 -12 61.333 -36 70
c-16 2.66699 -24 5 -24 7c0 2.66699 3.66699 4 11 4c12.667 0 27.334 11 44.001 33c3.33301 12.667 5 25.334 5 38.001v504c0 31.333 -8 52.666 -24 63.999c-12 7.33301 -23.333 11 -34 11v-298c0 -52 -24 -92.333 -72 -121c-21.333 -10.667 -40.666 -16 -57.999 -16h-274
l-7 -2l-8 2l-1 -2h-2l-8 2v4h4c20.667 0 33.334 12.333 38.001 37v65c0 112.667 33 197 99 253c56 54.667 130 82 222 82z" />
    <glyph glyph-name="afii10026" unicode="&#x418;" horiz-adv-x="905" 
d="M-40 1672h274c72 0 120.667 -30 146 -90c7.33301 -18 11 -45 11 -81v-1418l-2 -24c8 -36.667 26 -55 54 -55h2v1502c0 78 26.333 128.333 79 151c17.333 10 38 15 62 15h290v-5c-26.667 -4.66699 -40 -16.667 -40 -36v-1576c0 -27.333 18.333 -44.333 55 -51v-4h-598
c-96 0 -178.667 48 -248 144c-29.333 52 -44 106.333 -44 163v1318c-5.33301 28 -19 42 -41 42v5z" />
    <glyph glyph-name="afii10027" unicode="&#x419;" horiz-adv-x="908" 
d="M-39 1672l274 -0.000976562c72 0 120.667 -29.667 146 -89c7.33301 -18 11 -45 11 -81v-1419l-2 -24c8 -36.667 26.333 -55 55 -55h2v1503c0 78 26.333 128 79 150c16.667 10 37 15 61 15h291v-5c-26.667 -4.66699 -40 -16.667 -40 -36v-1576
c0 -27.333 18.333 -44.333 55 -51v-4h-599c-95.333 0 -178 47.667 -248 143c-30 52.667 -45 107.334 -45 164.001v1319c-4.66699 27.333 -18 41 -40 41v5zM726 1854c-4 -52.667 -35.333 -93.001 -94 -121.001c-64.667 -42.667 -134.334 -64 -209.001 -64
c-91.333 0 -177.666 32 -258.999 96c-28.667 29.333 -43 59 -43 89h264c-2 -57.333 -36 -97.666 -102 -120.999l-23 -2h-26c56 -34 117.667 -51 185 -51c66.667 0 130.667 16.333 192 49v2h-19c-64 0 -106.667 34 -128 102l-3 21h265z" />
    <glyph glyph-name="afii10028" unicode="&#x41a;" horiz-adv-x="905" 
d="M-48 1672h435.999l3 -4v-638h2c30 0 47.667 18 53 54l2 443l-2 10c0 45.333 23.333 84 70 116c22 12.667 45 19 69 19h292v-4c-27.333 -4.66699 -41 -17.667 -41 -39v-279c0 -150 -68 -252.667 -204 -308c-31.333 -10 -56.666 -15 -75.999 -15v-2
c41.333 0 91.666 -18 150.999 -54c86 -66 129 -151.667 129 -257v-672c0 -20.667 13.667 -33.667 41 -39v-3h-292c-61.333 -0 -105.333 32.333 -132 97l-7 34l2 20v806c-4.66699 43.333 -23.667 65 -57 65v-870c0 -72 -32.333 -120 -97 -144c-12 -4 -24 -6 -36 -6h-297v3
c26 0 40 17 42 51v802l-2 781c-9.33301 19.333 -23.666 29 -42.999 29h-6v4z" />
    <glyph glyph-name="afii10029" unicode="&#x41b;" horiz-adv-x="901" 
d="M301 1673l6.99805 -1l351 1h225l2 -1l2 1h3v-3c-32 0 -50.667 -12 -56 -36v-1593c0 -21.333 18.333 -34 55 -38h1v-3h-440l-3 3v1665h-2c-26 0 -44.333 -13.667 -55 -41l-2 -11v-1472c0 -68 -33 -113.667 -99 -137c-9.33301 -4.66699 -31.333 -7 -66 -7h-264v3
c28 0 42 20.667 42 62v1299l-1 7c0 71.333 26.667 139 80 203c50.667 47.333 92.334 74.333 125.001 81c20.667 8.66699 52.334 14.667 95.001 18z" />
    <glyph glyph-name="afii10030" unicode="&#x41c;" horiz-adv-x="1346" 
d="M311 1671l242 -1.99707c58 0 118.667 -26 182 -78c68 -60 102 -144.333 102 -253v-666c8.66699 -33.333 25.667 -50 51 -50h7v973c0 39.333 -16 62.666 -48 69.999c-7.33301 0 -11 1.33301 -11 4l1 2h121c150.667 0 253.334 -69 308.001 -207
c11.333 -30.667 17 -67.334 17 -110.001v-1313c5.33301 -25.333 18 -38 38 -38v-3h-296c-44 0 -81.333 22 -112 66c-12 21.333 -18 42.333 -18 63v488h-134c-129.333 0 -225 60.333 -287 181c-18 47.333 -27 85.333 -27 114l2 34l-2 719h-6c-24 0 -41.333 -15.667 -52 -47
v-1483c0 -56 -28.333 -98 -85 -126c-14.667 -6 -31.334 -9 -50.001 -9h-291v3c21.333 0 34.333 13.333 39 40v1330c0 99.333 47 182.666 141 249.999c50.667 32 106.667 48 168 48z" />
    <glyph glyph-name="afii10031" unicode="&#x41d;" horiz-adv-x="899" 
d="M-55 1672h441l4 -3v-789h57v789l4 3h442v-3c-38.667 -4 -58 -16.333 -58 -37v-1585c0 -20 10 -33.333 30 -40l21 -3h5v-4h-440l-4 4v869l-2 2v1c-22 0 -39.333 -12.667 -52 -38c-2 -4.66699 -3 -11 -3 -19v-815l-4 -4h-439v4h4c33.333 4.66699 50 15 50 31v1601
c-6 22 -24.667 33 -56 33v3z" />
    <glyph glyph-name="afii10032" unicode="&#x41e;" horiz-adv-x="897" 
d="M290 1671l244.001 -0.000976562c100.667 0 184.667 -46.667 252 -140c32 -52 48 -108.667 48 -170v-1052c0 -124 -58.667 -217.667 -176 -281c-42.667 -18.667 -82.334 -28 -119.001 -28h-246c-92.667 0 -173 44.333 -241 133c-34.667 54.667 -52 110.334 -52 167.001
v1075c0 97.333 46 180 138 248c55.333 32 106 48 152 48zM389.001 2.99902c28 0 46.668 16.667 56.001 50v1615c-26.667 0 -45.334 -15.667 -56.001 -47v-1618z" />
    <glyph glyph-name="afii10033" unicode="&#x41f;" horiz-adv-x="905" 
d="M630 1654c32.667 -7.33301 73.999 -34.668 123.999 -82.001c54.667 -64.667 82 -132 82 -202l-2 -8v-1299c0 -40.667 14 -61 42 -61v-3h-264c-34.667 0 -56.667 2.33301 -66 7c-66.667 22.667 -100 68.334 -100 137.001v1471l-1 11c-10.667 28 -29 42 -55 42h-2v-1665
l-3 -3h-440v3h2c36 4 54 16.667 54 38v1592c-5.33301 24 -24 36 -56 36v4h4l1 -2l2 2h225l351 -2l7 2c42.667 -3.33301 74.334 -9.33301 95.001 -18z" />
    <glyph glyph-name="afii10034" unicode="&#x420;" horiz-adv-x="900" 
d="M-55 1671h599c75.333 0 146 -33.333 212 -100c36.667 -38.667 62 -91.667 76 -159l3 -74v-638c0 -76 -11 -133.333 -33 -172c-59.333 -112.667 -158.333 -169 -297 -169h-116v-357l-3 -2h-441v2c27.333 0 46 14.667 56 44v1574c0 20.667 -14 35.667 -42 45l-14 2v4z
M389 1667v-1303h2c36.667 8 55 26.667 55 56v1186c0 33.333 -17.333 53.666 -52 60.999h-5z" />
    <glyph glyph-name="afii10035" unicode="&#x421;" horiz-adv-x="912" 
d="M303 1672l231 0.000976562c95.333 0 176 -43 242 -129c37.333 -56 56 -110 56 -162v-21c0 -60 -32 -112.667 -96 -158c-32.667 -16 -62 -24 -88 -24h-18c-63.333 0 -116.333 31 -159 93c-18 30.667 -27 60.334 -27 89.001v251c0 29.333 -16 48 -48 56l-8 1v-1606
c0 -26.667 15 -45.667 45 -57h11v300l2 2l-2 1c0 41.333 21.333 78.333 64 111c24 14.667 50.333 22 79 22h288v-3c-28 -5.33301 -42 -18 -42 -38v-62c0 -97.333 -23 -172 -69 -224c-62.667 -76 -144 -114 -244 -114h-215c-115.333 0 -205.333 54.333 -270 163
c-23.333 45.333 -35 89.666 -35 132.999v1087c0 69.333 30 136.666 90 201.999c62 58 133 87 213 87z" />
    <glyph glyph-name="afii10036" unicode="&#x422;" horiz-adv-x="1332" 
d="M294 1673l123.002 0.000976562l5 2l9 -2h439l7 2l6 -2h108c87.333 0 165.333 -41 234 -123c39.333 -56.667 59 -115.667 59 -177v-121c2 -34.667 11.333 -52 28 -52c0 -2 5 -3.66699 15 -5v-2l-1 -2h-2l-2 2h-2l-1 -2l-9 2h-279c-58.667 0 -101.334 31.667 -128.001 95
c-4.66699 15.333 -7 32.666 -7 51.999v330h-2c-33.333 0 -52 -19.667 -56 -59v-1609h-421l-7 -2l-17 2c0 2 9 4.66699 27 8c20 12.667 30 29 30 49v1555c-4.66699 37.333 -23.334 56 -56.001 56h-1v-340c0 -62.667 -33.667 -106.667 -101 -132
c-8 -3.33301 -19.333 -5 -34 -5h-271l-7 -2l-7 2l-2 -2h-1l-6 2l-1 -2l-2 2v2c24.667 0 39 15.667 43 47v126c0 108 49.667 196 149 264c52.667 27.333 99.667 41 141 41z" />
    <glyph glyph-name="afii10037" unicode="&#x423;" horiz-adv-x="898" 
d="M-42 1672l298 -0.00195312c53.333 0 95 -30.333 125 -91c4.66699 -18 7 -31.333 7 -40v-854c5.33301 -40 24.666 -60 57.999 -60v908c0 60.667 33 104.334 99 131.001c12 4 24.333 6 37 6h295v-4h-4c-22 0 -35 -16.333 -39 -49v-1326
c0 -91.333 -44 -171.666 -132 -240.999c-53.333 -34.667 -109.333 -52 -168 -52h-379c-66.667 -0 -111.667 34.333 -135 103c-4 14 -6 30 -6 48v140c0 21.333 -13.667 34.333 -41 39v3h289c66.667 0 112.334 -33.667 137.001 -101c3.33301 -13.333 5 -27.333 5 -42v-143
c3.33301 -29.333 16.333 -44 39 -44h3v617c0 2.66699 -1.66699 4 -5 4l-2 -2l-8 2h-15l-5 -2l-9 2h-112c-73.333 0 -144 33 -212 99c-52 62.667 -78 129 -78 199v699c-3.33301 31.333 -16 47 -38 47h-4v4z" />
    <glyph glyph-name="afii10038" unicode="&#x424;" horiz-adv-x="1343" 
d="M400 1773l478 -0.000976562v-5c-30.667 -3.33301 -46 -15.666 -46 -36.999v-59h133c132.667 0 229.667 -62.667 291 -188c15.333 -38.667 23 -81.334 23 -128.001v-1040c0 -137.333 -64.333 -235.666 -193 -294.999c-38 -14 -72 -21 -102 -21h-152v-6
c0 -113.333 -57 -203.333 -171 -270c-49.333 -20.667 -92.666 -31 -129.999 -31l-15 2h-129v4h4c23.333 0 40.666 14.667 51.999 44l2 33v224h-147c-93.333 -0 -173 41.333 -239 124c-38.667 56 -58 111.667 -58 167v1084c0 98 45 179.667 135 245
c49.333 34.667 109 52 179 52h130v53c0 22 -11.667 36.333 -35 43h-10v5zM387 70.999c0 -30.667 12 -51.667 36 -63l22 -4v1660l-2 2v2c-32 0 -50.667 -20.333 -56 -61v-1536zM835 1668l-3 -2v-1662h3c32 0 50.667 19.667 56 59v1551c0 28 -18.667 46 -56 54z" />
    <glyph glyph-name="afii10039" unicode="&#x425;" horiz-adv-x="908" 
d="M-37 1678h299.001c46.667 0 85.334 -25 116.001 -75c10.667 -21.333 16 -44.333 16 -69l-2 -430c0 -34 15 -55.667 45 -65l13 -1h2v344c0 96.667 46.333 179.334 139 248.001c54 32 104 48 150 48h158l-33 -12c-16.667 -14 -25 -30.667 -25 -50v-265
c0 -129.333 -60 -225.333 -180 -288c-42.667 -16.667 -77.334 -25 -104.001 -25v-2c70.667 0 139 -33 205 -99c52.667 -60.667 79 -127.667 79 -201v-678c0 -27.333 8.33301 -44.333 25 -51l18 -4v-3h-293c-61.333 0 -105.333 32 -132 96
c-4.66699 15.333 -7 30.666 -7 45.999v829c0 31.333 -15.333 52 -46 62h-12v-704c0 -152.667 -68 -256.667 -204 -312c-32.667 -11.333 -64.667 -17 -96 -17h-147v3c38 6.66699 57 25.667 57 57l1 22v656c0 86.667 38.333 163 115 229c59.333 44 114 66 164 66v1
c-54.667 0 -115 26.333 -181 79c-44.667 46.667 -71 86 -79 118c-9.33301 20 -16 51 -20 93l1 34v20l-1 264c-8.66699 22 -21.334 33 -38.001 33h-3v3z" />
    <glyph glyph-name="afii10040" unicode="&#x426;" horiz-adv-x="909" 
d="M-52 1673h307c66.667 0 112 -36 136 -108l4 -46v-1465c8.66699 -33.333 25.334 -50 50.001 -50h7v1509c0 74.667 28.667 124.667 86 150c20 6.66699 38 10 54 10h307v-4h-18c-20.667 0 -33.334 -13.333 -38.001 -40v-1561c0 -28.667 11.333 -48.667 34 -60l18 -4h42l4 -4
v-38c-42.667 -39.333 -64 -113.333 -64 -222v-28l-4 -4h-62c-41.333 0 -69.666 22 -84.999 66l-2 20v146c0 28.667 -14.667 48.334 -44 59.001h-351c-146.667 0 -248.334 66.667 -305.001 200c-13.333 33.333 -20 72.666 -20 117.999v1316c0 18.667 -12.333 30.667 -37 36
h-19v4z" />
    <glyph glyph-name="afii10041" unicode="&#x427;" horiz-adv-x="898" 
d="M-41 1672h267.001c74 0 122.667 -24.333 146 -73c10.667 -17.333 16 -40 16 -68v-1146c0 -32 15 -52.333 45 -61l14 -1v1344l4 4h432v-4h-4c-28.667 -6 -43 -16 -43 -30v-1602c0 -16 16.333 -26.667 49 -32h1v-3h-435l-4 3v313l-3 3h-124l-19 -2
c-84.667 0 -161.334 37 -230.001 111c-46.667 58 -70 126 -70 204v991c0 20 -8.66699 34 -26 42l-16 4v3z" />
    <glyph glyph-name="afii10042" unicode="&#x428;" horiz-adv-x="1344" 
d="M-36 1671l91.999 1.99902h168c76 0 125.667 -25.333 149 -76c10.667 -18.667 16 -39.667 16 -63v-1467c4 -42.667 23.333 -64 58 -64v1621c-3.33301 30.667 -17.333 46 -42 46v3h277c69.333 0 116.666 -28.667 141.999 -86c7.33301 -18 11 -39.333 11 -64v-1484
c0 -20 18 -32 54 -36h2l2 756v779c0 60 33.333 103.333 100 130c20.667 3.33301 42.334 5 65.001 5h168l92 -2v-3c-26 0 -39 -21.667 -39 -65v-1305c0 -97.333 -44.667 -179.666 -134 -246.999c-53.333 -34 -111 -51 -173 -51h-676c-89.333 0 -168.333 41.667 -237 125
c-38.667 53.333 -58 120 -58 200v1304c-5.33301 26 -17.666 39 -36.999 39v3z" />
    <glyph glyph-name="afii10043" unicode="&#x429;" horiz-adv-x="1351" 
d="M-40 1675l291.003 -0.00195312c60.667 0 104.667 -31.333 132 -94c4.66699 -13.333 7 -27.666 7 -42.999v-1474c5.33301 -40 24.666 -60 57.999 -60v1624c0 21.333 -9.66699 35.333 -29 42l-9 2h-4v3h289c65.333 0 110.666 -32.333 135.999 -97
c4.66699 -13.333 7 -32.666 7 -57.999v-1460c5.33301 -37.333 24 -56 56 -56h2v1540c0 52 29.667 92.667 89 122c17.333 6 34 9 50 9h291v-3h-3c-20.667 0 -33.334 -14 -38.001 -42v-1563c4 -40.667 22.667 -61 56 -61h63l4 -4v-39c-42.667 -38 -64 -112.667 -64 -224v-26
l-3 -3h-64c-41.333 0 -69 22.333 -83 67l-2 14v147c0 31.333 -13 51 -39 59h-253l-6 3h-582l-7 -1l-7 1h-2c-94 0 -174.667 44.667 -242 134c-34.667 53.333 -52 108 -52 164v1327c0 25.333 -12 41 -36 47h-6v3z" />
    <glyph glyph-name="afii10044" unicode="&#x42a;" horiz-adv-x="1336" 
d="M276 1675l286.997 2h270c2.66699 0 4 -2 4 -6l-2 -637l2 -2h150c96 0 178.333 -46.333 247 -139c32.667 -52 49 -111.333 49 -178v-398c0 -139.333 -65.667 -238.666 -197 -297.999c-37.333 -12.667 -68.666 -19 -93.999 -19h-592v4h3c28.667 6 43 16.667 43 32v1603
c0 18 -17.333 29.333 -52 34h-6v-384c2.66699 -34 15.334 -51 38.001 -51v-4h-295c-51.333 0 -91.666 29 -120.999 87c-6.66699 16 -10 32.667 -10 50v6c0 101.333 48.667 186.333 146 255c46.667 25.333 90 39.666 130 42.999zM836.997 1028l-1.99902 -2v-178l2 -844h1
c31.333 0 49.666 18.667 54.999 56v912c0 26.667 -14.333 44.667 -43 54z" />
    <glyph glyph-name="afii10045" unicode="&#x42b;" horiz-adv-x="1353" 
d="M-47 1678l439 -0.000976562v-643h133c128.667 0 224.667 -60.333 288 -181c17.333 -43.333 26 -84.333 26 -123v-420c0 -119.333 -53.667 -210.666 -161 -273.999c-45.333 -24.667 -90.333 -37 -135 -37h-592v4h2c33.333 4 50 16 50 36v1598c0 18.667 -15 31 -45 37h-5v3
zM907 1678h446v-1c-37.333 -4.66699 -56 -17 -56 -37v-1603c0 -17.333 17 -28.333 51 -33h3v-4h-440l-4 4v1674zM392 1029v-1022l1 -1v-2c24.667 0 42.667 14 54 42c2.66699 5.33301 4 15.666 4 30.999v883c0 33.333 -12.333 55.333 -37 66l-21 3h-1z" />
    <glyph glyph-name="afii10046" unicode="&#x42c;" horiz-adv-x="950" 
d="M2 1678l439 -0.000976562v-643h133c128.667 0 224.667 -60.333 288 -181c17.333 -43.333 26 -84.333 26 -123v-420c0 -119.333 -53.667 -210.666 -161 -273.999c-45.333 -24.667 -90.333 -37 -135 -37h-592v4h2c33.333 4 50 16 50 36v1598c0 18.667 -15 31 -45 37h-5v3z
M441 1029v-1022l1 -1v-2c24.667 0 42.667 14 54 42c2.66699 5.33301 4 15.666 4 30.999v883c0 33.333 -12.333 55.333 -37 66l-21 3h-1z" />
    <glyph glyph-name="afii10047" unicode="&#x42d;" horiz-adv-x="888" 
d="M689 1634c96.667 -64 144.999 -152.333 144.999 -265v-1066c0 -66.667 -21.333 -128.334 -64 -185.001c-67.333 -78.667 -144.666 -118 -231.999 -118h-241c-76.667 0 -147 30.667 -211 92c-57.333 62.667 -86 133 -86 211v89c-3.33301 31.333 -17.333 47 -42 47v3h289
c12.667 0 26.667 -1.66699 42 -5c67.333 -24 101 -72.333 101 -145v-231c0 -7.33301 1.66699 -15.666 5 -24.999c14 -22 30.333 -33 49 -33v582h-133c-64.667 0 -124 17 -178 51c-90 70 -135 151.667 -135 245v88c0 30 -10.333 48.333 -31 55c-8.66699 0 -13 1.33301 -13 4
h301c9.33301 0 22.333 -2.33301 39 -7c61.333 -28 92 -70.333 92 -127v-234l2 -24c10 -30.667 28.667 -46 56 -46v1086c-34.667 0 -54 -21 -58 -63v-237c0 -14 -2.33301 -28.333 -7 -43c-25.333 -62.667 -72.333 -94 -141 -94h-298v3h11c30 4.66699 45 17.667 45 39v68
c0 58.667 7.33301 105.667 22 141c60 127.333 160 191 300 191h199c66.667 0 124 -15.667 172 -47z" />
    <glyph glyph-name="afii10048" unicode="&#x42e;" horiz-adv-x="1350" 
d="M-53 1678l441.999 0.000976562l3 -3v-764l5 -5h53v471c0 94.667 44 176 132 244c55.333 36 109.666 54 162.999 54h245c94.667 0 176.334 -45.333 245.001 -136c34 -54 51 -109.667 51 -167v-1074c0 -94 -44 -175.667 -132 -245c-56 -35.333 -112 -53 -168 -53h-231
c-113.333 0 -203.333 54.333 -270 163c-23.333 47.333 -35 95.666 -35 144.999v594h-1c-25.333 0 -43.666 -14.667 -54.999 -44l-2 -24v-832h-445v3c31.333 0 50.333 11.333 57 34v1600c0 20 -18.333 32 -55 36h-2v3zM838.999 1608v-1599l4 -4h3c27.333 0 44.333 19 51 57
v1609c-26 0 -44 -13.667 -54 -41c-2.66699 -5.33301 -4 -12.666 -4 -21.999z" />
    <glyph glyph-name="afii10049" unicode="&#x42f;" horiz-adv-x="938" 
d="M923 1677l-21.001 -4.00098c-23.333 -9.33301 -35 -29.666 -35 -60.999v-1541l1 -24c11.333 -28.667 30.333 -43 57 -43l-4 -4h-440l-3 4v1029h-24c-8.66699 0 -15.334 -1 -20.001 -3c-27.333 -7.33301 -41 -31 -41 -71v-821c0 -11.333 -1.66699 -24 -5 -38
c-27.333 -65.333 -71.666 -98 -132.999 -98h-294v3h3c22.667 0 36 16.333 40 49v685c0 76 29.667 145.333 89 208c40.667 40.667 91.334 68.667 152.001 84c22.667 2 34 4.33301 34 7h-1c-52 8.66699 -102.333 34 -151 76c-64.667 68 -97 138 -97 210v65
c0 58.667 22.667 119 68 181c70 73.333 143.667 110 221 110h604v-3zM458.999 1673c-27.333 -9.33301 -41.001 -31 -41.001 -65v-508c0 -10 1.33301 -17.333 4 -22c10.667 -28 29.334 -42 56.001 -42v641z" />
    <glyph glyph-name="afii10065" unicode="&#x430;" horiz-adv-x="905" 
d="M392 55c0 -17.333 11 -32.333 33 -45l17 -5h8v793h-3c-26.667 0 -45 -15.667 -55 -47v-696zM320 1318h202c123.333 0 216.666 -54 279.999 -162c25.333 -46.667 38 -94.667 38 -144v-930c0 -38 8.66699 -60.333 26 -67c0 -4 10.333 -7.66699 31 -11v-1l-1 -1h-580l-12 -2
c-64.667 0 -128 23.667 -190 71c-74.667 67.333 -112 143.333 -112 228v204c0 75.333 30.333 145 91 209c62.667 60 134 90 214 90h143v512c-30.667 0 -50 -17 -58 -51v-233l1 -18c0 -52 -22 -99.667 -66 -143c-40 -33.333 -81 -50 -123 -50h-14
c-61.333 0 -113.666 30 -156.999 90c-21.333 34.667 -32 69.667 -32 105c0 54 18.333 110.667 55 170c65.333 89.333 153.333 134 264 134z" />
    <glyph glyph-name="afii10066" unicode="&#x431;" horiz-adv-x="901" 
d="M624 1549c70.667 -24.667 124.001 -64.999 160.001 -120.999c35.333 -45.333 53 -114.666 53 -207.999v-56c6 -25.333 18 -38 36 -38v-3h-289c-22 0 -42.667 5.33301 -62 16c-48.667 29.333 -73 69 -73 119v239c-4.66699 42 -24.334 63 -59.001 63v-478h135
c51.333 0 99.666 -10.667 144.999 -32c111.333 -64.667 167 -158 167 -280v-622c0 -14 -1.66699 -29.667 -5 -47c-27.333 -66 -70.666 -99 -129.999 -99h-382l-19 -2c-34 0 -75.333 9.66699 -124 29c-116.667 63.333 -175 158.666 -175 285.999v1107
c0 15.333 2.66699 32.666 8 51.999c26.667 59.333 75 89 145 89h380c29.333 0 59 -4.66699 89 -14zM449.001 1032c-11.333 31.333 -31 47 -59 47v-1025c10 -32.667 28.667 -49 56 -49h3v1027z" />
    <glyph glyph-name="afii10067" unicode="&#x432;" horiz-adv-x="905" 
d="M145 1318h390c94.667 0 175.334 -41 242.001 -123c40 -56.667 60 -114.667 60 -174v-43l1 -8c0 -47.333 -24 -87.333 -72 -120c-22.667 -11.333 -46.334 -17 -71.001 -17h-117v-1c39.333 -3.33301 83.333 -21 132 -53c85.333 -65.333 128 -150.333 128 -255v-381
c0 -64 -30.667 -109 -92 -135c-13.333 -5.33301 -28.666 -8 -45.999 -8h-404c-82.667 0 -157.334 36 -224.001 108c-48 57.333 -72 126.333 -72 207v864c-0 58 29.333 101.333 88 130c18 6 37 9 57 9zM389 1314v-478h14c20.667 0 35 10.667 43 32l1 8v378
c-4 40 -23.333 60 -58 60zM389 832v-140.001l2 -640c0 -15.333 11 -30 33 -44l21 -4h2v774c0 24.667 -14.667 42.334 -44 53.001z" />
    <glyph glyph-name="afii10068" unicode="&#x433;" horiz-adv-x="901" 
d="M543 1317c86 0 162.334 -37.334 229.001 -112.001c46 -62 69 -123 69 -183v-13c0 -65.333 -32.667 -120.333 -98 -165c-32 -16 -62.667 -24 -92 -24h-14c-62.667 0 -116.334 32 -161.001 96c-17.333 35.333 -26 65 -26 89l1 57v195c0 28 -16.333 46.667 -49 56h-9
l-1 -1270v-40l-3 -3h-384l-3 3v576l1 683c0 22.667 -14.333 39.334 -43 50.001c-10.667 0.666992 -16 2 -16 4l2 1h597z" />
    <glyph glyph-name="afii10069" unicode="&#x434;" horiz-adv-x="909" 
d="M291 1316h601.001v-4c-25.333 0 -43.333 -14.667 -54 -44l-2 -13v-1239c0 -50.667 -23.667 -116.667 -71 -198c-116.667 -169.333 -306 -254 -568 -254c-79.333 0 -139.333 38 -180 114c-12 30.667 -18 57 -18 79h2l-2 1c0 68.667 32.333 124.667 97 168
c33.333 18 65.666 27 96.999 27c75.333 0 133.666 -36.333 174.999 -109c13.333 -27.333 20 -54.666 20 -81.999v-7c0 -70 -34 -126 -102 -168l-25 -10v-2h3c62.667 20 107.334 52 134.001 96c32 54 48 112.333 48 175v153l-4 2h-3v-1l-12 1h-6l-5 -1l-8 1h-116
c-80 0 -153.667 35.667 -221 107c-48 60 -72 124.333 -72 193v716c0 91.333 40.667 170.666 122 237.999c58 40.667 114.667 61 170 61zM388.001 1258l2 -12v-1179l-2 -2l2 -2v-1l-2 -2c8 -36 25.667 -54 53 -54l5 -2v1307h-7c-24.667 0 -41.667 -17.667 -51 -53z" />
    <glyph glyph-name="afii10070" unicode="&#x435;" horiz-adv-x="898" 
d="M302 1318l222.999 -0.000976562c115.333 0 206 -51.667 272 -155c26.667 -53.333 40 -100 40 -140l-1 -10v-186l1 -5c0 -43.333 -14.333 -92 -43 -146c-65.333 -100.667 -155.333 -151 -270 -151h-135v-461c0 -28 14.667 -47 44 -57l12 -2h1v284c0 72 30 120.667 90 146
c16 6 39.333 9 70 9h271l3 -2c-28.667 -6 -43 -19.333 -43 -40v-96l-1 -5l1 -1c0 -52.667 -17.667 -107.667 -53 -165c-36 -53.333 -88.667 -93 -158 -119c-33.333 -10 -62.333 -15 -87 -15h-229l-6 -1l-5 1c-94 0 -175 42.333 -243 127c-38 58 -57 114 -57 168v708l-1 6h1
l-1 2v1c0 98.667 42.667 181.334 128 248.001c54.667 38 113.334 57 176.001 57zM389.999 1314l-0.999023 -1v-782l1 -1v-1c25.333 0 43.666 14.667 54.999 44l1 12v670c0 28.667 -15 48 -45 58z" />
    <glyph glyph-name="afii10072" unicode="&#x436;" horiz-adv-x="1323" 
d="M91 1316c78.667 0 151.335 -33 218.002 -99c30 -35.333 49.333 -67.333 58 -96c14.667 -30 22 -75 22 -135v-266c0 -21.333 11.667 -36 35 -44c6 0 9 -1 9 -3l-21 -7c-15.333 -10.667 -23 -22.334 -23 -35.001v-303c0 -98.667 -28.667 -176.334 -86 -233.001
c-60.667 -63.333 -136.334 -95 -227.001 -95h-132l-3 3c16 2.66699 29.667 8.33398 41 17.001c12 12.667 18 29.334 18 50.001v468c0 52.667 27.333 94 82 124c13.333 5.33301 26.666 9 39.999 11v1c-32 0 -63.667 18.333 -95 55c-18 24.667 -27 52.334 -27 83.001v436
c0 30 -12 50 -36 60c-15.333 3.33301 -23 5.66602 -23 6.99902l2 1h148zM738.001 1316l142.998 0.00292969l3 -2c-17.333 0 -34 -9.33301 -50 -28c-6 -11.333 -9 -25 -9 -41v-569h5c12 0 23.333 7.33301 34 22l5 17v270c0 94.667 24 168.334 72 221.001
c36 46 87.667 79.667 155 101c28 6 52 9 72 9h146l3 -2c-14.667 0 -30 -7.66699 -46 -23c-8 -12 -12 -26.667 -12 -44v-439c0 -48.667 -24.333 -88 -73 -118c-19.333 -10.667 -36 -16 -50 -16v-1c26.667 -3.33301 51.334 -14 74.001 -32
c32.667 -30.667 49 -66.334 49 -107.001v-461c0 -34 12.333 -55.333 37 -64c8 -3.33301 15 -5 21 -5v-1l-3 -3h-132c-119.333 0 -210.666 53 -273.999 159c-26 41.333 -39 99.666 -39 174.999v293c0 21.333 -11.333 35.666 -34 42.999h-10v-600c0 -30.667 12.667 -51 38 -61
l21 -5v-1l-3 -3h-132c-128 0 -223.667 60.333 -287 181c-18 39.333 -27 89.666 -27 150.999v653c0 76 14.667 136.333 44 181c10 23.333 39 55.333 87 96c56.667 36 114 54 172 54z" />
    <glyph glyph-name="afii10073" unicode="&#x437;" horiz-adv-x="844" 
d="M207 1319l132 -0.000976562l12 2c90 0 169.333 -38.667 238 -116c32 -40 53.667 -89 65 -147l4 -45c0 -46 -23 -85 -69 -117c-22.667 -12.667 -42.334 -19 -59.001 -19v-1c48 -7.33301 94.333 -27.666 139 -60.999c49.333 -44.667 78.333 -81.667 87 -111
c19.333 -39.333 29 -76 29 -110l1 -2l-1 -44v-100c0 -50 -25.333 -117 -76 -201c-52 -70.667 -109.333 -122.667 -172 -156c-110.667 -59.333 -236.334 -89 -377.001 -89h-18l-6 -1c-38.667 0 -79 15.667 -121 47c-44.667 42.667 -67 89.667 -67 141v14
c0 60.667 29.333 113 88 157c34.667 20 69.334 30 104.001 30h8c61.333 0 113.333 -29 156 -87c21.333 -33.333 32 -66 32 -98v-17c0 -62 -30.667 -114.333 -92 -157c-21.333 -12.667 -35 -19 -41 -19v-1h2c26 6 49 15 69 27c48 26.667 83.667 76.667 107 150
c8.66699 34.667 13 64 13 88l2 546c0 24 -15 41.667 -45 53l-14 1h-112v3c18.667 0 32.334 11.333 41.001 34l1 10l-1 228v106c0 27.333 -14.333 46.333 -43 57c-10.667 0.666992 -16 2 -16 4v1z" />
    <glyph glyph-name="afii10074" unicode="&#x438;" horiz-adv-x="895" 
d="M228 1314c60 0 102.333 -16.667 127 -50c22.667 -25.333 34 -55 34 -89v-1112c0 -30.667 17.333 -50 52 -58h6v1172c0 58 31 101.333 93 130c17.333 5.33301 41 8 71 8h265l3 -3c-28.667 -6.66699 -43 -19.667 -43 -39v-1214c0 -25.333 15.333 -43.333 46 -54
c8 0 12 -1 12 -3l-3 -2h-233l-352 1l-5 -1c-65.333 0 -129 23.667 -191 71c-74 64.667 -111 146 -111 244v957c0 16.667 -11.333 29 -34 37c-6 0 -9 1 -9 3l2 2h270z" />
    <glyph glyph-name="afii10075" unicode="&#x439;" horiz-adv-x="905" 
d="M231 1314c60 0 102.333 -16.667 127 -50c22.667 -25.333 34 -55 34 -89v-1112c0 -30.667 17.333 -50 52 -58h6v1172c0 58 31 101.333 93 130c17.333 5.33301 41 8 71 8h265l3 -3c-28.667 -6.66699 -43 -19.667 -43 -39v-1214c0 -25.333 15.333 -43.333 46 -54
c8 0 12 -1 12 -3l-3 -2h-233l-352 1l-5 -1c-65.333 0 -129 23.667 -191 71c-74 64.667 -111 146 -111 244v957c0 16.667 -11.333 29 -34 37c-6 0 -9 1 -9 3l2 2h270zM741 1564l2.99902 -2.00098v-5c0 -53.333 -26.333 -101 -79 -143c-50 -26.667 -86 -44 -108 -52
c-45.333 -16 -91.666 -24 -138.999 -24c-75.333 0 -147.666 20.333 -216.999 61c-40.667 16.667 -71.334 46.334 -92.001 89.001c-11.333 25.333 -17 50.333 -17 75l1 1h648zM417.999 1458c-38.667 -49.333 -87.667 -74 -147 -74h-6l-14 2h-1v-2
c54.667 -24 109.334 -36 164.001 -36h10c53.333 0 107.666 12 162.999 36v2l-21 -2h-4c-56.667 0 -104.667 24.667 -144 74z" />
    <glyph glyph-name="afii10076" unicode="&#x43a;" horiz-adv-x="901" 
d="M599 1327l287.001 -0.000976562v-3h-3c-17.333 0 -30.333 -11.667 -39 -35v-65c0 -84 -13.667 -145.333 -41 -184c-6.66699 -21.333 -31.667 -52 -75 -92c-63.333 -44.667 -121.333 -67 -174 -67v-1c61.333 0 123.333 -26 186 -78
c68.667 -65.333 103 -138.666 103 -219.999v-531c0 -26.667 13 -42.334 39 -47.001h3v-3h-287c-71.333 0 -119 34.667 -143 104c-2.66699 10 -4 19.667 -4 29v682c0 26.667 -12 45.667 -36 57c-7.33301 2.66699 -14 4 -20 4h-3v-742c0 -51.333 -26.667 -92 -80 -122
c-18.667 -8.66699 -40.667 -13 -66 -13h-289v3h6c24.667 5.33301 37 18.666 37 39.999v12v1212c0 24.667 -8 41.334 -24 50.001l-13 3h-6v3h292c65.333 0 111.333 -33 138 -99c3.33301 -15.333 5 -27.666 5 -36.999v-301l3 -2c25.333 0 43.666 15.333 54.999 46l1 12v245
c0 58.667 30 102 90 130c16.667 6.66699 36 10 58 10z" />
    <glyph glyph-name="afii10077" unicode="&#x43b;" horiz-adv-x="905" 
d="M301 1315h232.001c102 0 187 -45.667 255 -137c33.333 -50 50 -114.667 50 -194v-939c0 -22 13 -36 39 -42h3v-3h-268c-56.667 0 -96.334 13 -119.001 39c-30 23.333 -45 65 -45 125v1148c-27.333 0 -46 -14.667 -56 -44c-2 -4 -3 -9.66699 -3 -17v-935
c0 -114 -48.667 -203.333 -146 -268c-48 -31.333 -107 -47 -177 -47l-124 2v2c28.667 0 47.667 16.667 57 50l1 14v930c0 122.667 53 215.667 159 279c46 24.667 93.333 37 142 37z" />
    <glyph glyph-name="afii10078" unicode="&#x43c;" horiz-adv-x="1356" 
d="M306 1317h141.001l3 -3c-28.667 0 -48.334 -16.333 -59.001 -49v-923c0 -87.333 -15.667 -152 -47 -194c-32.667 -60 -91 -105.333 -175 -136c-30.667 -8 -59 -12 -85 -12h-140l-3 3c39.333 6.66699 59 26.667 59 60v920c-0 87.333 19.333 156 58 206
c36.667 47.333 75 79.333 115 96c42 21.333 86.333 32 133 32zM459.001 1317l78.001 -0.000976562c110 0 198 -42.333 264 -127c30 -44.667 45 -88.667 45 -132l2 -476c0 -17.333 11.333 -33 34 -47c10.667 -3.33301 18.667 -5 24 -5v728c0 26.667 -16 45 -48 55
c-6.66699 0 -10 0.666992 -10 2l1 2h142c101.333 0 185.666 -45 252.999 -135c36 -49.333 54 -115.666 54 -198.999v-920c0 -26.667 13.333 -45.334 40 -56.001c12 -2 18 -3.66699 18 -5l-1 -2h-141c-104.667 0 -191 47.667 -259 143c-32.667 50 -49 112.667 -49 188v196
h-129l-18 -1c-69.333 0 -136.333 26.667 -201 80c-36.667 36.667 -62 71.334 -76 104.001c-17.333 38 -26 89.333 -26 154v450z" />
    <glyph glyph-name="afii10079" unicode="&#x43d;" horiz-adv-x="911" 
d="M-40 1318l-0.000976562 0.999023h274c60.667 0 103.667 -18.333 129 -55c20 -24.667 30 -53.667 30 -87v-540h58v545c0 49.333 24.333 89 73 119c18.667 12 47.334 18 86.001 18h275v-4h-5c-15.333 0 -27.333 -10 -36 -30c-1.33301 -3.33301 -2 -8.33301 -2 -15v-1222
c0 -22 10.333 -36.667 31 -44c8.66699 -0.666992 13 -1.66699 13 -3l-1 -1h-284c-70.667 0 -118.667 32.333 -144 97c-4 16 -6 29.333 -6 40v496c-26 0 -44.667 -14 -56 -42l-2 -14v-436c0 -61.333 -31 -105.666 -93 -132.999c-16 -5.33301 -35 -8 -57 -8h-282l-3 2
c28.667 5.33301 43 18.333 43 39l1 11v1214c0 24 -9.33301 39.667 -28 47c-9.33301 2 -14 3.66699 -14 5z" />
    <glyph glyph-name="afii10080" unicode="&#x43e;" horiz-adv-x="908" 
d="M300 1317h237c88.667 0 167 -38.333 235 -115c44.667 -57.333 67 -125.666 67 -204.999v-688c0 -104 -44.667 -189 -134 -255c-53.333 -36 -113.333 -54 -180 -54h-77l-2 1l-1 -1h-1l-1 1l-1 -1h-48l-2 1l-1 -1h-96l-1 1l-1 -1c-29.333 0 -66.666 9 -111.999 27
c-31.333 13.333 -63.333 36 -96 68c-56.667 63.333 -85 131.666 -85 204.999v724c0 68 28.667 134.667 86 200c65.333 62 136.666 93 213.999 93zM390 1251v-1246c25.333 0 43.333 12.333 54 37l5 21l-1 12v1236l-2 1v1c-23.333 0 -41.333 -13.667 -54 -41z" />
    <glyph glyph-name="afii10081" unicode="&#x43f;" horiz-adv-x="908" 
d="M528 1313l6.99902 1c71.333 0 138 -25.333 200 -76c69.333 -66 104 -140.667 104 -224v-969c0 -19.333 10.667 -32.666 32 -39.999c8 -0.666992 12 -1.66699 12 -3l-2 -1h-291c-60.667 0 -105 30.667 -133 92c-5.33301 16.667 -8 39 -8 67v474l1 623
c0 20 -13 36.333 -39 49l-13 3h-5l-1 -1266v-41l-2 -2h-299l-144 1l-2 1v1c18.667 3.33301 32.334 8.66602 41.001 15.999c11.333 12.667 17 26 17 40v517l1 683c0 20 -12.333 35.667 -37 47c-13.333 2.66699 -20 4.66699 -20 6l1 1h580z" />
    <glyph glyph-name="afii10082" unicode="&#x440;" horiz-adv-x="898" 
d="M137 1316h406.999c74.667 0 145.667 -33.333 213 -100c52 -60 78 -128.667 78 -206v-705c0 -108.667 -52.333 -197 -157 -265c-49.333 -25.333 -100.666 -38 -153.999 -38h-134v-141l-2 -2l2 -1c0 -41.333 -15.667 -91 -47 -149c-64.667 -95.333 -156.667 -143 -276 -143
h-107v3c26.667 6.66699 40 18 40 34v1561c0 76 33.667 125 101 147c8.66699 3.33301 20.667 5 36 5zM387.999 13c26 0 44.333 15 55 45l2 9l-2 2l2 9v1233l-3 4c-24.667 0 -42.667 -15.667 -54 -47v-1255z" />
    <glyph glyph-name="afii10083" unicode="&#x441;" horiz-adv-x="908" 
d="M304 1317l234.002 0.000976562c74.667 0 144 -29 208 -87c61.333 -66 92 -136 92 -210v-11c0 -64.667 -31.333 -118.334 -94 -161.001c-30.667 -19.333 -63.667 -29 -99 -29h-5c-74.667 0 -133 37.667 -175 113c-11.333 28 -17 54.333 -17 79v21l1 4l-1 7v208l1 6
c0 24.667 -15.333 42.667 -46 54l-13 2l1 -745v-501l-1 -6c0 -24.667 14.667 -42.667 44 -54l11 -2h4v297c0 66 34.333 111.333 103 136c14 4 33.667 6 59 6h228l2 -2l1 2l9 -2h14l5 2l1 -2h2l8 2l1 -2v-1c-18.667 0 -32.334 -10.667 -41.001 -32
c-2 -4.66699 -3 -12.667 -3 -24v-72l1 -6l-1 -5c0 -96 -42.667 -177.667 -128 -245c-30.667 -22 -67.667 -38.333 -111 -49c-16 -3.33301 -35 -6 -57 -8l-1 1l-9 -1h-134l-1 1l-2 -1h-83l-1 1l-4 -1c-98.667 0 -182.334 43.667 -251.001 131
c-36.667 56.667 -55 114.667 -55 174v710c0 99.333 45.333 183 136 251c54 34 109.667 51 167 51z" />
    <glyph glyph-name="afii10084" unicode="&#x442;" horiz-adv-x="1356" 
d="M394 1316l5 1.00098l2 -1h1l4 1v-1l1 1h1l10 -1l1 1l9 -1h395l10 1l10 -1h144c86.667 0 162.667 -36.667 228 -110c48 -60 72 -122.333 72 -187v-972c0 -21.333 11.333 -35.333 34 -42l9 -1l-3 -3h-291c-46.667 0 -85.334 21 -116.001 63c-15.333 20 -23 54 -23 102v469
l1 625c0 14 -9 28.333 -27 43c-8.66699 4.66699 -18.667 7.66699 -30 9l-1 -1v-1043l-1 -220c4.66699 -29.333 19.334 -44 44.001 -44l-2 -3h-287c-62 0 -106.333 28.667 -133 86c-7.33301 14.667 -11 35.667 -11 63v1131c0 16.667 -19.333 27.667 -58 33v-1313l-9 -1h-294
l-143 1l-2 1v2c20 0 37.333 10 52 30l7 25l-1 9v491l1 706c-3.33301 16 -10 27.667 -20 35c-6 5.33301 -18.333 9.66602 -37 12.999v1l1 2h447z" />
    <glyph glyph-name="afii10085" unicode="&#x443;" horiz-adv-x="898" 
d="M-40 1318l295.003 0.00195312c60 0 103.333 -32 130 -96c4.66699 -14 7 -30 7 -48v-1110c5.33301 -37.333 24 -56 56 -56v1150c0 84.667 36 137 108 157l29 3h296v-3c-28.667 0 -43 -20 -43 -60v-1244c0 -53.333 -27.333 -123.333 -82 -210
c-54 -68 -109 -116.667 -165 -146c-110.667 -58.667 -234.334 -88 -371.001 -88h-39c-44.667 0 -88.334 22.333 -131.001 67c-30.667 38 -46 76 -46 114v28c0 52 28 100.667 84 146c35.333 21.333 68.666 32 99.999 32h18c66.667 0 121.667 -35.333 165 -106
c12.667 -29.333 19 -56.333 19 -81v-14c0 -71.333 -36.667 -127.333 -110 -168l-14 -6v-1h1c58.667 16.667 99.667 44 123 82c38.667 53.333 58 113.666 58 180.999v161h-124c-144.667 0 -246 67.333 -304 202c-12 35.333 -18 67.666 -18 96.999v966
c-3.33301 32 -16 48 -38 48h-4v3z" />
    <glyph glyph-name="afii10086" unicode="&#x444;" horiz-adv-x="1339" 
d="M309 1315l86.998 -1l135 1h440c116.667 0 207.334 -53.667 272.001 -161c24 -46 36 -95.333 36 -148v-686c0 -108 -42.333 -193.667 -127 -257c-54.667 -38.667 -114 -58 -178 -58h-142v-144c0 -86.667 -38.333 -163.667 -115 -231c-58 -43.333 -120 -65 -186 -65h-124v3
h3c18.667 0 31 13 37 39v398h-142c-101.333 0 -184.666 44 -249.999 132c-36.667 50 -55 114 -55 192v676c-0 118 53.333 209 160 273c46 24.667 95.667 37 149 37zM839.998 1262l-2.00098 -216v-1043l2 -1v-2c26.667 0 45.334 15.667 56.001 47l2 14v1253
c-27.333 0 -46.333 -15.333 -57 -46zM389.997 1312v-1249c0 -31.333 15.333 -51.666 46 -60.999l12 -2l2 2v1245c0 30 -12.667 50.667 -38 62l-19 3h-3z" />
    <glyph glyph-name="afii10087" unicode="&#x445;" horiz-adv-x="908" 
d="M-42 1314l290.999 -0.00195312c62 0 106 -30.667 132 -92c5.33301 -11.333 8 -24.666 8 -39.999v-160l2 -5l-2 -8v-229c0 -30 11 -50 33 -60c7.33301 -4 16 -6 26 -6v277c0 148.667 68.667 251.334 206 308.001c35.333 10 65 15 89 15h150l3 -3
c-39.333 -6.66699 -59 -25.667 -59 -57v-222c0 -127.333 -54.667 -222.333 -164 -285c-46.667 -22 -85.667 -33 -117 -33v-2c47.333 0 100 -19.333 158 -58c82 -66.667 123 -149 123 -247v-350c0 -28 10.333 -44.667 31 -50l8 -2h5v-3l-10 -2l-10 2l-2 -2l-8 2h-268
c-54.667 0 -96.667 29.667 -126 89c-5.33301 18 -8 33 -8 45v494c0 41.333 -11.333 65.666 -34 72.999c0 2.66699 -7.66699 4.66699 -23 6h-1l-2 -92v-41l2 -268c0 -102 -45.333 -187 -136 -255c-58 -35.333 -112.333 -53 -163 -53l-29 2h-119v3c25.333 0 43.333 14 54 42
c2 4.66699 3 11.334 3 20.001v337c0 106.667 48.667 194 146 262c55.333 28.667 101 43 137 43v2c-65.333 0 -131 30 -197 90c-57.333 64 -86 132 -86 204v260c-3.33301 30.667 -17.666 46 -42.999 46v3z" />
    <glyph glyph-name="afii10088" unicode="&#x446;" horiz-adv-x="913" 
d="M-41 1323l281 0.00195312c72 0 120.333 -33 145 -99c4 -14.667 6 -28.334 6 -41.001v-1115c0 -33.333 15.667 -54 47 -62l13 -2v1183c0 54 26.667 95 80 123c16 8.66699 34.667 13 56 13h292v-4c-24.667 -4 -37 -18.667 -37 -44v-1213
c4.66699 -38.667 23.334 -58 56.001 -58h37l4 -3v-41c-42.667 -36.667 -64 -112.334 -64 -227.001v-22l-3 -4h-67c-38.667 0 -65.667 22.333 -81 67l-1 15v151c-5.33301 39.333 -23.333 59 -54 59l-30 2h-334c-110.667 0 -198.667 51.333 -264 154
c-27.333 48 -41 98.333 -41 151v967c-2.66699 30.667 -16.334 46 -41.001 46v4z" />
    <glyph glyph-name="afii10089" unicode="&#x447;" horiz-adv-x="898" 
d="M-43 1317h268c58 0 99 -14.333 123 -43c26 -28 39 -58.333 39 -91v-798c0 -33.333 11.333 -55.333 34 -66c10.667 -3.33301 18.667 -5 24 -5v852c0 74 34.667 122.333 104 145c15.333 4 34.333 6 57 6h172l94 -2v-2c-21.333 0 -34.333 -14.333 -39 -43v-1223
c0 -20.667 11 -35 33 -43l9 -1v-3h-266c-52.667 -0 -89.667 10.333 -111 31c-35.333 28 -53 66.667 -53 116v163h-126c-90 0 -164.333 27.667 -223 83c-64 64 -96 136.667 -96 218v413l-1 255c-8 23.333 -22 35 -42 35v3z" />
    <glyph glyph-name="afii10090" unicode="&#x448;" horiz-adv-x="1346" 
d="M-43 1318l293.999 0.000976562c52 0 92.667 -25 122 -75c11.333 -17.333 17 -45.666 17 -84.999v-479l-2 -620c0 -20 12 -36.667 36 -50c6.66699 -2.66699 14 -4 22 -4h1v1266c-4 29.333 -18 44 -42 44v3h294c58.667 0 102 -30.667 130 -92
c5.33301 -14.667 8 -31.667 8 -51v-1137c0 -19.333 18.667 -31.333 56 -36l2 2v1185c0 35.333 18 68.666 54 99.999c22 19.333 58.333 29 109 29h266l3 -3c-29.333 -6 -44 -20.667 -44 -44l2 -226v-725c0 -128.667 -57 -224.334 -171 -287.001
c-49.333 -21.333 -88.333 -32 -117 -32l-260 -1h-35l-421 1c-30.667 0 -73 12.667 -127 38c-22.667 12.667 -49 34.667 -79 66c-35.333 38 -59.666 88.667 -72.999 152l-4 34l1 41v920c0 30 -6 48.667 -18 56c-9.33301 4.66699 -17.333 7 -24 7v3z" />
    <glyph glyph-name="afii10091" unicode="&#x449;" horiz-adv-x="1367" 
d="M1075 1325l164.002 -0.000976562l91 -2v-4c-20 0 -32 -15 -36 -45v-1270l121 2l2 -2v-39c-42 -40 -63 -113.333 -63 -220v-31l-4 -4h-69c-34.667 0 -60.334 20 -77.001 60c-2 5.33301 -3 13.333 -3 24v140c0 30.667 -10.333 51.334 -31 62.001l-7 3l-653 2h-193
c-130 0 -226.333 61 -289 183c-17.333 42.667 -26 79.667 -26 111v977c-2.66699 31.333 -15.334 47 -38.001 47v4h293c57.333 0 99.666 -30.333 126.999 -91c6 -13.333 9 -30.333 9 -51v-1117c0 -28 15.333 -47.333 46 -58h12v1270c-3.33301 28.667 -16 43 -38 43v4h293
c64 0 109 -35.667 135 -107l3 -51v-1108c8.66699 -34 25 -51 49 -51h10v1180c0 61.333 32.667 105 98 131c14.667 5.33301 39.334 8 74.001 8z" />
    <glyph glyph-name="afii10092" unicode="&#x44a;" horiz-adv-x="1054" 
d="M229 1315l10 -0.99707h52l9 1l1 -1l8 1h343l3 -3v-489l-1 -2l1 -1v-2l-1 -4l1 -4l2 1h109l1 -1l1 1c62 0 120 -26 174 -78c42 -48.667 63 -103.334 63 -164.001v-327c0 -78 -32.667 -143 -98 -195c-42 -31.333 -93.667 -47 -155 -47h-58l-21 1l-4 -1v1l-2 -1h-4l-2 1
l-1 -1h-2l-1 1l-2 -1h-1l-2 1l-10 -1h-295l-13 1l-5 -1v1l-1 -1h-2l-1 1h-2l-1 -1h-2l-7 1v3h3c22.667 4 34 13.333 34 28v1254c-4.66699 17.333 -19.334 26 -44.001 26l-2 -1l2 -2l-2 -15v-214l2 -9l-2 -7v-55l2 -7h-2c0 -16 11.333 -26.667 34 -32v-2l-10 -1l-2 1l-10 -1
h-178c-52 0 -85.333 9.33301 -100 28c-25.333 21.333 -38 46.666 -38 75.999v9c0 82.667 40.667 150.667 122 204c38.667 19.333 74.334 29.666 107.001 30.999zM655 802.003l-1 0.000976562l1 -1v-797h2c28 5.33301 42 19.666 42 42.999v719
c0 18.667 -11.667 31.667 -35 39l-9 2v-5z" />
    <glyph glyph-name="afii10093" unicode="&#x44b;" horiz-adv-x="1335" 
d="M-43 1323l290.001 0.000976562c68 0 115 -35.333 141 -106c2.66699 -16.667 4 -36.334 4 -59.001v-273h150c90.667 0 170.334 -41 239.001 -123c40.667 -54 61 -123 61 -207v-213c0 -88.667 -16.667 -155 -50 -199c-32.667 -57.333 -88 -100.333 -166 -129
c-30.667 -9.33301 -62.334 -14 -95.001 -14h-215c-124.667 0 -219.334 56 -284.001 168c-21.333 47.333 -32 94 -32 140v967c0 22 -11 37 -33 45h-10v3zM891.001 1322h444v-2h-3c-24.667 0 -42 -14.667 -52 -44l-2 -7l2 -688v-575l-3 -3h-386l-2 3v1314zM393.001 879.001
v-211l-1 -604c0 -28 14.667 -47.333 44 -58l12 -2h3v818c0 26 -15 44.667 -45 56z" />
    <glyph glyph-name="afii10094" unicode="&#x44c;" horiz-adv-x="895" 
d="M-42 1318l289.001 -0.00195312c68 0 114.667 -35 140 -105c2.66699 -16 4 -35.667 4 -59v-272h150c90 0 169.333 -41 238 -123c40.667 -53.333 61 -121.666 61 -204.999v-212c0 -89.333 -16.667 -155.666 -50 -198.999c-32.667 -57.333 -87.667 -100 -165 -128
c-30.667 -10 -62.334 -15 -95.001 -15h-214c-124.667 -0 -219 56.333 -283 169c-22 46 -33 92.333 -33 139v963c0 22 -11 36.667 -33 44h-9v3zM391.001 878.998v-211.001l-1 -604c0 -27.333 14.667 -46.666 44 -57.999l12 -1h3v818c0 26 -15 44.333 -45 55z" />
    <glyph glyph-name="afii10095" unicode="&#x44d;" horiz-adv-x="896" 
d="M699 1267c30 -20.667 58.0029 -47.667 84.0029 -81c36.667 -59.333 55 -115.333 55 -168l-1 -6v-715c0 -78.667 -33.333 -151 -100 -217c-64 -53.333 -130.667 -80 -200 -80l-1 1l-1 -1h-10l-2 1l-1 -1h-204c-108.667 -0 -194.334 41.333 -257.001 124
c-41.333 48.667 -62 119.667 -62 213v61c0 23.333 -14.333 37.666 -43 42.999l3 2h274c34.667 0 61.334 -5 80.001 -15c51.333 -30 77 -72.667 77 -128l-2 -1l2 -6v-242l-2 -7l2 -2v-1l-2 -2l2 -5v-29h11c30.667 11.333 46 29.333 46 54v454h-280
c-20.667 0 -39.334 2.66699 -56.001 8c-62 25.333 -93 74 -93 146v63l2 14c0 23.333 -14.667 38 -44 44l3 3h272c36.667 0 63.667 -5.33301 81 -16c52 -27.333 78 -71.666 78 -132.999v-88c0 -18 12.333 -30.333 37 -37v494l1 7l-1 4v279l1 7l-1 5
c-32.667 0 -52.334 -20 -59.001 -60l2 -6v-238l-2 -1h2c0 -36 -16.667 -69.667 -50 -101c-22.667 -22.667 -60.334 -34 -113.001 -34h-269l-2 2c0 1.33301 3 2 9 2c23.333 6 35 23.667 35 53v76l-1 7l1 5v3c0 52 16.667 104.333 50 157c65.333 92.667 151.333 139 258 139
h231c52 0 105.333 -16.667 160 -50z" />
    <glyph glyph-name="afii10096" unicode="&#x44e;" horiz-adv-x="1346" 
d="M389 1322l2.00098 -3.00098v-626h57v316c0 100.667 44.333 184.667 133 252c55.333 36 110.666 54 165.999 54h237c89.333 0 166.666 -37.333 231.999 -112c32.667 -37.333 54.667 -85.333 66 -144c3.33301 -18.667 5 -44.667 5 -78v-661
c0 -135.333 -61.333 -233.666 -184 -294.999c-41.333 -16.667 -81 -25 -119 -25h-234c-74 -0 -142 27.333 -204 82c-65.333 62.667 -98 139.667 -98 231v378c-25.333 0 -43.666 -15.333 -54.999 -46l-2 -13v-628l-2 -2h-386l-2 2v1263c0 22.667 -13.667 39 -41 49
c-11.333 2 -17 3.66699 -17 5l2 1h444zM839.001 1258v-1255c30 0 49.333 17 58 51v1257h-5c-19.333 0 -35 -10.667 -47 -32c-4 -6.66699 -6 -13.667 -6 -21z" />
    <glyph glyph-name="afii10097" unicode="&#x44f;" horiz-adv-x="888" 
d="M312 1321l579.999 0.000976562l2 -2c-14.667 0 -29.334 -6.33301 -44.001 -19c-10 -12 -15 -23.667 -15 -35l1 -1141v-52c0 -28 14.333 -47.333 43 -58c10.667 -1.33301 16 -3 16 -5l-1 -1h-144c-86.667 0 -163 35.333 -229 106c-49.333 60 -74 127 -74 201v401h-1
c-22.667 0 -40 -11.667 -52 -35c-4 -6.66699 -6 -15.334 -6 -26.001v-518c0 -48.667 -23.333 -88 -70 -118c-20 -12.667 -45 -19 -75 -19h-286v2c20 0 34 11.333 42 34l1 11v364c0 102 42.667 185.667 128 251c44 30.667 91 49 141 55l12 1h1c0 1.33301 -11 3 -33 5
c-37.333 9.33301 -65.666 19.333 -84.999 30c-22.667 10.667 -51.667 33 -87 67c-23.333 28.667 -40.666 55.667 -51.999 81c-15.333 40 -23 68.667 -23 86l-3 33c0 74.667 28.667 143.667 86 207c62 62.667 137.667 94 227 94zM386.999 1257l1 -476
c0 -28 15.333 -47.333 46 -58l13 -1v1l-2 216v378h-2c-26 0 -44 -14.667 -54 -44z" />
    <glyph glyph-name="afii10071" unicode="&#x451;" horiz-adv-x="898" 
d="M36 1561l0.999023 2.00098h749l3 -3c0 -75.333 -36.667 -139 -110 -191c-38.667 -20 -73.667 -30 -105 -30h-23c-45.333 0 -91.666 18.667 -138.999 56h-1c-43.333 -37.333 -90.333 -56 -141 -56h-19c-64.667 0 -123 31.667 -175 95
c-26.667 43.333 -40 85.666 -40 126.999zM307.999 1315l212.001 -0.000976562c122 0 215 -53.333 279 -160c24.667 -45.333 37 -99.333 37 -162v-142c0 -136 -55.667 -233.667 -167 -293c-42 -23.333 -89.667 -35 -143 -35h-137v-464c0 -24 13.667 -41.333 41 -52
c3.33301 -2 8.33301 -3 15 -3h2v281c0 75.333 30.667 125 92 149c15.333 6 39 9 71 9h268v-3c-28 -5.33301 -42 -19 -42 -41v-78c0 -131.333 -57 -227.666 -171 -288.999c-44 -20.667 -85.333 -31 -124 -31h-146l-9 -1l-7 1h-62l-14 -1c-76 0 -145.667 28.667 -209 86
c-62.667 62.667 -94 137.667 -94 225v697c-0 109.333 49.333 197 148 263c49.333 29.333 102.666 44 159.999 44zM388 1310l1 -745v-37h7c34 7.33301 51 26.333 51 57v669c0 25.333 -13.333 43.333 -40 54l-12 2h-7z" />
    <glyph glyph-name="afii10099" unicode="&#x452;" 
 />
    <glyph glyph-name="afii10100" unicode="&#x453;" horiz-adv-x="747" 
 />
    <glyph glyph-name="afii10101" unicode="&#x454;" horiz-adv-x="908" 
d="M297 1317h231.003c106.667 0 192.667 -46.333 258 -139c33.333 -52.667 50 -105 50 -157v-3l1 -5l-1 -7v-76c0 -29.333 11.667 -47 35 -53c6 0 9 -0.666992 9 -2l-2 -2h-269c-52.667 0 -90.334 11.333 -113.001 34c-33.333 31.333 -50 65 -50 101h2l-2 1v238l2 6
c-6.66699 40 -26.334 60 -59.001 60l-1 -5l1 -7v-279l-1 -4l1 -7v-494c24.667 6.66699 37 19 37 37v88c0 61.333 26 105.666 78 132.999c17.333 10.667 44.333 16 81 16h272l3 -3c-29.333 -6 -44 -20.667 -44 -44l2 -14v-63c0 -72 -31 -120.667 -93 -146
c-16.667 -5.33301 -35.334 -8 -56.001 -8h-280v-454c0 -24.667 15.333 -42.667 46 -54h11v29l2 5l-2 2v1l2 2l-2 7v242l2 6l-2 1c0 55.333 25.667 98 77 128c18.667 10 45.334 15 80.001 15h274l3 -2c-28.667 -5.33301 -43 -19.666 -43 -42.999v-61
c0 -93.333 -20.667 -164.333 -62 -213c-62.667 -82.667 -148.334 -124 -257.001 -124h-204l-1 1l-2 -1h-10l-1 1l-1 -1c-69.333 0 -136 26.667 -200 80c-66.667 66 -100 138.333 -100 217v715l-1 6c0 52.667 18.333 108.667 55 168c26 33.333 54 60.333 84 81
c54.667 33.333 108 50 160 50z" />
    <glyph glyph-name="afii10102" unicode="&#x455;" horiz-adv-x="1024" 
 />
    <glyph glyph-name="afii10103" unicode="&#x456;" horiz-adv-x="461" 
d="M411 1565c2 0 3 -1.66699 3 -5c0 -78 -38 -141.667 -114 -191c-36 -19.333 -69 -29 -99 -29h-13l-9 -1c-40.667 0 -84.667 16.333 -132 49c-57.333 50.667 -86 109 -86 175l2 2h448zM-37 1322h271.998c74 0 123.667 -28.333 149 -85c7.33301 -20 11 -38.667 11 -56v-1115
c0 -30 16.333 -49 49 -57c7.33301 -1.33301 11 -3 11 -5l-2 -1h-53l-1 1l-2 -1h-91l-6 1l-2 -1c-56 6.66699 -97.333 17.667 -124 33c-77.333 40.667 -129.666 102.667 -156.999 186c-8 32 -12 62.333 -12 91v960c-3.33301 29.333 -15.666 44 -36.999 44h-5v5z" />
    <glyph glyph-name="afii10104" unicode="&#x457;" horiz-adv-x="460" 
d="M556 1565c1.33301 0 1.99902 -0.666992 1.99902 -2c0 -60 -24.333 -114 -73 -162c-45.333 -39.333 -96 -59 -152 -59c-55.333 0 -105.666 19.333 -150.999 58c-44 -38.667 -94.333 -58 -151 -58c-56 0 -106.667 20 -152 60c-48.667 48 -73 102.333 -73 163h750z
M238.999 1323c70 0 117.334 -28.666 142.001 -85.999c7.33301 -14.667 11 -36 11 -64v-1113c0 -24.667 13.667 -42.667 41 -54c12 -2 18 -3.33301 18 -4l-1 -1h-1l-132 -1c-120 0 -212 52.333 -276 157c-26.667 46.667 -40 98.667 -40 156v961c0 20.667 -8.33301 35 -25 43
c-2.66699 1.33301 -8.33398 2.66602 -17.001 3.99902v1l1 1h279z" />
    <glyph glyph-name="afii10105" unicode="&#x458;" horiz-adv-x="455" 
 />
    <glyph glyph-name="afii10106" unicode="&#x459;" horiz-adv-x="1856" 
 />
    <glyph glyph-name="afii10107" unicode="&#x45a;" horiz-adv-x="1664" 
 />
    <glyph glyph-name="afii10108" unicode="&#x45b;" 
 />
    <glyph glyph-name="afii10109" unicode="&#x45c;" horiz-adv-x="896" 
 />
    <glyph glyph-name="afii10110" unicode="&#x45e;" horiz-adv-x="1024" 
 />
    <glyph glyph-name="afii10193" unicode="&#x45f;" horiz-adv-x="1131" 
 />
    <glyph glyph-name="afii10050" unicode="&#x490;" horiz-adv-x="769" 
d="M578 1841l0.000976562 -2.00098l2 2h301v-4c-28.667 -6 -43 -20 -43 -42v-95c0 -55.333 -27.333 -97.666 -82 -126.999c-19.333 -8.66699 -39 -13 -59 -13h-297v-1557l-4 -3h-448v3h4c35.333 4 53 17 53 39l-2 2l2 9v1450c0 29.333 -5.33301 44 -16 44
c-8.66699 8.66699 -22.334 13 -41.001 13v4h453c27.333 5.33301 41 18 41 38v85c0 70.667 31.667 119.667 95 147z" />
    <glyph glyph-name="afii10098" unicode="&#x491;" horiz-adv-x="760" 
d="M563 1598l265 0.000976562l12 2v-2l2 2h1l5 -2l11 2v-2l1 2l9 -2h12v-3h-19c-20 0 -33 -13.667 -39 -41l1 -12v-79l-1 -1l1 -2c0 -52.667 -27.333 -95 -82 -127c-20 -7.33301 -38.667 -11 -56 -11h-303l-1 -1286v-14l1 -15l-1 -7h-388l-3 3v1269
c0 20.667 -13.667 36 -41 46c-12 1.33301 -18 3 -18 5l2 2h453c29.333 3.33301 44 17 44 41v96c0 61.333 34.333 105.666 103 132.999z" />
    <glyph glyph-name="Wgrave" unicode="&#x1e80;" horiz-adv-x="1933" 
 />
    <glyph glyph-name="wgrave" unicode="&#x1e81;" horiz-adv-x="1479" 
 />
    <glyph glyph-name="Wacute" unicode="&#x1e82;" horiz-adv-x="1933" 
 />
    <glyph glyph-name="wacute" unicode="&#x1e83;" horiz-adv-x="1479" 
 />
    <glyph glyph-name="Wdieresis" unicode="&#x1e84;" horiz-adv-x="1933" 
 />
    <glyph glyph-name="wdieresis" unicode="&#x1e85;" horiz-adv-x="1479" 
 />
    <glyph glyph-name="Ygrave" unicode="&#x1ef2;" horiz-adv-x="1366" 
 />
    <glyph glyph-name="ygrave" unicode="&#x1ef3;" horiz-adv-x="1024" 
 />
    <glyph glyph-name="endash" unicode="&#x2013;" 
 />
    <glyph glyph-name="emdash" unicode="&#x2014;" horiz-adv-x="2048" 
 />
    <glyph glyph-name="afii00208" unicode="&#x2015;" horiz-adv-x="2048" 
 />
    <glyph glyph-name="underscoredbl" unicode="&#x2017;" horiz-adv-x="1131" 
 />
    <glyph glyph-name="quoteleft" unicode="&#x2018;" horiz-adv-x="446" 
d="M258 1838c80 -38.667 120 -99.666 120 -182.999v-229l1 -15c10 -30.667 29 -46 57 -46v-1l-3 -3h-141c-76.667 0 -145.667 29.667 -207 89c-58 61.333 -87 129.666 -87 204.999v15c0 12.667 2.33301 27 7 43c14 45.333 39 80.333 75 105c37.333 22 70.333 33 99 33l1 -1
v1c26.667 0 52.667 -4.33301 78 -13z" />
    <glyph glyph-name="quoteright" unicode="&#x2019;" horiz-adv-x="485" 
d="M256 1851v-1.00098l1 1c28.667 0 61.667 -11 99 -33c36 -24.667 61 -59.667 75 -105c4.66699 -16 7 -30.333 7 -43v-15c0 -75.333 -29 -143.666 -87 -204.999c-61.333 -59.333 -130.333 -89 -207 -89h-141l-3 3v1c28 0 47 15.333 57 46l1 15v229
c0 83.333 40 144.333 120 183c25.333 8.66699 51.333 13 78 13z" />
    <glyph glyph-name="quotesinglbase" unicode="&#x201a;" horiz-adv-x="455" 
 />
    <glyph glyph-name="quotereversed" unicode="&#x201b;" horiz-adv-x="455" 
 />
    <glyph glyph-name="quotedblleft" unicode="&#x201c;" horiz-adv-x="713" 
d="M529 1841c80 -38.667 120 -99.667 120 -183v-229l1 -16c10 -30.667 29 -46 57 -46v-1l-2 -2h-142c-76.667 0 -145.667 29.333 -207 88c-58 61.333 -87 130 -87 206v15c0 12.667 2.33301 27 7 43c14 44.667 39 79.667 75 105c37.333 22 70.333 33 99 33l1 -1v1
c26.667 0 52.667 -4.33301 78 -13zM264 1841c80 -38.667 120 -99.667 120 -183v-229l1 -16c10 -30.667 29 -46 57 -46v-1l-2 -2h-142c-76.667 0 -145.667 29.333 -207 88c-58 61.333 -87 130 -87 206v15c0 12.667 2.33301 27 7 43c14 44.667 39 79.667 75 105
c37.333 22 70.333 33 99 33l1 -1v1c26.667 0 52.667 -4.33301 78 -13z" />
    <glyph glyph-name="quotedblright" unicode="&#x201d;" horiz-adv-x="649" 
d="M194 1854v-1l1 1c28.667 0 61.667 -11 99 -33c36 -25.333 61 -60.333 75 -105c4.66699 -16 7 -30.333 7 -43v-15c0 -76 -29 -144.667 -87 -206c-61.333 -58.667 -130.333 -88 -207 -88h-142l-2 2v1c28 0 47 15.333 57 46l1 16v229c0 83.333 40 144.333 120 183
c25.333 8.66699 51.333 13 78 13zM459 1854v-1l1 1c28.667 0 61.667 -11 99 -33c36 -25.333 61 -60.333 75 -105c4.66699 -16 7 -30.333 7 -43v-15c0 -76 -29 -144.667 -87 -206c-61.333 -58.667 -130.333 -88 -207 -88h-142l-2 2v1c28 0 47 15.333 57 46l1 16v229
c0 83.333 40 144.333 120 183c25.333 8.66699 51.333 13 78 13z" />
    <glyph glyph-name="quotedblbase" unicode="&#x201e;" horiz-adv-x="682" 
 />
    <glyph glyph-name="dagger" unicode="&#x2020;" horiz-adv-x="624" 
d="M329 1853v-1084h-46v1084h46zM624 1510l-628 2l1 46l627 -2v-46z" />
    <glyph glyph-name="daggerdbl" unicode="&#x2021;" 
 />
    <glyph glyph-name="bullet" unicode="&#x2022;" horiz-adv-x="717" 
 />
    <glyph glyph-name="ellipsis" unicode="&#x2026;" horiz-adv-x="2048" 
 />
    <glyph glyph-name="perthousand" unicode="&#x2030;" horiz-adv-x="2048" 
 />
    <glyph glyph-name="minute" unicode="&#x2032;" horiz-adv-x="384" 
 />
    <glyph glyph-name="second" unicode="&#x2033;" horiz-adv-x="725" 
 />
    <glyph glyph-name="guilsinglleft" unicode="&#x2039;" horiz-adv-x="682" 
 />
    <glyph glyph-name="guilsinglright" unicode="&#x203a;" horiz-adv-x="682" 
 />
    <glyph glyph-name="exclamdbl" unicode="&#x203c;" horiz-adv-x="1024" 
 />
    <glyph glyph-name="uni203E" unicode="&#x203e;" horiz-adv-x="682" 
 />
    <glyph glyph-name="fraction" unicode="&#x2044;" horiz-adv-x="342" 
 />
    <glyph glyph-name="fraction" unicode="&#x2215;" horiz-adv-x="342" 
 />
    <glyph glyph-name="uni207F" unicode="&#x207f;" horiz-adv-x="747" 
 />
    <glyph glyph-name="franc" unicode="&#x20a3;" 
 />
    <glyph glyph-name="lira" unicode="&#x20a4;" 
 />
    <glyph glyph-name="peseta" unicode="&#x20a7;" horiz-adv-x="2240" 
 />
    <glyph glyph-name="Euro" unicode="&#x20ac;" 
 />
    <glyph glyph-name="afii61248" unicode="&#x2105;" horiz-adv-x="1813" 
 />
    <glyph glyph-name="afii61289" unicode="&#x2113;" horiz-adv-x="662" 
 />
    <glyph glyph-name="afii61352" unicode="&#x2116;" horiz-adv-x="2197" 
 />
    <glyph glyph-name="trademark" unicode="&#x2122;" horiz-adv-x="2048" 
 />
    <glyph glyph-name="Omega" unicode="&#x2126;" horiz-adv-x="1573" 
 />
    <glyph glyph-name="estimated" unicode="&#x212e;" horiz-adv-x="1229" 
 />
    <glyph glyph-name="oneeighth" unicode="&#x215b;" horiz-adv-x="1708" 
 />
    <glyph glyph-name="threeeighths" unicode="&#x215c;" horiz-adv-x="1708" 
 />
    <glyph glyph-name="fiveeighths" unicode="&#x215d;" horiz-adv-x="1708" 
 />
    <glyph glyph-name="seveneighths" unicode="&#x215e;" horiz-adv-x="1708" 
 />
    <glyph glyph-name="arrowleft" unicode="&#x2190;" horiz-adv-x="2048" 
 />
    <glyph glyph-name="arrowup" unicode="&#x2191;" horiz-adv-x="1024" 
 />
    <glyph glyph-name="arrowright" unicode="&#x2192;" horiz-adv-x="2048" 
 />
    <glyph glyph-name="arrowdown" unicode="&#x2193;" horiz-adv-x="1024" 
 />
    <glyph glyph-name="arrowboth" unicode="&#x2194;" horiz-adv-x="2048" 
 />
    <glyph glyph-name="arrowupdn" unicode="&#x2195;" horiz-adv-x="1024" 
 />
    <glyph glyph-name="arrowupdnbse" unicode="&#x21a8;" horiz-adv-x="1024" 
 />
    <glyph glyph-name="partialdiff" unicode="&#x2202;" horiz-adv-x="1012" 
 />
    <glyph glyph-name="Delta" unicode="&#x2206;" horiz-adv-x="1253" 
 />
    <glyph glyph-name="product" unicode="&#x220f;" horiz-adv-x="1686" 
 />
    <glyph glyph-name="summation" unicode="&#x2211;" horiz-adv-x="1460" 
 />
    <glyph glyph-name="minus" unicode="&#x2212;" horiz-adv-x="1196" 
 />
    <glyph glyph-name="radical" unicode="&#x221a;" horiz-adv-x="1124" 
 />
    <glyph glyph-name="infinity" unicode="&#x221e;" horiz-adv-x="1460" 
 />
    <glyph glyph-name="orthogonal" unicode="&#x221f;" horiz-adv-x="2005" 
 />
    <glyph glyph-name="intersection" unicode="&#x2229;" horiz-adv-x="1472" 
 />
    <glyph glyph-name="integral" unicode="&#x222b;" horiz-adv-x="561" 
 />
    <glyph glyph-name="approxequal" unicode="&#x2248;" horiz-adv-x="1124" 
 />
    <glyph glyph-name="notequal" unicode="&#x2260;" horiz-adv-x="1124" 
 />
    <glyph glyph-name="equivalence" unicode="&#x2261;" horiz-adv-x="1195" 
 />
    <glyph glyph-name="lessequal" unicode="&#x2264;" horiz-adv-x="1124" 
 />
    <glyph glyph-name="greaterequal" unicode="&#x2265;" horiz-adv-x="1124" 
 />
    <glyph glyph-name="house" unicode="&#x2302;" horiz-adv-x="1237" 
 />
    <glyph glyph-name="revlogicalnot" unicode="&#x2310;" horiz-adv-x="1196" 
 />
    <glyph glyph-name="integraltp" unicode="&#x2320;" horiz-adv-x="1237" 
 />
    <glyph glyph-name="integralbt" unicode="&#x2321;" horiz-adv-x="1237" 
 />
    <glyph glyph-name="SF100000" unicode="&#x2500;" horiz-adv-x="1451" 
 />
    <glyph glyph-name="SF110000" unicode="&#x2502;" horiz-adv-x="1280" 
 />
    <glyph glyph-name="SF010000" unicode="&#x250c;" horiz-adv-x="1451" 
 />
    <glyph glyph-name="SF030000" unicode="&#x2510;" horiz-adv-x="1451" 
 />
    <glyph glyph-name="SF020000" unicode="&#x2514;" horiz-adv-x="1451" 
 />
    <glyph glyph-name="SF040000" unicode="&#x2518;" horiz-adv-x="1451" 
 />
    <glyph glyph-name="SF080000" unicode="&#x251c;" horiz-adv-x="1451" 
 />
    <glyph glyph-name="SF090000" unicode="&#x2524;" horiz-adv-x="1451" 
 />
    <glyph glyph-name="SF060000" unicode="&#x252c;" horiz-adv-x="1451" 
 />
    <glyph glyph-name="SF070000" unicode="&#x2534;" horiz-adv-x="1451" 
 />
    <glyph glyph-name="SF050000" unicode="&#x253c;" horiz-adv-x="1451" 
 />
    <glyph glyph-name="SF430000" unicode="&#x2550;" horiz-adv-x="1451" 
 />
    <glyph glyph-name="SF240000" unicode="&#x2551;" horiz-adv-x="1451" 
 />
    <glyph glyph-name="SF510000" unicode="&#x2552;" horiz-adv-x="1451" 
 />
    <glyph glyph-name="SF520000" unicode="&#x2553;" horiz-adv-x="1451" 
 />
    <glyph glyph-name="SF390000" unicode="&#x2554;" horiz-adv-x="1451" 
 />
    <glyph glyph-name="SF220000" unicode="&#x2555;" horiz-adv-x="1451" 
 />
    <glyph glyph-name="SF210000" unicode="&#x2556;" horiz-adv-x="1451" 
 />
    <glyph glyph-name="SF250000" unicode="&#x2557;" horiz-adv-x="1451" 
 />
    <glyph glyph-name="SF500000" unicode="&#x2558;" horiz-adv-x="1451" 
 />
    <glyph glyph-name="SF490000" unicode="&#x2559;" horiz-adv-x="1451" 
 />
    <glyph glyph-name="SF380000" unicode="&#x255a;" horiz-adv-x="1451" 
 />
    <glyph glyph-name="SF280000" unicode="&#x255b;" horiz-adv-x="1451" 
 />
    <glyph glyph-name="SF270000" unicode="&#x255c;" horiz-adv-x="1451" 
 />
    <glyph glyph-name="SF260000" unicode="&#x255d;" horiz-adv-x="1451" 
 />
    <glyph glyph-name="SF360000" unicode="&#x255e;" horiz-adv-x="1451" 
 />
    <glyph glyph-name="SF370000" unicode="&#x255f;" horiz-adv-x="1451" 
 />
    <glyph glyph-name="SF420000" unicode="&#x2560;" horiz-adv-x="1451" 
 />
    <glyph glyph-name="SF190000" unicode="&#x2561;" horiz-adv-x="1451" 
 />
    <glyph glyph-name="SF200000" unicode="&#x2562;" horiz-adv-x="1451" 
 />
    <glyph glyph-name="SF230000" unicode="&#x2563;" horiz-adv-x="1451" 
 />
    <glyph glyph-name="SF470000" unicode="&#x2564;" horiz-adv-x="1451" 
 />
    <glyph glyph-name="SF480000" unicode="&#x2565;" horiz-adv-x="1451" 
 />
    <glyph glyph-name="SF410000" unicode="&#x2566;" horiz-adv-x="1451" 
 />
    <glyph glyph-name="SF450000" unicode="&#x2567;" horiz-adv-x="1451" 
 />
    <glyph glyph-name="SF460000" unicode="&#x2568;" horiz-adv-x="1451" 
 />
    <glyph glyph-name="SF400000" unicode="&#x2569;" horiz-adv-x="1451" 
 />
    <glyph glyph-name="SF540000" unicode="&#x256a;" horiz-adv-x="1451" 
 />
    <glyph glyph-name="SF530000" unicode="&#x256b;" horiz-adv-x="1451" 
 />
    <glyph glyph-name="SF440000" unicode="&#x256c;" horiz-adv-x="1451" 
 />
    <glyph glyph-name="upblock" unicode="&#x2580;" horiz-adv-x="1451" 
 />
    <glyph glyph-name="dnblock" unicode="&#x2584;" horiz-adv-x="1451" 
 />
    <glyph glyph-name="block" unicode="&#x2588;" horiz-adv-x="1451" 
 />
    <glyph glyph-name="lfblock" unicode="&#x258c;" horiz-adv-x="1451" 
 />
    <glyph glyph-name="rtblock" unicode="&#x2590;" horiz-adv-x="1451" 
 />
    <glyph glyph-name="ltshade" unicode="&#x2591;" horiz-adv-x="1451" 
 />
    <glyph glyph-name="shade" unicode="&#x2592;" horiz-adv-x="1451" 
 />
    <glyph glyph-name="dkshade" unicode="&#x2593;" horiz-adv-x="1493" 
 />
    <glyph glyph-name="filledbox" unicode="&#x25a0;" horiz-adv-x="1237" 
 />
    <glyph glyph-name="H22073" unicode="&#x25a1;" horiz-adv-x="1237" 
 />
    <glyph glyph-name="H18543" unicode="&#x25aa;" horiz-adv-x="726" 
 />
    <glyph glyph-name="H18551" unicode="&#x25ab;" horiz-adv-x="726" 
 />
    <glyph glyph-name="filledrect" unicode="&#x25ac;" horiz-adv-x="2048" 
 />
    <glyph glyph-name="triagup" unicode="&#x25b2;" horiz-adv-x="2027" 
 />
    <glyph glyph-name="triagrt" unicode="&#x25ba;" horiz-adv-x="2027" 
 />
    <glyph glyph-name="triagdn" unicode="&#x25bc;" horiz-adv-x="2027" 
 />
    <glyph glyph-name="triaglf" unicode="&#x25c4;" horiz-adv-x="2027" 
 />
    <glyph glyph-name="lozenge" unicode="&#x25ca;" horiz-adv-x="1012" 
 />
    <glyph glyph-name="circle" unicode="&#x25cb;" horiz-adv-x="1237" 
 />
    <glyph glyph-name="H18533" unicode="&#x25cf;" horiz-adv-x="1237" 
 />
    <glyph glyph-name="invbullet" unicode="&#x25d8;" horiz-adv-x="1237" 
 />
    <glyph glyph-name="invcircle" unicode="&#x25d9;" horiz-adv-x="1237" 
 />
    <glyph glyph-name="openbullet" unicode="&#x25e6;" horiz-adv-x="726" 
 />
    <glyph glyph-name="smileface" unicode="&#x263a;" horiz-adv-x="2091" 
 />
    <glyph glyph-name="invsmileface" unicode="&#x263b;" horiz-adv-x="2155" 
 />
    <glyph glyph-name="sun" unicode="&#x263c;" horiz-adv-x="1877" 
 />
    <glyph glyph-name="female" unicode="&#x2640;" horiz-adv-x="1536" 
 />
    <glyph glyph-name="male" unicode="&#x2642;" horiz-adv-x="1536" 
 />
    <glyph glyph-name="spade" unicode="&#x2660;" horiz-adv-x="1088" 
 />
    <glyph glyph-name="club" unicode="&#x2663;" horiz-adv-x="1344" 
 />
    <glyph glyph-name="heart" unicode="&#x2665;" horiz-adv-x="1216" 
 />
    <glyph glyph-name="diamond" unicode="&#x2666;" horiz-adv-x="1045" 
 />
    <glyph glyph-name="musicalnote" unicode="&#x266a;" horiz-adv-x="1024" 
 />
    <glyph glyph-name="musicalnotedbl" unicode="&#x266b;" horiz-adv-x="1536" 
 />
    <glyph glyph-name="uniF001" unicode="&#xf001;" horiz-adv-x="1336" 
d="M300 1566l239.002 -0.000976562c92 0 171.667 -40.667 239 -122c42 -60 63 -119.333 63 -178v-6c0 -62 -27 -114 -81 -156c-36 -25.333 -72 -38 -108 -38h-15c-56 0 -105.667 25.667 -149 77c-26 37.333 -39 71 -39 101l-1 1l1 92v162
c0 28.667 -12.667 48.334 -38 59.001l-20 4v-1111l1 -2v-1c21.333 0 38.666 12 51.999 36l4 19v228c0 75.333 32 125.333 96 150c16.667 5.33301 39 8 67 8h170l102 -1v-3c-20 0 -33.667 -10.667 -41 -32l-1 -12v-92l-2 -2l2 -1l-2 -6v-3c0 -52.667 -19 -107.667 -57 -165
c-66.667 -85.333 -149.334 -128 -248.001 -128h-143v-389c0 -24 15 -40.667 45 -50c8.66699 -0.666992 13 -2 13 -4l-1 -1h-448v1261c-0 79.333 29.333 150.333 88 213c64 61.333 134.667 92 212 92zM1247 1565c2 0 3 -1.66699 3 -5c0 -78 -38 -141.667 -114 -191
c-36 -19.333 -69 -29 -99 -29h-13l-9 -1c-40.667 0 -84.667 16.333 -132 49c-57.333 50.667 -86 109 -86 175l2 2h448zM799.002 1322h271.998c74 0 123.667 -28.333 149 -85c7.33301 -20 11 -38.667 11 -56v-1115c0 -30 16.333 -49 49 -57c7.33301 -1.33301 11 -3 11 -5
l-2 -1h-53l-1 1l-2 -1h-91l-6 1l-2 -1c-56 6.66699 -97.333 17.667 -124 33c-77.333 40.667 -129.666 102.667 -156.999 186c-8 32 -12 62.333 -12 91v960c-3.33301 29.333 -15.666 44 -36.999 44h-5v5z" />
    <glyph glyph-name="uniF001" unicode="&#xfb01;" horiz-adv-x="1336" 
d="M300 1566l239.002 -0.000976562c92 0 171.667 -40.667 239 -122c42 -60 63 -119.333 63 -178v-6c0 -62 -27 -114 -81 -156c-36 -25.333 -72 -38 -108 -38h-15c-56 0 -105.667 25.667 -149 77c-26 37.333 -39 71 -39 101l-1 1l1 92v162
c0 28.667 -12.667 48.334 -38 59.001l-20 4v-1111l1 -2v-1c21.333 0 38.666 12 51.999 36l4 19v228c0 75.333 32 125.333 96 150c16.667 5.33301 39 8 67 8h170l102 -1v-3c-20 0 -33.667 -10.667 -41 -32l-1 -12v-92l-2 -2l2 -1l-2 -6v-3c0 -52.667 -19 -107.667 -57 -165
c-66.667 -85.333 -149.334 -128 -248.001 -128h-143v-389c0 -24 15 -40.667 45 -50c8.66699 -0.666992 13 -2 13 -4l-1 -1h-448v1261c-0 79.333 29.333 150.333 88 213c64 61.333 134.667 92 212 92zM1247 1565c2 0 3 -1.66699 3 -5c0 -78 -38 -141.667 -114 -191
c-36 -19.333 -69 -29 -99 -29h-13l-9 -1c-40.667 0 -84.667 16.333 -132 49c-57.333 50.667 -86 109 -86 175l2 2h448zM799.002 1322h271.998c74 0 123.667 -28.333 149 -85c7.33301 -20 11 -38.667 11 -56v-1115c0 -30 16.333 -49 49 -57c7.33301 -1.33301 11 -3 11 -5
l-2 -1h-53l-1 1l-2 -1h-91l-6 1l-2 -1c-56 6.66699 -97.333 17.667 -124 33c-77.333 40.667 -129.666 102.667 -156.999 186c-8 32 -12 62.333 -12 91v960c-3.33301 29.333 -15.666 44 -36.999 44h-5v5z" />
    <glyph glyph-name="uniF002" unicode="&#xf002;" horiz-adv-x="1340" 
d="M300 1566l239.002 -0.000976562c92 0 171.667 -40.667 239 -122c42 -60 63 -119.333 63 -178v-6c0 -62 -27 -114 -81 -156c-36 -25.333 -72 -38 -108 -38h-15c-56 0 -105.667 25.667 -149 77c-26 37.333 -39 71 -39 101l-1 1l1 92v162
c0 28.667 -12.667 48.334 -38 59.001l-20 4v-1111l1 -2v-1c21.333 0 38.666 12 51.999 36l4 19v228c0 75.333 32 125.333 96 150c16.667 5.33301 39 8 67 8h170l102 -1v-3c-20 0 -33.667 -10.667 -41 -32l-1 -12v-92l-2 -2l2 -1l-2 -6v-3c0 -52.667 -19 -107.667 -57 -165
c-66.667 -85.333 -149.334 -128 -248.001 -128h-143v-389c0 -24 15 -40.667 45 -50c8.66699 -0.666992 13 -2 13 -4l-1 -1h-448v1261c-0 79.333 29.333 150.333 88 213c64 61.333 134.667 92 212 92zM1053 1566l260 0.000976562l2 -3c-28.667 -6 -43 -20.333 -43 -43v-1456
c0 -30 15 -49.333 45 -58c10 -1.33301 15 -3 15 -5l-2 -1h-153c-69.333 0 -136 28 -200 84c-64.667 63.333 -97 138.666 -97 225.999v1111c0 66.667 33.667 113 101 139c14.667 4 38.667 6 72 6z" />
    <glyph glyph-name="uniF002" unicode="&#xfb02;" horiz-adv-x="1340" 
d="M300 1566l239.002 -0.000976562c92 0 171.667 -40.667 239 -122c42 -60 63 -119.333 63 -178v-6c0 -62 -27 -114 -81 -156c-36 -25.333 -72 -38 -108 -38h-15c-56 0 -105.667 25.667 -149 77c-26 37.333 -39 71 -39 101l-1 1l1 92v162
c0 28.667 -12.667 48.334 -38 59.001l-20 4v-1111l1 -2v-1c21.333 0 38.666 12 51.999 36l4 19v228c0 75.333 32 125.333 96 150c16.667 5.33301 39 8 67 8h170l102 -1v-3c-20 0 -33.667 -10.667 -41 -32l-1 -12v-92l-2 -2l2 -1l-2 -6v-3c0 -52.667 -19 -107.667 -57 -165
c-66.667 -85.333 -149.334 -128 -248.001 -128h-143v-389c0 -24 15 -40.667 45 -50c8.66699 -0.666992 13 -2 13 -4l-1 -1h-448v1261c-0 79.333 29.333 150.333 88 213c64 61.333 134.667 92 212 92zM1053 1566l260 0.000976562l2 -3c-28.667 -6 -43 -20.333 -43 -43v-1456
c0 -30 15 -49.333 45 -58c10 -1.33301 15 -3 15 -5l-2 -1h-153c-69.333 0 -136 28 -200 84c-64.667 63.333 -97 138.666 -97 225.999v1111c0 66.667 33.667 113 101 139c14.667 4 38.667 6 72 6z" />
    <glyph glyph-name="uniF004" unicode="&#xf004;" horiz-adv-x="682" 
 />
    <glyph glyph-name="uniF005" unicode="&#xf005;" horiz-adv-x="682" 
 />
    <glyph glyph-name=".null" horiz-adv-x="0" 
 />
    <glyph glyph-name="nonmarkingreturn" horiz-adv-x="569" 
 />
    <glyph glyph-name="glyph155" horiz-adv-x="1124" 
 />
    <glyph glyph-name="glyph653" horiz-adv-x="818" 
 />
    </font>
</defs>
</svg>
